<?xml version="1.0" standalone="no"?>
<!DOCTYPE svg PUBLIC "-//W3C//DTD SVG 1.1//EN" "http://www.w3.org/Graphics/SVG/1.1/DTD/svg11.dtd" >
<svg xmlns="http://www.w3.org/2000/svg">
<metadata></metadata>
<defs>
<font id="love__trustregular" horiz-adv-x="1200" >
<font-face units-per-em="2048" ascent="1536" descent="-512" />
<missing-glyph horiz-adv-x="577" />
<glyph horiz-adv-x="2048" />
<glyph horiz-adv-x="2048" />
<glyph unicode="&#xd;" horiz-adv-x="577" />
<glyph unicode=" "  horiz-adv-x="577" />
<glyph unicode="&#x09;" horiz-adv-x="577" />
<glyph unicode="&#xa0;" horiz-adv-x="577" />
<glyph unicode="!" horiz-adv-x="258" d="M40.5 586.5q8.5 156.5 27.5 331.5q8 80 15 159.5t9 154.5t-1 142.5t-17 120.5q-6 25 7 46.5t38 27.5t46 -7.5t28 -37.5q16 -61 20 -134t2 -153t-10 -164t-17 -168q-8 -80 -15 -158.5t-9 -151.5t1 -137.5t17 -115.5q6 -25 -7 -46.5t-38 -29.5q-4 0 -7 -1t-7 -1 q-23 0 -39 12.5t-21 34.5q-31 119 -22.5 275.5zM74 61q0 23 16 40.5t39 17.5q25 0 41 -17.5t16 -40.5q0 -25 -16 -41t-41 -16q-23 0 -39 16.5t-16 40.5z" />
<glyph unicode="&#x22;" horiz-adv-x="473" d="M68 1204v6q0 27 17 44.5t44 17.5q25 0 43 -17.5t18 -44.5q-2 -41 2.5 -78.5t8.5 -78.5l8 -82t4 -86q0 -27 -17.5 -44.5t-43.5 -17.5q-25 0 -43.5 17.5t-18.5 44.5q0 41 -3 77.5t-7 75.5l-8 82t-4 84zM260 1208v6q0 27 17.5 44.5t44.5 17.5q25 0 43 -17.5t18 -44.5 q-2 -41 2 -78.5t8 -78.5t8.5 -82t4.5 -86q0 -27 -17.5 -44.5t-44.5 -17.5q-25 0 -43 17.5t-18 44.5q0 41 -3.5 78t-7.5 75l-8 82t-4 84z" />
<glyph unicode="#" horiz-adv-x="1142" d="M23 586q0 25 17 43t42 18q139 2 250 0q4 59 8 116.5t8 117.5q-37 0 -78 -1t-88 -1q-25 -2 -43 15t-18 44q-2 27 15.5 44t43.5 19q51 2 94 2.5t84 0.5q2 14 3 27t1 28q8 86 15.5 173t13.5 173q2 27 20.5 44t45.5 13q25 -2 42 -20.5t15 -42.5q-6 -88 -13 -176t-16 -174 q-2 -12 -2 -24.5t-2 -25.5q47 -2 89 -3t85 -5q6 135 17.5 254t29.5 209q6 25 27 39t47 8q25 -4 38 -25.5t9 -45.5q-16 -84 -27.5 -200t-17.5 -247q51 -4 108.5 -7t129.5 -7q27 0 43 -18.5t16 -45.5q-2 -25 -19.5 -41t-41.5 -16h-4q-70 4 -127.5 6t-110.5 6q-2 -59 -3 -117.5 t-1 -115.5q63 -4 135 -8.5t158 -8.5q27 -2 44 -20.5t15 -42.5q-2 -25 -19.5 -42.5t-41.5 -17.5h-2q-86 4 -157 8.5t-134 8.5q-2 -33 -2 -63.5v-59.5q-2 -102 -3 -187t-5 -151q0 -27 -17.5 -43t-42.5 -16h-4q-25 0 -42 18t-15 45q2 66 3 150t3 184v64.5t2 66.5q-49 4 -97 5 t-97 5q-4 -115 -3.5 -228.5t11.5 -225.5q2 -25 -14.5 -44.5t-43.5 -21.5h-4q-25 0 -42 15.5t-19 39.5q-10 117 -11 234t3 233q-106 2 -242 0q-25 0 -43 17.5t-18 44.5zM455 645q47 -4 94 -5t96 -5q0 117 6 233q-45 4 -89 6.5t-91 4.5q-4 -59 -8 -117t-8 -117z" />
<glyph unicode="$" horiz-adv-x="737" d="M37 215q2 27 20.5 44t42.5 15q27 -2 44.5 -20t15.5 -45q-2 -31 6 -51.5t22.5 -33.5t32 -20.5t33.5 -9.5q12 -2 24.5 -2h26.5q4 168 0 335t-12 335q-49 51 -95 103.5t-80 103.5t-51.5 101t-11.5 101q10 61 44 119t87 103q33 27 70 45q-4 49 -6 98l-4 98q-2 25 15.5 43.5 t41.5 20.5q27 2 45.5 -15.5t20.5 -44.5q2 -41 3 -81.5t5 -81.5q18 4 39 0q96 -6 151 -84t56 -211q-2 -27 -19.5 -44.5t-42.5 -17.5h-2q-25 0 -42 18.5t-17 43.5q0 29 -4 58.5t-14.5 54t-29 41t-46.5 18.5q-10 4 -23 0q2 -35 4 -68t4 -65q6 -102 11.5 -203t11.5 -205 q55 -59 109.5 -122.5t93 -131.5t55 -137.5t-1.5 -143.5q-20 -78 -66.5 -141t-111.5 -104q-16 -10 -33 -18.5t-35 -16.5q0 -72 -6 -146q-2 -25 -19.5 -41t-42.5 -16h-2q-27 2 -43 20.5t-16 43.5q2 29 3 56.5t3 55.5h-16h-24.5t-24.5 4q-86 12 -146 74q-59 66 -53 168z M178 1155q-6 -41 24.5 -92t80.5 -109q-4 66 -7.5 129.5t-7.5 126.5q-2 23 -3 43.5t-1 42.5q-76 -63 -86 -141zM422 618q4 -121 6 -240.5t0 -242.5q33 23 70 62.5t53 109.5q25 86 -53 209q-31 49 -76 102z" />
<glyph unicode="%" horiz-adv-x="1210" d="M51 1027q-12 58 2 124q18 102 82 174q37 41 81 62.5t91 21.5h6q51 0 96.5 -23.5t79.5 -64.5q61 -74 74 -180q10 -119 -59 -201q-23 -29 -71 -56.5t-126 -33.5h-26q-74 0 -117 24.5t-66 53.5q-35 41 -47 99zM171 1057.5q5 -31.5 22 -51.5q27 -33 88 -33h18q78 6 113 47 t28 110q-4 27 -14 55.5t-27.5 51.5t-39 37t-48.5 14h-4q-25 0 -46 -14t-38.5 -37t-31 -51.5t-19.5 -57.5q-6 -39 -1 -70.5zM354 66q35 137 80 278t94 293q66 188 124.5 378.5t92.5 373.5q4 25 26 39t46 10q27 -6 40 -26.5t9 -45.5q-35 -190 -95 -382.5t-126 -385.5 q-49 -150 -94 -289t-78 -272q-4 -23 -20 -35t-39 -12q-10 0 -15 2q-25 6 -38 27.5t-7 46.5zM659 311q16 104 78 176q37 41 82 64.5t99 26.5q57 4 107 -19.5t85 -69.5q29 -35 44 -82t17 -98q4 -111 -57 -192q-74 -96 -199 -105h-22q-113 0 -176 76q-37 41 -52.5 99.5 t-5.5 123.5zM782 295q-12 -80 27 -127q27 -33 84 -33h14q41 2 69 19.5t44 41t23.5 52t7.5 57.5q0 27 -8.5 53.5t-23.5 48t-36.5 35t-52.5 13.5h-6q-31 0 -55.5 -15.5t-42 -38t-29 -51t-15.5 -55.5z" />
<glyph unicode="&#x26;" horiz-adv-x="933" d="M51 221q-10 78 9.5 174.5t72.5 214.5q33 72 72 144.5t80 144.5q-35 123 -50.5 240.5t5.5 206.5q31 129 94 192q72 68 153 49q39 -10 72 -36.5t53 -69.5q18 -41 23.5 -88t-4.5 -99q-16 -68 -66.5 -160t-115.5 -202l-31 -49q18 -59 40.5 -123t49.5 -131q29 -72 60.5 -140.5 t60.5 -132.5q25 43 48 101.5t42.5 134.5t33 168t17.5 207q2 25 20.5 42t43.5 17q27 -2 44 -20.5t15 -42.5q-10 -242 -62 -428q-23 -86 -55.5 -161t-73.5 -136q-6 -6 -8 -11q37 -66 67 -115t52 -75q16 -20 14 -45t-22 -41q-14 -14 -39 -14q-12 0 -24.5 5t-22.5 17 q-23 29 -50.5 71t-58.5 95q-61 -59 -130.5 -94t-141.5 -39h-19q-100 0 -169 55q-80 61 -99 174zM174 240q10 -61 51 -95t105 -30q57 4 113.5 35.5t107.5 89.5q-41 80 -81 168t-75 176q-32 77 -59 155q-37 -68 -70 -134t-56.5 -130.5t-33.5 -124t-2 -110.5zM360 1319 q-23 -98 15 -270q49 84 87 154.5t48 117.5q12 59 -6.5 100t-42.5 47h-6q-23 0 -50.5 -36.5t-44.5 -112.5z" />
<glyph unicode="'" horiz-adv-x="253" d="M53 1204v6q0 27 17.5 44.5t44.5 17.5q25 0 43 -17.5t18 -44.5q-2 -41 2 -78.5t8 -78.5t8.5 -82t4.5 -86q0 -27 -17.5 -44.5t-44.5 -17.5q-25 0 -43 17.5t-18 44.5q0 41 -3 77.5t-7 75.5q-4 41 -8.5 82t-4.5 84z" />
<glyph unicode="(" horiz-adv-x="516" d="M49 422q-12 158 17 362q25 186 69.5 347t85.5 262q10 23 32.5 33t47.5 -1q23 -10 33 -32.5t0 -46.5q-25 -63 -53.5 -154.5t-52 -197t-41 -221.5t-19.5 -227.5t13.5 -213t56.5 -180.5q70 -135 211 -172q25 -6 37 -28t6 -46q-4 -23 -20.5 -35t-39.5 -12q-4 0 -7 1t-7 1 q-197 49 -289 235q-68 129 -80 326z" />
<glyph unicode=")" horiz-adv-x="514" d="M25 -94q-6 25 6 46t37 28q141 37 211 172q41 80 56 181t13 212.5t-19.5 227.5t-41 221.5t-52 196.5t-53.5 155q-10 25 0.5 47t32.5 32q25 10 47.5 0t32.5 -32q41 -100 86 -261t70 -348q29 -205 16 -362q-12 -197 -80 -326q-92 -186 -289 -235q-4 0 -7 -1t-7 -1 q-23 0 -39 12t-20 35z" />
<glyph unicode="*" horiz-adv-x="620" d="M35 1089.5q0 24.5 18 43.5q16 18 42 18t44 -18q14 -14 38 -39t50.5 -51.5t52 -51t42.5 -37.5q14 -12 46.5 -35.5t68.5 -49t69 -51t49 -40.5q18 -20 18 -44.5t-18 -43.5q-18 -16 -44 -17t-44 17q-14 14 -45 40t-65.5 53.5t-66.5 52t-46 36.5q-16 12 -41 35t-52.5 47.5 t-53.5 48t-40 39.5l-4 5q-18 18 -18 42.5zM82 738q0 26 18 44q14 14 37 38t46.5 49.5t44 49t32.5 39.5q12 14 39 46t57.5 67t59.5 66t45 47q0 4 4 4q18 18 42.5 18t43.5 -18q18 -16 18 -42t-18 -44q-14 -14 -42 -44t-57.5 -63.5t-56 -64.5t-39.5 -47q-12 -16 -34.5 -41 t-47 -52.5t-48 -53t-40.5 -40.5q-18 -18 -42.5 -18t-43.5 18q-18 16 -18 42zM248 1204v6q0 27 17.5 44.5t43.5 17.5q25 0 43.5 -17.5t18.5 -44.5q0 -20 1 -61t4 -85t6 -85t5 -61t4 -53.5t4 -70t3 -71.5t1 -57q0 -27 -17 -44.5t-44 -17.5q-25 0 -43.5 17.5t-18.5 44.5 q0 20 -1 52t-2 66.5t-3 67.5t-4 51q-2 20 -5 61.5t-6 87.5t-5 87.5t-2 64.5z" />
<glyph unicode="+" horiz-adv-x="819" d="M12 641q0 25 17.5 43t44.5 18q20 0 62 -1t89 -1t89 1t63 4q20 2 72.5 7t112 11t112.5 10t76 4q27 0 44 -17.5t17 -43.5q0 -25 -17.5 -43.5t-43.5 -18.5q-20 0 -72.5 -3t-112 -6t-113 -7t-71.5 -6q-20 -2 -61 -4t-87.5 -4t-89.5 -3t-63 -1h-6q-27 0 -44.5 17t-17.5 44z M313 965v6q0 27 17.5 44t44.5 17q25 0 43 -17.5t18 -43.5q0 -20 1 -61.5t4 -85.5t6.5 -85t5.5 -61t4 -73.5t4 -115t3 -116t1 -76.5q0 -27 -17.5 -44t-44.5 -17q-25 0 -43 17t-18 44q0 20 -1 72.5t-2 112t-3 111.5t-4 71q-2 20 -5 61t-6.5 87t-5.5 88t-2 65z" />
<glyph unicode="," horiz-adv-x="290" d="M63 -207q0 16 13.5 27.5t29.5 11.5q29 -4 41.5 10.5t16.5 26.5q14 33 -4.5 85t-79.5 99q-14 10 -16.5 26.5t8.5 31.5q10 14 26.5 16t30.5 -8q88 -68 110.5 -145.5t2.5 -133.5q-35 -90 -129 -90h-13q-16 2 -27.5 14.5t-9.5 28.5z" />
<glyph unicode="-" horiz-adv-x="557" d="M57 555q0 25 17.5 43t44.5 18q41 -2 79 2.5t78 8.5l82 8t86 4q27 0 44.5 -17.5t17.5 -43.5q0 -25 -17.5 -43.5t-44.5 -18.5q-41 0 -77.5 -3t-75.5 -7l-82 -8t-84 -4h-6q-27 0 -44.5 17t-17.5 44z" />
<glyph unicode="." horiz-adv-x="258" d="M55 76q0 33 21.5 54.5t50.5 21.5q33 0 54.5 -21.5t21.5 -54.5q0 -29 -21.5 -50.5t-54.5 -21.5q-29 0 -50.5 21.5t-21.5 50.5z" />
<glyph unicode="/" horiz-adv-x="569" d="M20 80q35 104 65 201.5t60 201.5q25 86 53.5 178.5t62.5 200t77 231.5t98 273q10 23 33 34t47 1q23 -8 34 -31.5t1 -46.5q-55 -147 -97 -270t-76 -229.5t-62.5 -199t-53.5 -175.5q-29 -104 -59.5 -204t-67.5 -206q-6 -18 -22.5 -29.5t-34.5 -11.5q-8 0 -21 4 q-25 8 -36 30.5t-1 47.5z" />
<glyph unicode="0" horiz-adv-x="927" d="M58.5 520.5q-3.5 81.5 4.5 167.5q10 127 43 247t80 216q25 53 54.5 94t62.5 70q78 72 166 71h8q86 -4 160 -67q31 -29 59.5 -65.5t53.5 -84.5q45 -86 73.5 -193.5t38.5 -225.5q10 -133 -5 -254t-56 -217q-106 -242 -336 -267q-10 -2 -21.5 -2h-21.5q-135 0 -229 101 q-82 92 -117 256q-14 72 -17.5 153.5zM186 678q-14 -164 11.5 -292t85.5 -193q57 -59 139 -60q20 0 31 2q158 16 235 193q35 82 49.5 187.5t3.5 223.5q-10 106 -34.5 200.5t-61.5 166.5t-81 114t-91 44h-4q-43 0 -88 -44t-86 -124q-41 -86 -69.5 -193.5t-39.5 -224.5z" />
<glyph unicode="1" horiz-adv-x="423" d="M12 1245q-4 25 9.5 45.5t35.5 26.5q2 2 9.5 7t21.5 19q12 14 25.5 30t25.5 32q31 37 60 65q6 6 15 14.5t21.5 15.5t29 11.5t34.5 -2.5q14 -4 32.5 -21.5t22.5 -60.5q14 -166 5 -316t-25 -304q-16 -172 -27.5 -354.5t15.5 -389.5q4 -27 -12.5 -46t-41.5 -23h-8 q-23 0 -40 15.5t-21 37.5q-27 217 -15.5 405.5t27.5 366.5q14 129 22.5 254t4.5 256q-2 0 -2 -1t-3 -1q-45 -55 -78.5 -88t-68.5 -41q-27 -6 -47.5 8.5t-26.5 38.5z" />
<glyph unicode="2" horiz-adv-x="1087" d="M66 168q12 47 52 83t97 52t132 10t161 -22l4 8l4 8q39 78 67.5 174.5t45.5 196.5q14 92 12 171t-18 126q-2 2 -2 4t-3 6q-16 92 -56 159.5t-103 104.5q-111 68 -266 17q-25 -10 -47.5 1t-30.5 36t3 47t34 30q51 18 101 25.5t97 3.5q90 -6 172 -53q86 -51 141.5 -139.5 t75.5 -204.5q14 -43 19.5 -91.5t5.5 -96.5t-5 -91t-9 -74q-16 -109 -47 -210t-72 -187q123 -33 229.5 -75t165.5 -70q23 -12 31 -37t-4 -47q-10 -23 -35 -30t-47 3q-55 29 -153.5 67t-213.5 68q-10 4 -18 6.5t-19 4.5q-27 -37 -51 -62q-66 -74 -147 -100q-68 -19 -117 -19 q-59 0 -94 18.5t-54 35.5q-61 59 -38 143zM184 135q-4 -12 6 -22q12 -12 48 -16.5t96 12.5q51 16 100 71q-35 6 -64.5 8t-54.5 2q-41 0 -67 -6q-31 -8 -45.5 -22.5t-18.5 -26.5z" />
<glyph unicode="3" horiz-adv-x="892" d="M38 134q-5 24 7 46q14 23 39 29t47 -8q123 -78 239.5 -80t209.5 69q74 59 105.5 147.5t2.5 166.5q-29 84 -117 128t-223 44q-35 0 -55 31q-16 33 4 63q29 47 56.5 89t56.5 83q47 70 86 129t63 109q25 51 27 75.5t-4 34.5q-4 8 -24.5 20.5t-74.5 22.5q-102 20 -319 15 q-27 -2 -45.5 15t-20.5 42q0 27 17.5 45t42.5 20q242 8 366.5 -19.5t165.5 -100.5q14 -29 17.5 -58.5t-2 -59.5t-15.5 -56.5t-22 -49.5q-27 -55 -68 -118.5t-88 -135.5q-14 -20 -27.5 -39.5t-27.5 -41.5q115 -16 192 -64q115 -66 156 -182q20 -57 19 -118.5t-20.5 -122 t-57 -114t-89.5 -96.5q-57 -45 -123.5 -69.5t-138.5 -26.5h-16q-158 0 -313 98q-23 14 -28 38z" />
<glyph unicode="4" horiz-adv-x="907" d="M44 967q-1 82 5 177t12 197q2 20 2 41t3 41q2 25 21 42.5t44 15.5q27 -2 43 -20.5t14 -45.5q-2 -20 -3 -40.5t-3 -41.5q-6 -88 -10 -175t-4 -163.5t6 -139t25 -99.5q20 -41 56 -62.5t97 -29.5q80 -10 191 0q4 53 5 102t5 96q10 158 14 294t-18 261q-4 25 11 46.5t40 25.5 t45.5 -11.5t24.5 -39.5q23 -135 19.5 -277.5t-13.5 -304.5q-4 -45 -5 -90t-5 -92q12 0 25.5 1t25.5 3l46 4l46 4q25 4 44.5 -12t23.5 -43q2 -25 -14.5 -44.5t-43.5 -21.5q-23 -4 -45 -5t-45 -5l-67 -6q-4 -111 0 -230.5t18 -250.5q2 -27 -14.5 -45.5t-40.5 -22.5h-7 q-23 0 -40 15.5t-21 39.5q-14 133 -18 253t0 233q-29 -4 -54.5 -4h-50.5h-50.5t-45.5 4q-90 12 -148 47q-68 41 -102 112q-23 49 -33 117t-11 150z" />
<glyph unicode="5" horiz-adv-x="862" d="M51 140q-6 24 8 46q14 23 39 28t47 -9q129 -82 239 -92.5t187 55.5q43 35 70 88t38 114.5t4 127t-32 125.5q-16 37 -47 82t-84 82.5t-132 59t-189 11.5q-23 -4 -42.5 9.5t-23.5 35.5q-10 33 -4 77t16 101q8 43 14.5 90.5t8.5 90.5q0 47 -7 70.5t-18 33.5q-16 16 -17 36.5 t9 39.5q12 18 32.5 25.5t41.5 -1.5q84 -33 169 -23.5t177 27.5q39 8 79 15.5t81 11.5q25 2 44 -13.5t23 -41.5q4 -25 -12 -44.5t-43 -23.5q-37 -4 -73 -10t-74 -14q-72 -14 -145 -25.5t-148 -3.5q8 -61 -1.5 -129t-19.5 -131q-4 -16 -6 -38t-6 -40q172 2 307 -76 q139 -82 205 -237q31 -76 40 -159t-7 -165q-16 -84 -54 -153.5t-94 -118.5q-102 -84 -239 -84h-11q-154 4 -321 112q-23 14 -29 38z" />
<glyph unicode="6" horiz-adv-x="874" d="M51 598q-4 147 28 286.5t91 250.5q86 156 218 223t294 39q25 -4 39 -24.5t10 -45.5q-4 -27 -24.5 -41t-44.5 -10q-250 43 -386 -201q-61 -111 -84.5 -246t-15.5 -264q63 72 141 113q121 57 242 27q55 -12 104.5 -43t88.5 -76q37 -47 58 -99.5t26 -107.5q6 -115 -62 -217 q-63 -98 -170 -144q-62 -24 -125 -24q-35 0 -80 10q-115 29 -206 133q-63 72 -100.5 193t-41.5 268zM201 393q16 -55 35.5 -99t48.5 -75q129 -145 272 -88q35 14 64.5 40t50 58.5t32 69.5t9.5 74q-4 74 -56.5 134t-128.5 79q-90 23 -172.5 -26.5t-154.5 -166.5z" />
<glyph unicode="7" horiz-adv-x="886" d="M49 1321q6 25 27.5 37t46.5 6q106 -27 189 -34t146.5 -4t110.5 12.5t84 19.5q29 8 52.5 13t46.5 5h2q63 0 102 -45q14 -16 16 -34.5t-6 -34.5q-37 -74 -82 -132.5t-94 -117.5q-47 -57 -95 -120t-97 -147q35 2 71.5 6.5t77.5 8.5q27 4 46.5 -11.5t23.5 -39.5 q4 -27 -11.5 -46.5t-41.5 -23.5q-68 -10 -124.5 -14t-107.5 -7q-47 -104 -94 -244.5t-88 -332.5q-4 -23 -20.5 -36t-39.5 -13q-8 0 -12 2q-27 4 -40 25.5t-7 46.5q39 180 81 316t89 243q-37 4 -74 9t-75 13q-25 6 -38.5 27.5t-7.5 46.5q4 25 26 39t46 8q47 -10 90 -16.5 t88 -8.5q61 117 123 198t117 149q35 41 64.5 78.5t56.5 78.5q-6 -2 -14.5 -3t-16.5 -5q-39 -10 -92 -21.5t-125 -14.5t-164 5.5t-211 36.5q-25 6 -38 28.5t-7 47.5z" />
<glyph unicode="8" horiz-adv-x="800" d="M69 284q-1 38 9 83q25 106 82 192t123 158q-76 76 -134.5 180t-58.5 250q0 174 84 270q80 92 203 92q66 0 127 -26.5t110 -75.5q96 -100 97 -240q-2 -68 -24.5 -127t-58.5 -114.5t-81 -105.5t-90 -99q8 -6 15 -13.5t15 -13.5q49 -43 96.5 -87t83 -95t53 -109.5 t9.5 -130.5q-18 -133 -121 -206q-43 -33 -97.5 -49.5t-113.5 -16.5q-82 0 -152.5 31.5t-117.5 87.5q-14 18 -27.5 41.5t-21.5 54.5t-9 69zM199 340q-20 -84 24 -145q29 -35 75 -53.5t99 -18.5q33 0 67 8t63.5 28.5t51 51.5t27.5 78q6 45 -5 83t-37.5 74.5t-66.5 74.5t-89 81 q-10 8 -17.5 15.5t-17.5 15.5q-59 -66 -107.5 -136.5t-66.5 -156.5zM213 1147q0 -115 45 -196t109 -146q90 92 154.5 178t66.5 186q0 53 -19.5 91t-42.5 61q-65 65 -149 65q-23 0 -53.5 -9t-55.5 -40q-55 -61 -55 -190z" />
<glyph unicode="9" horiz-adv-x="874" d="M39 1049q-6 115 61 217q63 98 170 143q62 25 125 25q35 0 80 -11q115 -29 207 -133q63 -72 100 -192.5t41 -268.5q4 -147 -27.5 -286.5t-90.5 -249.5q-86 -156 -218.5 -223.5t-293.5 -38.5q-25 4 -39.5 24.5t-10.5 44.5q4 27 24.5 41.5t45.5 10.5q250 -43 385 200 q61 111 85 246t15 264q-63 -72 -141 -112q-121 -57 -242 -27q-55 12 -104 43t-88 76q-37 47 -58.5 99t-25.5 108zM162 1055q4 -74 56 -134.5t128 -78.5q90 -23 173 26t155 166q-16 55 -36 99.5t-48 74.5q-129 145 -273 88q-35 -14 -64.5 -39.5t-50 -58.5t-31.5 -69.5 t-9 -73.5z" />
<glyph unicode=":" horiz-adv-x="268" d="M59 719q0 33 21.5 54.5t50.5 21.5q33 0 54.5 -21.5t21.5 -54.5q0 -29 -21.5 -50.5t-54.5 -21.5q-29 0 -50.5 21.5t-21.5 50.5zM61 76q0 33 21.5 54.5t50.5 21.5q33 0 54.5 -21.5t21.5 -54.5q0 -29 -21.5 -50.5t-54.5 -21.5q-29 0 -50.5 21.5t-21.5 50.5z" />
<glyph unicode=";" horiz-adv-x="278" d="M29 719q0 33 21.5 54.5t49.5 21.5q33 0 54.5 -21.5t21.5 -54.5q0 -29 -21.5 -50.5t-54.5 -21.5q-29 0 -50 21.5t-21 50.5zM57 -207q0 16 13.5 27.5t29.5 11.5q29 -4 41.5 10.5t16.5 26.5q14 33 -4.5 85t-79.5 99q-14 10 -16.5 26.5t8.5 31.5q10 14 26.5 16t30.5 -8 q88 -68 110.5 -145.5t2.5 -133.5q-36 -90 -130 -90h-12q-16 2 -27.5 14.5t-9.5 28.5z" />
<glyph unicode="&#x3c;" horiz-adv-x="1013" d="M4 705q0 20 11.5 36.5t31.5 22.5q127 39 230.5 73.5t192.5 70.5t167 76t156 91q20 14 44.5 9t39.5 -25q14 -23 10 -47.5t-27 -38.5q-66 -45 -133.5 -81t-141 -67.5t-153.5 -61.5t-172 -61q88 -33 161 -64.5t137.5 -62t121.5 -62.5t115 -64q29 -16 57.5 -33t58.5 -33 q23 -12 30 -36.5t-5 -47.5q-16 -31 -53 -31q-16 0 -29 6q-33 18 -62.5 35t-58.5 33q-72 39 -140.5 77t-148 75.5t-176 74.5t-221.5 78q-43 12 -43 58z" />
<glyph unicode="=" horiz-adv-x="997" d="M63 883q0 25 17.5 43t44.5 18q41 -2 79 2t79 8q12 2 57 3t105.5 3.5t129 3.5t130 2t107.5 1h60q27 0 44.5 -17.5t17.5 -44.5q0 -25 -17.5 -43t-44.5 -18h-58t-103.5 -1t-127 -2t-127 -2t-103.5 -2t-56 -3q-41 -4 -82 -8.5t-84 -4.5h-6q-27 0 -44.5 17.5t-17.5 44.5z M102 555q0 25 17.5 43t44.5 18h64t94.5 2.5t94.5 4.5t64 4t74.5 4t117 4t118 3t77.5 1q27 0 44.5 -17.5t17.5 -43.5q0 -25 -17.5 -43.5t-44.5 -18.5q-20 0 -73.5 -1t-113.5 -2t-113.5 -3t-71.5 -4q-20 -2 -65.5 -4t-96.5 -4t-97.5 -3t-66.5 -1h-6q-27 0 -44.5 17t-17.5 44z " />
<glyph unicode="&#x3e;" horiz-adv-x="1013" d="M73 346.5q7 24.5 29 36.5q31 16 59.5 32.5t57.5 33.5q57 33 114.5 64.5t122 62t137.5 62.5t161 64q-92 31 -172 61t-154 61.5t-141.5 67.5t-132.5 81q-23 14 -27 38.5t10 47.5q14 20 39 25.5t45 -9.5q76 -51 155 -91t168 -76t192.5 -70.5t230.5 -73.5q20 -6 31.5 -22.5 t11.5 -36.5q0 -45 -43 -58q-125 -41 -221.5 -78t-176.5 -74.5t-149.5 -75.5t-138.5 -77q-29 -16 -58.5 -32.5t-62.5 -35.5q-13 -6 -29 -6q-39 0 -53 31q-12 23 -5 47.5z" />
<glyph unicode="?" horiz-adv-x="790" d="M8.5 994q-0.5 26 18.5 42q229 227 383 303q39 20 73.5 31.5t65.5 13.5q70 6 121 -32q76 -62 82 -209q2 -57 -6.5 -128t-28.5 -153q-18 -74 -43 -152.5t-55.5 -156.5t-64.5 -150.5t-71 -136.5q-18 -31 -53 -30q-20 0 -31 8q-23 12 -30 36.5t8 47.5q70 121 128 271.5 t93 291.5q35 145 31 248q-2 43 -10.5 73.5t-24.5 40.5q-33 27 -129 -22q-70 -35 -158 -105.5t-194 -177.5q-18 -16 -44 -16t-42 18q-18 18 -18.5 44zM373 68q0 29 16 47t41 18q23 0 40 -18.5t17 -46.5q0 -29 -17 -47.5t-40 -18.5q-25 0 -41 18.5t-16 47.5z" />
<glyph unicode="@" horiz-adv-x="1138" d="M88 446q-55 240 23 572q53 227 194 344q133 111 303 88q96 -12 183 -68q86 -51 153 -143q143 -197 137 -477q-4 -133 -26 -201q-25 -84 -86 -106q-18 -6 -37 -6q-51 0 -107 43q-41 35 -71 71q-10 -27 -22.5 -56.5t-30 -56t-40 -49t-51.5 -34.5q-23 -10 -57.5 -12.5 t-81.5 20.5q-74 39 -109 121q-29 63 -38 163q-4 80 7 167t38 159q39 100 98 150q63 57 141 41q86 -18 142 -121q49 -96 43 -230q0 -25 -18.5 -42t-45.5 -15q-25 0 -42 18.5t-17 44.5q4 47 -4.5 90.5t-24.5 75.5q-25 49 -57 58q-25 4 -51.5 -27t-49.5 -88t-32 -131t-5 -141 q6 -72 27 -119t53 -64q16 -8 24.5 -7t12.5 1q6 4 18.5 15.5t28.5 42.5q12 25 21.5 52t17.5 50q4 12 7 22.5t8 18.5q4 6 5 12t5 10q20 31 55 31q29 0 50.5 -18.5t49.5 -50.5q14 -16 29.5 -34t32.5 -32q14 -12 23.5 -17.5t13.5 -7.5q6 8 16 48.5t14 142.5q2 74 -8 136.5 t-26.5 111.5t-37 88t-40.5 67q-51 68 -116.5 110t-137.5 52q-129 16 -225.5 -75t-137.5 -265q-66 -283 -29.5 -485.5t171.5 -306.5q113 -86 270.5 -84t321.5 90q23 10 47 3t37 -30q10 -23 2.5 -46.5t-29.5 -35.5q-92 -51 -188.5 -76.5t-188.5 -25.5q-2 -2 -6 -2 q-197 0 -342 110q-37 29 -69.5 65t-57.5 79q-55 88 -80 202z" />
<glyph unicode="A" d="M32 55q0 24 15 41q129 145 232 541q43 166 71.5 324.5t46.5 271.5q12 70 19 110q4 10 5 19.5t3 15.5q4 10 12 27.5t33 26.5q11 4 21 4q21 0 40 -17q12 -10 18.5 -25.5t16.5 -50.5q8 -43 31 -116q14 -59 33.5 -130t41 -150t46 -162t53.5 -164q88 23 177 39t181 16 q27 0 44.5 -17.5t17.5 -44.5q0 -25 -17.5 -43t-44.5 -18q-80 0 -158.5 -13.5t-160.5 -35.5q37 -104 69.5 -176t59.5 -120t48.5 -75t37.5 -39q20 -16 24 -40.5t-14 -45.5q-17 -22 -46 -22h-3q-23 0 -37 12q-74 55 -153 219q-25 51 -50.5 114.5t-54.5 139.5q-2 -2 -6 -2 q-86 -25 -173 -48.5t-179 -33.5q-39 -115 -86 -211t-107 -162q-16 -18 -41.5 -19t-46.5 15q-19 17 -19 45zM373 518q72 12 140.5 30.5t137.5 37.5q-45 137 -83 271t-66 245q-23 -125 -53.5 -277.5t-75.5 -306.5z" />
<glyph unicode="B" horiz-adv-x="1050" d="M43 115q6 25 28.5 38t47.5 7q18 -4 36.5 -8.5t37.5 -8.5q51 115 71.5 266.5t20.5 309.5t-16.5 305t-37.5 254q-49 -4 -104 -12q-25 -4 -44.5 11t-23.5 42q-4 25 11.5 45t40.5 25q160 21 284 21q91 0 162 -11q168 -29 236 -117q39 -48 45 -110q1 -11 1 -21q0 -53 -24 -109 q-49 -121 -176 -225q-12 -10 -25.5 -19.5t-27.5 -19.5q121 -35 205 -86q76 -43 125.5 -98.5t72.5 -116.5q18 -49 18 -98q-1 -29 -7 -59q-18 -80 -76 -146q-53 -59 -135 -101t-187 -61q-88 -16 -176 -16q-80 0 -164 11t-174 34q-25 5 -38 27q-9 15 -9 32q0 7 2 15zM319 125 q54 -4 104 -5q17 0 33 1q64 2 124 12q84 16 148.5 47t105.5 76q50 58 50 121q0 28 -10 57q-35 92 -157.5 160t-308.5 98q0 -63 -5.5 -135t-14.5 -145.5t-26.5 -147.5t-42.5 -139zM356 1286q20 -104 32.5 -222t17.5 -239q43 12 88 40t84.5 63t72.5 77t49 82q15 35 15 64 q0 33 -19 57q-40 52 -157 70q-41 6 -85 8q-22 1 -46.5 1t-51.5 -1z" />
<glyph unicode="C" horiz-adv-x="1097" d="M74 862q20 274 119 426q29 43 60.5 70.5t62 44t60.5 23t54 6.5h2q72 0 144.5 -38t136.5 -108q59 -66 96 -146.5t45 -164.5q4 -25 -12.5 -44.5t-42.5 -23.5q-25 -2 -44.5 14.5t-23.5 41.5q-6 63 -34.5 125.5t-71.5 111.5t-93.5 79t-99.5 30h-2q-78 -4 -135 -88 q-39 -59 -64.5 -153.5t-35.5 -217.5q-5 -61 -4 -118q0 -86 10 -163q18 -129 65 -227q41 -86 98.5 -139t124.5 -72q35 -9 69 -9l165 52q66 41 123 113.5t104 171.5q10 23 35 31t47 -3q23 -11 31 -35q4 -11 4 -21q0 -13 -6 -25q-109 -229 -273 -336q-82 -51 -163 -66 q-35 -6 -68 -6q-25 0 -49.5 4t-48.5 10q-96 25 -173 95.5t-130 181.5q-55 115 -77 260q-12 82 -12 171q0 69 7 142z" />
<glyph unicode="D" horiz-adv-x="1310" d="M78 30q-6 22 -6 43q0 34 14 66q25 57 86 86q39 19 92 19q23 0 49 -4q6 0 15 -4q31 -12 59.5 -23.5t56.5 -22.5q29 74 35 172q2 38 2 77q0 65 -6 134q-10 111 -24 222q-15 111 -25 210q-5 51 -5 96q0 43 5 81q4 25 24.5 40t45.5 11t41 -23.5t12 -44.5q-5 -35 -5 -77 q0 -38 4 -82q9 -93 23 -197q13 -115 25 -229q8 -75 8 -149q0 -38 -2 -75q-4 -59 -13 -108t-26 -92q119 -30 214 -30q158 0 249 83q92 84 109 252q3 35 3 71q0 132 -46 277q-23 74 -67 140.5t-104.5 121.5t-134 98t-155.5 68q-94 28 -183 28q-33 1 -65 -3q-119 -14 -197 -78 q-20 -16 -44.5 -14.5t-41.5 22.5q-16 20 -14 45t23 41q111 88 262 106q37 4 74 4q108 0 221 -34q186 -57 329 -185q158 -141 213 -323q36 -104 48 -204q7 -53 6 -103q0 -45 -5 -88q-10 -106 -48 -190.5t-101 -143.5q-125 -113 -326 -115q-125 0 -278 43q-33 -39 -68 -65 q-86 -68 -164 -76h-24q-63 0 -111 35q-45 35 -59 91zM199 92q-3 -10 -3 -19q0 -22 17 -36q12 -10 36 -10q8 0 18 1q38 5 95 48q4 4 6.5 5t6.5 5q-23 8 -43.5 15.5t-42.5 17.5q-9 2 -25 2q-49 0 -65 -29z" />
<glyph unicode="E" horiz-adv-x="1198" d="M55 551q-1 6 -1 11q0 19 10 35q14 21 40 28q16 4 31 6t29 6q1 60 1 120v60q-1 90 -10.5 176t-25.5 165t-45 147q-5 14 -5 26q0 23 17 41q37 33 91 33h6q18 -2 38.5 -6t44.5 -10q46 -11 108 -23q41 -8 90 -8q26 0 55 2q83 6 188.5 36.5t238.5 104.5q15 8 30 8q10 0 18 -3 q24 -7 36 -29q12 -23 5 -47.5t-29 -36.5q-147 -80 -268 -114q-120 -34 -216 -40q-32 -2 -61 -2q-59 0 -105 8q-70 12 -118 25q-6 0 -11.5 1t-11.5 3q41 -135 53 -290q11 -134 11 -269v-43l80 24q102 33 208.5 58.5t253.5 25.5q25 0 43.5 -17.5t18.5 -43.5q0 -27 -18.5 -44.5 t-43.5 -17.5q-68 0 -124 -6t-106 -17t-98 -25.5t-97 -28.5q-29 -10 -59 -18.5t-62 -18.5q-2 -43 -3 -86t-6 -84q-2 -59 -4 -114.5t-4 -106.5q84 31 184 62q100 30 210 37q24 2 48 2q86 -1 178 -21q116 -26 234 -107q23 -16 27 -40q1 -5 1 -11q0 -18 -11 -35q-16 -23 -41 -27 t-45 13q-102 72 -207 92q-68 13 -133 13q-36 0 -71 -4q-99 -11 -191.5 -42t-171.5 -61q-14 -4 -25.5 -9.5t-24.5 -9.5q-12 -4 -20 -4q-18 0 -35 10q-27 20 -27 49q-2 32 -2 67q1 39 3 82q4 81 8 171q2 33 3 64.5t3 66.5q-10 -2 -17.5 -3t-15.5 -3q-4 -2 -12 -2 q-23 0 -40.5 13t-21.5 36z" />
<glyph unicode="F" horiz-adv-x="978" d="M53 1382q4 8 15.5 22.5t37.5 18.5h21q20 0 37 -12q36 -4 98 -7q27 -1 57 -1q41 0 89 2q94 6 220 31.5t246 89.5q15 8 30 8q10 0 18 -3q24 -7 34 -30q12 -23 5 -47t-29 -37q-72 -37 -144.5 -61.5t-143.5 -40t-136.5 -23.5t-118.5 -10q-45 -2 -83 -2t-68 2q86 -204 86 -467 v-12q0 -41 -2.5 -81t-6.5 -81q14 4 26.5 8t27.5 8q135 47 273 85t273 38q25 0 42.5 -17.5t17.5 -43.5q0 -25 -17.5 -43.5t-42.5 -18.5q-123 0 -250.5 -36.5t-256.5 -79.5q-27 -8 -53.5 -16.5t-55.5 -18.5q-10 -74 -22.5 -147.5t-26.5 -145.5q-8 -41 -14.5 -80t-14.5 -78 q-4 -23 -20.5 -38t-38.5 -15q-4 0 -5 1t-5 1q-25 4 -40.5 24.5t-11.5 45.5q8 41 14.5 80t14.5 82q10 57 20.5 114.5t20.5 116.5q-4 0 -16 -4q-4 0 -7.5 -1t-7.5 -1q-23 0 -39 12t-20 35q-8 25 5 46t38 28q16 4 32.5 9t32.5 9q11 105 11 208q0 78 -6 154q-15 178 -101 338 q-10 4 -13 7.5t-7 5.5q-23 20 -23 46q0 11 4 23z" />
<glyph unicode="G" horiz-adv-x="1187" d="M60 680v19q0 70 10 139q23 150 75 268q55 121 134 199.5t172 103.5q38 11 76 11q17 0 33 -2q54 -7 102 -38q98 -59 157 -200q10 -23 1 -46.5t-34 -33.5q-23 -10 -46 0t-33 33q-45 106 -109 143q-34 22 -73 22q-20 0 -42 -6q-63 -18 -122.5 -80.5t-102.5 -156.5 q-51 -111 -68 -245q-7 -62 -7 -126q0 -74 10 -149q16 -117 56 -197t91 -127t110 -65q49 -16 97 -16q10 0 20 1q49 2 96.5 21.5t87.5 53.5t68.5 82t36.5 107q-55 2 -111.5 10.5t-109.5 26.5q-23 8 -35 29.5t-4 46.5t30.5 37t45.5 4q96 -32 195 -32h17q107 3 195 42 q23 10 46.5 0t33.5 -33q5 -12 5 -23t-5 -23q-10 -23 -33 -34q-68 -31 -145 -43q-12 -156 -123 -266q-57 -57 -130 -91t-153 -38q-10 -2 -30 -2q-80 0 -154 30t-133 83q-74 68 -119 164q-49 100 -67 235q-10 82 -12 162z" />
<glyph unicode="H" horiz-adv-x="1310" d="M84 1485q16 14 38 14h6q26 -2 42 -22q115 -139 170 -312q27 -78 39 -160.5t16 -179.5q1 -23 1 -46q0 -35 -2 -69q-3 -58 -9 -118h26q95 0 187 26q104 30 209 64q4 0 6 2q-2 12 -4 25.5t-4 27.5q-14 92 -14 180.5t10 167.5q25 180 112 334q14 23 38 29t46 -6 q23 -12 30 -37t-7 -47q-84 -147 -100 -308q-6 -58 -6 -118q0 -104 18 -211q72 23 144.5 37t146.5 14q27 0 44 -17.5t17 -43.5q0 -27 -17.5 -44.5t-43.5 -17.5q-66 0 -132.5 -13t-134.5 -36q31 -129 77 -255t100 -249q10 -23 -0.5 -47t-32.5 -35q-16 -4 -25 -4 q-16 0 -32.5 10.5t-22.5 26.5q-66 150 -110 276t-72 240q-104 -35 -211 -64.5t-224 -29.5h-32q-10 -88 -25.5 -175t-32.5 -173q-4 -16 -6 -34.5t-6 -35.5q-10 -51 -61 -51q-6 0 -11 2q-25 4 -39 24.5t-10 45.5q4 18 6 35.5t7 35.5q33 175 58 347q22 148 22 287q0 21 -1 43 q-4 158 -47 305t-149 274q-15 18 -15 40q0 28 23 46z" />
<glyph unicode="I" horiz-adv-x="651" d="M12 864q41 143 96.5 261t118.5 202q59 76 119 118t115 46q7 1 14 1q33 0 57 -16q30 -20 48 -57q17 -40 18 -108q0 -23 -2 -47q-8 -102 -31 -269q-14 -104 -27 -223q-14 -118 -18 -240q-1 -34 -1 -67q-1 -87 7 -171q10 -116 45 -212q8 -25 -3 -47.5t-33 -30.5 q-6 -2 -11.5 -3t-11.5 -1q-41 0 -57 41q-59 168 -59 424q0 31 1 63q4 127 17.5 250t29.5 234q10 70 17.5 129t11.5 108q3 39 3 64q0 12 -1 20q-2 25 -6 35q-10 0 -44 -17.5t-83 -76.5q-45 -53 -102.5 -158.5t-110.5 -286.5q-6 -25 -28.5 -37t-47.5 -4q-25 6 -37 29 q-7 14 -7 28q0 9 3 19z" />
<glyph unicode="J" horiz-adv-x="1028" d="M54 1417q-1 3 -1 6q0 22 15 39q16 18 40 22h9q20 0 37 -14q94 -80 180 -104q67 -18 127 -18q17 0 33 2q73 6 132.5 30.5t98.5 44.5q12 6 20.5 10.5t16.5 8.5q33 14 52.5 7t29.5 -17q14 -14 16 -31q90 -416 90 -713q0 -170 -30 -301q-37 -160 -119 -258q-76 -90 -185 -119 q-43 -12 -88 -12q-39 0 -71 8q-74 12 -144 53t-119 97.5t-67 117.5q-11 36 -11 71q0 57 31 108q51 82 177 125q23 10 45 -2.5t32 -34.5q8 -25 -3 -47.5t-36 -30.5q-121 -44 -121 -119q0 -16 5 -33q10 -41 46 -78.5t83 -66.5q53 -31 109 -40q23 -4 46 -4q29 0 56 7 q158 41 213 285q29 122 29 283q0 254 -72 606q-41 -23 -105.5 -46.5t-142.5 -31.5q-24 -2 -48 -2q-203 0 -386 151q-18 16 -20 41z" />
<glyph unicode="K" horiz-adv-x="1339" d="M39 1483q-5 12 -5 23.5t5 23.5q10 24 33 35q23 10 46 -0.5t34 -32.5q45 -102 79.5 -198.5t59.5 -188.5q12 -45 22.5 -88t18.5 -86q10 10 22.5 18t24.5 19q45 37 112.5 90t158.5 135t208 197.5t264 275.5q16 18 42 18t46 -16q18 -16 18.5 -42t-16.5 -44 q-150 -162 -268.5 -279.5t-211.5 -200.5t-161.5 -138.5t-115.5 -92.5q-29 -23 -55.5 -44t-34.5 -31q4 -20 28.5 -79t75.5 -157q57 -113 126 -225.5t140 -212.5q184 -258 365 -408q199 -166 370 -166h7h2q25 0 43 -17t18 -42q0 -27 -17.5 -45.5t-41.5 -18.5h-11 q-293 0 -626 365q-74 82 -140.5 169t-121 169t-97.5 153.5t-71 122.5q-16 29 -30.5 55.5t-29.5 53.5q-6 -84 -28 -172q-47 -188 -154 -348q-18 -27 -51 -27q-18 0 -35 10q-23 14 -27 39t11 47q170 248 170 569v31q-8 340 -201 781z" />
<glyph unicode="L" horiz-adv-x="550" d="M55 1370q8 24 31 37q14 6 28 6q10 0 20 -3q24 -7 34 -30q127 -250 174 -620q24 -196 24 -421q0 -116 -6 -239q-6 -117 -16 -226.5t-22.5 -205.5t-24.5 -174t-23 -133q27 6 55.5 15.5t57.5 17.5q129 41 314.5 88t412.5 63q62 3 122 3q182 0 359 -31q135 -25 263.5 -72 t250.5 -113q23 -12 30 -36q3 -9 3 -18q0 -15 -8 -30q-18 -30 -53 -30q-16 0 -31 6q-162 88 -322.5 134t-315.5 60q-86 8 -169 9q-66 1 -129 -5q-143 -12 -270 -35.5t-233.5 -54t-186.5 -55.5q-106 -33 -162 -45q-24 -5 -43 -5q-27 0 -47 9q-20 10 -29.5 28.5t-5.5 41.5 l13 62q14 63 30.5 170.5t32.5 254t25 313.5q6 118 6 229q0 255 -32 469q-46 308 -153 519q-7 14 -7 28q0 9 3 19z" />
<glyph unicode="M" horiz-adv-x="1624" d="M27 45q-1 6 -1 12q0 19 10 35q13 22 38 25q92 20 174 140t151 337q31 94 54.5 190.5t42 186.5t32 168t23.5 133q4 25 7 44t7 34q2 8 2 14t2 10q2 8 10.5 24.5t32.5 26.5q11 4 22 4q21 0 40 -16q16 -14 21 -36.5t10 -78.5q2 -35 5 -81t7 -101q10 -129 22.5 -290.5 t28.5 -313.5q10 -80 18.5 -145.5t18.5 -114.5q2 -10 3 -20.5t5 -20.5q6 23 13.5 51.5t17.5 63.5q18 82 38.5 180t43.5 209q27 133 53.5 263t54.5 234q31 119 58 174q4 10 12 28t22 33t34 27q17 10 38 9h8q20 -2 43 -16.5t39 -61.5q8 -20 13.5 -47t9.5 -62q6 -61 9 -141 t7 -176q4 -150 12.5 -310.5t32.5 -295.5q8 -47 21.5 -96.5t32 -90.5t43 -68.5t55.5 -31.5q27 -4 43 -24q13 -16 13 -36q0 -5 -1 -10q-4 -23 -21 -38t-40 -15h-9q-111 16 -178 137q-49 94 -80 250q-25 143 -34 307t-13 318q-4 78 -6 146.5t-6 123.5q-4 31 -6 49 q-8 -25 -19.5 -63.5t-25.5 -91.5q-23 -98 -47.5 -215t-49.5 -234q-25 -123 -47 -235.5t-45 -200.5q-14 -49 -25.5 -86t-21.5 -64q-8 -16 -14 -28.5t-14 -22.5q-23 -25 -43.5 -31t-30.5 -4q-49 2 -80 66q-8 16 -14.5 39.5t-14.5 52.5q-23 100 -43 275q-12 109 -22.5 227.5 t-20.5 230.5q-18 -86 -40.5 -175t-51.5 -179q-35 -111 -76 -200t-84 -154q-113 -172 -256 -203q-25 -6 -46 8t-27 39z" />
<glyph unicode="N" horiz-adv-x="1110" d="M29 55q-1 5 -1 10q0 19 13 35q111 152 169 491q54 317 54 766v62v29v10q2 29 19.5 44.5t38.5 17.5q25 2 43 -13.5t22 -40.5q2 -10 17.5 -70.5t43 -154.5t63.5 -214t77 -245q47 -141 90 -253.5t84 -198.5q23 -47 40 -82t34 -58q-40 262 -60 484q-8 95 -9 188q0 123 15 240 q31 246 142 440q59 109 143 202t197 179q16 13 35 13q5 0 9 -1q24 -4 42 -24q13 -16 13 -35q0 -5 -1 -10q-4 -25 -25 -41q-201 -152 -301 -329t-130 -389q-16 -114 -15 -240q-1 -109 11 -226q26 -254 75 -559q1 -6 1 -11q0 -28 -26 -48q-28 -21 -63 -21q-25 0 -43 8 q-55 25 -109 105q-23 33 -45 77t-47 97q-41 90 -86 206.5t-92 262.5q-23 72 -45.5 142.5t-42.5 135.5q-6 -121 -19 -248q-29 -268 -84 -458.5t-137 -302.5q-17 -21 -41 -25q-5 -1 -10 0q-19 0 -35 12q-20 16 -24 41z" />
<glyph unicode="O" horiz-adv-x="1273" d="M57 598q-1 23 -1 46q0 82 16 164q22 106 69 208q41 86 98.5 162.5t122.5 136.5q80 68 150 96q60 24 114 24q20 0 38 -3q25 -4 39 -26t8 -46q-4 -27 -25.5 -40t-46.5 -9q-7 1 -15 1q-25 0 -63 -14q-51 -18 -117 -75q-49 -43 -99 -106.5t-89 -142.5q-38 -79 -60 -172 q-17 -73 -17 -152q0 -22 1 -44q4 -78 32 -149.5t72 -133t103 -107.5t129 -71q68 -24 132 -24q41 0 81 10q102 25 180 111q61 68 93 168q28 89 28 196v27q0 29 -2 55.5t-6 52.5q-67 -25 -133 -25q-51 0 -101 15q-53 16 -102 47t-84 76t-55.5 94t-22.5 96v7q0 71 37 125 q39 56 111 81q45 16 88 16q50 0 98 -21q90 -40 162 -148q51 -78 82 -174q84 70 170 196q14 23 37.5 28t46.5 -9t28 -39q1 -6 1 -12q0 -18 -11 -35q-115 -170 -239 -256q16 -84 18 -168v-27q0 -131 -36 -241q-40 -121 -118 -207q-109 -119 -251 -150q-25 -6 -49.5 -8 t-51.5 -2q-86 0 -172 31q-82 29 -154.5 83t-130.5 128q-59 78 -93 168t-40 188zM647 1049q2 -29 14.5 -58.5t34.5 -58.5q49 -61 125 -84q33 -9 65 -8q55 0 109 24q-31 98 -77 172q-29 41 -69 77t-93 36q-10 0 -21.5 -2t-21.5 -6q-68 -23 -66 -92z" />
<glyph unicode="P" horiz-adv-x="1150" d="M51 1274q190 184 406 221q54 10 106 10q136 0 258 -67q74 -39 133.5 -97.5t100.5 -130.5q63 -116 63 -236q0 -36 -6 -73q-31 -170 -182 -285q-156 -121 -414 -163q-4 -193 -18 -398q-2 -25 -19.5 -41t-42.5 -16h-4q-25 2 -42 21.5t-15 43.5q20 290 20 549q-1 39 -1 78 q-4 293 -36 574q-2 27 13.5 46t42.5 21q25 4 44 -12t23 -41q18 -172 27.5 -344t9.5 -356q215 41 338 135q115 92 133 211q5 26 5 52q0 32 -7 64q-12 58 -42 112t-76 100t-105 77q-34 19 -96 37q-48 15 -111 14q-17 0 -34 -1q-83 -5 -181 -47t-207 -146q-18 -16 -43.5 -16.5 t-42.5 18.5q-17 17 -17 41q0 27 19 45z" />
<glyph unicode="Q" horiz-adv-x="1216" d="M36 576v14q0 75 9 153q10 63 24.5 124t36.5 116q43 111 111 197q70 88 160 137q94 51 203 55h8q106 0 205 -49q92 -51 161 -133q72 -86 111 -194.5t43 -225.5v-20q0 -90 -16 -180q-19 -99 -58 -189t-97 -167t-136 -128q86 -57 153.5 -124.5t130.5 -139.5q74 -82 153 -158 t184.5 -130t251.5 -80q88 -16 198 -16q75 0 160 7q27 4 45 -12t22 -43v-5q0 -22 -15 -39q-16 -20 -42 -22q-43 -4 -84 -6t-82 -2q-61 0 -116.5 4t-108.5 12q-160 27 -287 95q-121 61 -206 144t-163 169q-76 84 -150.5 156.5t-178.5 126.5q-45 -14 -101 -21q-16 -2 -31.5 -3 t-31.5 -1q-100 0 -183 37q-78 37 -137 102q-47 53 -79.5 124t-49.5 157q-16 76 -17 158zM168 727q-10 -69 -10 -134q0 -82 16 -158q29 -136 100 -216q86 -98 228 -98q12 0 24.5 1t26.5 1q109 12 190.5 73.5t136 150.5t80.5 199q25 101 25 204v16q-4 98 -34.5 186t-90.5 158 q-115 139 -272 139h-6q-96 -2 -163 -49t-106 -96q-57 -72 -94 -168t-51 -209z" />
<glyph unicode="R" horiz-adv-x="1017" d="M33 1348q-3 10 -3 20q0 14 7 27q12 22 35 30q294 97 483 97q27 0 53 -2q61 -4 105.5 -20.5t73 -38t46 -46t25.5 -49.5q16 -39 16 -85q0 -52 -20 -114q-16 -47 -43 -98t-66 -100q-57 -78 -128.5 -145.5t-149.5 -114.5q76 -61 135.5 -140.5t118.5 -165.5 q49 -72 103.5 -147.5t123 -150t154 -146.5t198.5 -135q23 -12 29 -37q2 -8 2 -16q0 -16 -8 -31q-18 -31 -53 -31q-16 0 -31 8q-213 121 -383 306q-72 80 -130 159.5t-108 151.5q-59 88 -115.5 162.5t-125.5 128.5q-4 -137 -13.5 -277.5t-23.5 -296.5q-2 -23 -19.5 -39 t-39.5 -16h-7q-25 2 -42 21.5t-13 43.5q12 158 22.5 300.5t12.5 280.5q1 39 1 79q0 99 -4 197q-5 138 -24 286q-4 25 12.5 44.5t41.5 23.5t44 -11.5t23 -41.5q14 -111 20.5 -214.5t8.5 -205.5q74 41 144.5 104.5t125.5 136.5q63 86 89 161q15 43 15 77q0 25 -8 45 q-25 63 -145 74q-23 2 -48 2q-70 -1 -160 -17q-122 -22 -279 -73q-25 -8 -47.5 3t-30.5 36z" />
<glyph unicode="S" horiz-adv-x="1067" d="M59 956q-8 33 -8 65q0 61 29 120q70 152 239 237q72 39 155 58.5t165 19.5q109 0 190 -35q94 -39 134 -123q21 -43 21 -92q0 -44 -17 -92q-31 -98 -131 -219q-16 -18 -42 -20.5t-44 14.5q-20 16 -22.5 41.5t13.5 44.5q43 49 70 93t39 83q10 30 10 55q0 22 -8 41 q-18 41 -75.5 63.5t-137.5 22.5q-63 0 -131 -15t-129.5 -46t-111.5 -77t-77 -105q-16 -35 -16 -69q0 -19 5 -39q14 -52 60 -107.5t119.5 -117t169.5 -132.5q96 -74 190.5 -151t166.5 -165q78 -96 108 -196q17 -58 17 -118q0 -56 -15 -114q-49 -182 -213 -293 q-68 -45 -147.5 -70.5t-163.5 -29.5h-29q-98 0 -174 31q-104 45 -135 129q-12 31 -12 70.5t20.5 89t67.5 108.5t133 127q20 16 45 13t41 -23t13 -45t-23 -41q-111 -86 -156 -168q-18 -34 -18 -62q0 -14 4 -26q8 -23 28.5 -36t38.5 -22q53 -23 123 -23q13 0 27 1 q63 2 127.5 22.5t121 57.5t99.5 92t64 129q11 42 11 82q0 48 -16 92q-30 82 -92.5 156.5t-149.5 145.5t-177 138q-90 70 -171 135.5t-139 135.5q-66 80 -84 159z" />
<glyph unicode="T" horiz-adv-x="874" d="M35 1659q10 23 33.5 33t46.5 0q183 -74 373 -100q158 -21 317 -21l63 1q190 5 379 31.5t377 57.5q201 35 405.5 62.5t407.5 27.5q25 0 43.5 -17.5t18.5 -43.5q0 -25 -18.5 -43.5t-43.5 -18.5q-195 0 -390.5 -26.5t-404.5 -61.5q-211 -35 -420.5 -63.5t-424.5 -28.5h-56.5 t-56.5 2q18 -121 27.5 -269.5t12.5 -304t3 -303t-2 -264.5q0 -61 -1 -123.5t-1 -128.5q0 -25 -17.5 -43t-43.5 -18q-25 0 -43.5 18.5t-18.5 42.5q0 66 1 129.5t1 122.5q2 119 2 268.5t-4 305t-14.5 306t-28.5 271.5q-123 12 -243.5 41t-243.5 78q-23 11 -34 33q-6 12 -6 24 q0 11 5 23z" />
<glyph unicode="U" horiz-adv-x="1638" d="M72 1380q-5 12 -5 24t5 24q10 24 32 34q12 5 24 5q10 0 22 -5q24 -10 34 -32q42 -94 48 -243q4 -84 3 -175q0 -70 -2 -144q-1 -59 -1 -118q0 -73 2 -146q2 -131 22 -239q18 -111 55 -168q35 -57 95 -74q16 -4 32 -5q34 0 66 21q23 14 49.5 46t55 86.5t59 136t59.5 198.5 q20 82 36.5 166t30 163t23.5 150.5t19 131.5q4 23 5 40t5 33q2 23 6 39q10 37 32.5 45t33.5 8q10 0 31.5 -8t31.5 -45q4 -10 8 -37q4 -20 8 -46.5t11 -61.5q8 -66 21 -150t32.5 -178t44 -192.5t59.5 -190.5q154 -422 396 -422q27 0 44 -18.5t17 -42.5q0 -27 -17 -44.5 t-44 -17.5q-182 0 -322 158q-106 121 -190 346q-47 127 -77 260t-52 254q-14 -90 -33 -183t-41 -188q-53 -217 -121 -348t-152 -188q-65 -44 -135 -44q-31 0 -63 9q-104 25 -166 127q-53 80 -74 213q-23 117 -25 253q-1 58 0 117q0 78 1 156q2 76 2 151t-3.5 142.5 t-12.5 123.5t-25 93z" />
<glyph unicode="V" horiz-adv-x="989" d="M25 1186q-1 6 -1 12q0 18 11 35q12 23 36.5 29t47.5 -9q82 -49 153 -202q29 -59 53.5 -133t49.5 -166q29 -109 50 -215.5t38 -198.5q37 119 93 269.5t140 310.5q143 281 324 473q221 229 483 313q10 3 20 3q13 0 27 -7q22 -12 31 -37q3 -10 3 -20q0 -13 -7 -27 q-12 -22 -37 -31q-430 -133 -735 -723q-61 -121 -109.5 -237.5t-82 -218t-56 -182.5t-35.5 -126q-4 -12 -6 -21l-4 -18q-4 -12 -13.5 -29.5t-33.5 -25.5q-7 -2 -19 -2q-18 0 -32 8q-18 12 -24.5 30.5t-10.5 41.5q-4 31 -12 78q-8 49 -18.5 114.5t-24 138t-31 151.5 t-37.5 157q-31 119 -61.5 196.5t-56 126t-48 72t-37.5 33.5q-23 13 -28 37z" />
<glyph unicode="W" horiz-adv-x="1673" d="M39 1434q-3 9 -3 19q0 14 7 28q10 23 34.5 31t47.5 -5q55 -27 111 -153q20 -47 40.5 -110.5t42.5 -147.5q41 -147 80 -315.5t72 -315.5q14 -59 27.5 -119.5t25.5 -114.5q10 29 18.5 56.5t18.5 56.5q31 92 69 202.5t84 226.5t97 227.5t111 205.5q18 31 50 31q8 0 17 -2 q45 -14 45 -61v-20q0 -111 20 -271q22 -174 62 -365q16 -84 35.5 -160.5t36.5 -136.5q4 -10 5 -17t5 -14q4 18 8 38t8 38q29 139 75 334t120 404q41 117 88 218t98 191q121 209 269 348q19 16 44 16l2 -1q26 0 42 -19q15 -17 15 -41q0 -27 -19 -47q-98 -90 -176 -205.5 t-140.5 -246t-109.5 -265.5t-83 -264t-61.5 -243.5t-44.5 -202.5q-10 -53 -18 -94.5t-19 -71.5q-4 -18 -8 -30.5t-8 -22.5q-23 -51 -63 -54q-3 -2 -7 -2q-10 0 -23 4t-28 17q-14 12 -33.5 48t-50.5 132q-39 129 -76 309q-27 127 -46 248t-29 227q-37 -80 -72 -166 t-65.5 -170t-58.5 -163.5t-50 -147.5q-18 -59 -34.5 -107t-31.5 -85q-8 -20 -14 -36t-12 -26q-4 -10 -21.5 -30.5t-50.5 -20.5q-10 0 -28.5 7t-32.5 34q-6 12 -13 31q-4 16 -10 37.5t-14 50.5q-14 53 -29.5 123.5t-34.5 154.5q-16 70 -33.5 149t-36 158.5t-38 157.5 t-39.5 150q-43 158 -80 243q-25 63 -39 82t-16 21q-23 11 -31 35z" />
<glyph unicode="X" horiz-adv-x="1425" d="M66 18q-2 8 -2 16q0 16 8 30q12 22 37 30q86 25 165.5 90.5t154.5 155.5t146.5 199.5t141.5 220.5q-37 100 -78 190t-106.5 166t-164 131.5t-247.5 85.5q-25 4 -39 25.5t-8 46.5q4 25 26 39q15 10 31 10q7 0 14 -2q88 -16 162 -44t139 -65q59 -35 108.5 -77.5t90.5 -96.5 q51 -63 88 -133.5t66 -144.5q41 66 83 127t83 119q72 98 138 163.5t134 110.5q23 14 46.5 9t37.5 -25q14 -23 10 -47.5t-26 -38.5q-61 -41 -120 -101.5t-115 -135.5t-110.5 -159t-107.5 -170v-2q33 -96 69.5 -186t90 -172t130 -150.5t193.5 -117.5q23 -10 33 -34 q5 -12 5 -23.5t-5 -22.5q-16 -37 -57 -37q-8 0 -25 4q-240 102 -377 311q-47 72 -79.5 147t-61.5 152q-59 -94 -119.5 -185t-126.5 -169q-94 -109 -176 -174q-98 -78 -205 -109q-6 -2 -16 -2q-20 0 -36.5 11.5t-22.5 33.5z" />
<glyph unicode="Y" horiz-adv-x="1228" d="M33 1341q-5 12 -5 23q0 13 6 24q11 23 34 33q133 51 231 52h2q102 0 170 -56q63 -55 92 -157q10 -41 15 -92q3 -36 3 -75q0 -18 -1 -36q-4 -106 -21.5 -224t-38.5 -235q-16 -90 -29.5 -171t-17.5 -148q-2 -34 -2 -60q0 -38 5 -57q9 -31 13 -35q0 -6 21 -4q92 12 199 153 q92 125 186 349q33 78 59.5 153.5t48 143t36 122t22.5 89.5q4 43 8 56t12 23q22 26 49 26q12 0 25 -5q14 -6 27 -21q10 -14 10 -34v-7v-14q-2 -8 -4 -18.5t-6 -26.5q0 -10 -1 -20.5t-3 -20.5q-8 -66 -20.5 -170t-34 -230t-53.5 -265.5t-75 -272.5q-98 -307 -237 -473 q-173 -207 -398 -207h-18q-27 2 -43 19.5t-16 44.5q2 27 20.5 43t42.5 16h16q168 0 300 162q129 154 217 434q25 72 44 145.5t35 147.5q-76 -156 -153 -266q-137 -180 -283 -197q-13 -2 -25 -2q-30 0 -51 12q-30 15 -47 31q-51 53 -51 188q0 26 2 56q4 72 18.5 155.5 t30.5 175.5q20 115 37 229t21 214v31q0 178 -64 229q-34 28 -94 28q-74 0 -186 -42q-23 -10 -46.5 1t-33.5 33z" />
<glyph unicode="Z" horiz-adv-x="1593" d="M63 33q-2 9 -2 17q-1 18 7 36q12 28 41 70q20 29 47.5 67.5t64.5 85.5q43 53 89 110.5t92.5 114t90.5 109.5t80 96q55 63 120 139t131.5 151t129 143.5t113.5 121.5q-6 0 -8 -2q-96 -12 -219 -25.5t-248 -15.5h-13q-303 0 -427 95q-23 16 -26 40.5t13 45.5q14 20 39 24 q5 1 10 1q19 0 35 -13q97 -70 353 -70h14q121 2 240.5 15.5t211.5 25.5q39 4 72 8t57 7q14 2 24.5 2h21.5q35 -2 49 -17.5t18 -25.5t4 -36t-37 -50q-14 -10 -63 -60.5t-123 -131.5t-168 -187.5t-201 -231.5q-104 -121 -191 -227.5t-157 -192.5q-35 -43 -59.5 -75.5 t-42.5 -57.5q25 8 50.5 15.5t51.5 17.5q111 35 254 79t300 83t317.5 66.5t306.5 27.5q27 0 44 -17.5t17 -41.5q0 -27 -17.5 -44.5t-43.5 -19.5q-137 0 -292 -25.5t-307.5 -64.5t-291.5 -82t-248 -78q-59 -20 -102 -33.5t-73 -21.5t-49.5 -12t-33.5 -4h-4q-23 2 -39 14 t-23 35z" />
<glyph unicode="[" horiz-adv-x="616" d="M63.5 1341.5q-0.5 22.5 14.5 38.5q10 14 30.5 26.5t53.5 14.5q16 0 32.5 -3t34.5 -7q39 -8 90.5 -12t126.5 24q25 10 47.5 0t32.5 -34q10 -23 -1 -46.5t-33 -33.5q-94 -35 -163 -33t-112 12q6 -27 13.5 -62.5t11.5 -84.5q18 -154 18 -391q0 -199 -12 -418t-35 -412 q25 4 53.5 6t57.5 6q80 6 137 0t98 -22q23 -10 32 -35t-1 -47q-10 -23 -34 -32t-46 1q-41 18 -137.5 14t-218.5 -26q-5 -2 -11 -2q-23 0 -43 16q-23 23 -18 54q12 100 22.5 211.5t17.5 228.5t11 232.5t4 224.5q0 180 -8 288.5t-19.5 167t-20.5 76.5t-9 21q-16 16 -16.5 38.5 z" />
<glyph unicode="\" horiz-adv-x="569" d="M18 1323q-10 23 1.5 46.5t33.5 31.5q25 10 47.5 -1t32.5 -34q55 -150 98 -273.5t77 -231t62.5 -200t53.5 -178.5q31 -104 60.5 -201.5t64.5 -201.5q10 -25 -1 -47.5t-36 -30.5q-12 -4 -20 -4q-18 0 -35 11t-23 30q-37 106 -67.5 205.5t-59.5 204.5q-25 84 -53.5 176 t-62 198.5t-75.5 229.5t-98 270z" />
<glyph unicode="]" horiz-adv-x="616" d="M26 -124.5q9 24.5 31 34.5q41 16 98.5 22.5t137.5 -0.5q29 -4 57.5 -6t52.5 -6q-23 193 -35 412t-12 418q0 238 19 391q4 49 11 85t13 62q-43 -10 -111.5 -12t-162.5 33q-23 10 -34 33.5t-1 46.5q10 25 32.5 35t47.5 -1q76 -29 127 -24.5t90 12.5q18 4 34.5 7t33.5 3 q33 -2 53 -14t31 -27q14 -16 14 -38.5t-16 -38.5q0 -2 -9.5 -20.5t-20.5 -77t-19.5 -167t-8.5 -288.5q0 -109 4 -224.5t11.5 -232.5t17.5 -228.5t23 -211.5q4 -31 -19 -54q-20 -16 -43 -16q-6 0 -10 2q-123 23 -219.5 27t-137.5 -15q-23 -10 -46 -1t-33 32t-1 47.5z" />
<glyph unicode="^" horiz-adv-x="907" d="M36 778q-3 25 13 45q18 23 35.5 43.5t34.5 42.5q41 49 79 98.5t75.5 105.5t75.5 124t79 156q16 37 55 37q41 0 58 -37q41 -90 75.5 -163t70.5 -135.5t76 -117.5t93 -109q16 -18 16 -43.5t-18 -42.5q-18 -18 -44 -17t-42 19q-47 49 -86 98.5t-73 102.5t-64.5 112.5 t-63.5 127.5q-35 -66 -68.5 -120t-66.5 -101.5t-66.5 -89.5t-66.5 -83q-16 -20 -32.5 -40.5t-35.5 -42.5q-16 -23 -47 -23q-20 0 -39 12q-20 16 -23 41z" />
<glyph unicode="_" horiz-adv-x="1226" d="M63 -401q0 25 17.5 43t44.5 18h48h83t100.5 2t100.5 3t81.5 2t49.5 3q12 2 52 3t93 3t112.5 3.5t113 2.5t94.5 1h55q27 0 44 -17.5t17 -44.5q0 -25 -17 -43t-44 -18h-53t-90.5 -1t-109.5 -2t-110.5 -2t-91.5 -2.5t-51 -3.5q-14 -2 -50 -3t-83 -3t-100.5 -3t-101.5 -2 t-85 -1h-51h-6q-27 0 -44.5 17.5t-17.5 44.5z" />
<glyph unicode="`" horiz-adv-x="292" d="M27 1286q0 17 14 29q29 25 57 -4q29 -33 70 -67t78 -50q16 -8 22 -23.5t-2 -31.5q-10 -23 -37 -23q-12 0 -16 2q-49 23 -97 63t-79 74q-10 14 -10 31z" />
<glyph unicode="a" horiz-adv-x="1236" d="M51 481q14 141 47 251t82 188q92 141 236 170q30 6 60 6q28 0 56 -6q58 -12 107 -37t88 -63t61 -79q10 -23 3 -47t-29 -37q-23 -10 -47.5 -3t-36.5 30q-14 27 -40 51.5t-57.5 41t-68.5 23.5q-17 3 -35 3l-39 -4q-90 -16 -153 -117q-86 -129 -111 -383q-6 -64 -6 -119 q0 -70 10 -125q16 -70 47 -92q14 -9 31 -9q19 0 43 11q47 23 95 76t89 125q35 61 72 161.5t49 235.5q0 14 2 21q4 27 22.5 39t37.5 14h2q16 0 34.5 -10.5t26.5 -38.5q2 -4 2 -9.5t2 -11.5q2 -10 3 -21t5 -28q8 -59 22.5 -148t43.5 -175q27 -90 59.5 -143.5t67.5 -63.5 q8 -3 17 -3q26 1 60 23q46 30 99 94q16 20 41 22.5t45 -13.5t22 -41q0 -3 1 -6q0 -21 -15 -39q-82 -98 -151 -134q-53 -28 -105 -28q-24 0 -47 6q-137 39 -213 291q-8 25 -14 50.5t-12 49.5q-16 -47 -35 -85t-35 -69q-53 -92 -114.5 -157.5t-127.5 -93.5q-51 -23 -96 -23 q-55 0 -100 31q-70 51 -95 166q-15 66 -15 153q0 60 7 129z" />
<glyph unicode="b" horiz-adv-x="966" d="M37 102q4 25 25.5 38.5t46.5 9.5q33 -8 62.5 -12.5t57.5 -8.5q2 27 4.5 76t3.5 114.5t1 143.5v164q-2 88 -5.5 189.5t-10.5 202.5t-17 196.5t-27 170.5q-6 25 8.5 46.5t38.5 25.5q8 2 15 2q18 0 32 -10q22 -14 25 -39q18 -82 29.5 -183.5t18.5 -211t11 -218t4 -202.5v-18 q25 63 49.5 116.5t51.5 96.5q61 102 131 149q47 31 85 35q19 2 35 2t29 -2q59 -12 104.5 -63.5t74.5 -133.5q24 -72 26 -156v-22q0 -72 -14 -143q-25 -115 -80 -199q-63 -100 -166 -164q-55 -35 -119.5 -56.5t-136.5 -29.5q-49 -6 -102 -6q-119 0 -244 27q-27 5 -40 27 q-9 15 -9 31q0 7 2 15zM356 125q127 4 211 44t135.5 95t75 114.5t33.5 102.5q12 59 12 114q0 11 -1 23q-3 66 -18.5 116t-39 82t-47.5 38q-4 0 -5 1t-5 1q-29 0 -66 -34t-76 -95q-57 -96 -109.5 -247.5t-99.5 -354.5z" />
<glyph unicode="c" horiz-adv-x="827" d="M50 588q13 112 56 217q41 98 103 166q63 74 139 98q20 6 55 10q7 1 15 1q28 0 60 -12q40 -15 83 -56t80 -121q10 -23 1 -47.5t-32 -34.5t-47 -1t-35 32q-52 116 -118 116q-12 0 -25 -4q-43 -14 -88 -67.5t-78 -130t-46 -170.5q-5 -40 -5 -80q0 -55 10 -109 q23 -123 87.5 -195.5t146.5 -74.5h2q35 0 73.5 17.5t74.5 56.5t68 102.5t52 155.5q6 25 27.5 38t46.5 7q25 -4 38 -26q9 -15 9 -31q0 -8 -2 -17q-23 -102 -61 -181t-91 -136q-104 -109 -235 -109h-4q-125 0 -224 102q-47 49 -79.5 117t-49.5 150q-12 63 -12 129q0 44 5 88z " />
<glyph unicode="d" horiz-adv-x="1005" d="M23 658q6 76 28 143q27 74 71 121t101 59q20 4 40 4l108 -31q68 -39 137 -133q47 -68 93 -161t87 -214q16 150 22 324q3 101 3 200q0 73 -2 145q-4 171 -19.5 323.5t-38.5 257.5q-6 25 7.5 46t37.5 25q8 2 15 2q15 0 31 -9q22 -13 28 -38q14 -66 26.5 -149.5t20.5 -182 t12.5 -208t4.5 -221.5q0 -23 1 -45q-1 -220 -19 -407q-20 -206 -54 -341q-10 -37 -45 -43q39 0 82 3t90 11q27 4 46 -11t24 -42q1 -5 1 -11q0 -19 -12 -35q-14 -20 -41 -24q-51 -8 -99 -11t-95 -3q-45 0 -87 3t-83 11q-152 27 -264 105q-98 66 -162 164t-86 219 q-12 57 -12 113q0 20 2 41zM146 648q-1 -16 -2 -31q0 -45 10 -91q6 -37 31.5 -103.5t84 -131t159.5 -113.5t261 -53q-35 6 -45 43q-53 199 -113.5 345t-123.5 237q-39 55 -77 83.5t-69 28.5h-12q-51 -12 -84 -102q-16 -52 -20 -112z" />
<glyph unicode="e" horiz-adv-x="901" d="M70 520q23 117 66.5 216.5t107.5 170.5q57 68 129 105q61 31 120 31q11 0 23 -1q115 -10 182 -120q61 -109 66 -289q0 -25 -16.5 -43.5t-40.5 -20.5q-20 -2 -60.5 -10t-104 -33.5t-152.5 -72.5t-208 -123q18 -143 135 -187q41 -13 89 -13h18q58 3 117 28q131 57 204 186 q12 23 37 30t47 -7q23 -12 29 -36q2 -8 2 -16q0 -16 -8 -30q-45 -82 -112.5 -143.5t-149.5 -96.5q-39 -16 -79 -25.5t-81 -11.5q-8 -2 -24 -2q-68 0 -130 23q-127 47 -184 172q-36 81 -36 183q0 64 14 136zM186 477q135 84 250 136.5t203 70.5q-10 106 -45 168.5t-88 67.5 q-4 0 -5 1t-5 1q-37 0 -79 -25t-81 -72q-53 -59 -90 -143t-58 -184q0 -4 -1 -10.5t-1 -10.5z" />
<glyph unicode="f" horiz-adv-x="790" d="M43 367q-2 8 -2 16q0 16 8 31q12 22 37 28q23 6 47.5 11.5t50.5 9.5q-4 72 -9 142.5t-9 142.5q-12 154 -20 291q-2 50 -2 95q0 77 8 138q12 90 43 145q27 47 57.5 63.5t52.5 18.5h8q93 0 176 -139q41 -68 80 -168t74 -236q8 -25 -5 -47t-38 -28t-46.5 6t-29.5 37 q-63 236 -133 362q-33 57 -52.5 72.5t-23.5 17.5q-6 -4 -19 -30.5t-24 -88.5q-6 -51 -6 -117q0 -47 3 -102q7 -133 20 -282q4 -70 9 -138.5t9 -136.5q96 16 193.5 43t175.5 92q20 16 45 13t41 -21q14 -18 14 -40v-6q-2 -25 -22 -42q-49 -41 -105.5 -67.5t-113 -45 t-113.5 -29.5t-111 -20q1 -23 1 -45q0 -67 -5 -125q-6 -79 -22 -141q-14 -45 -60 -45q-12 0 -16 2q-25 6 -38 28.5t-5 47.5q14 47 18 113.5t4 144.5q-18 -4 -35.5 -7t-33.5 -7q-6 -2 -17 -2q-45 0 -59 45z" />
<glyph unicode="g" horiz-adv-x="972" d="M59 -115q10 66 66 115q51 45 141 74q25 8 47.5 -4.5t30.5 -36.5q8 -25 -4 -46.5t-37 -29.5q-53 -16 -85 -39.5t-36 -50.5q-1 -4 -1 -9q0 -25 19 -52q23 -33 66 -62q35 -23 80 -39t93 -20q14 -1 28 -1q35 0 71 7q52 10 99 39q113 68 133 239q6 43 6 86q0 34 -4 67 q-8 75 -35 173q-10 37 -20 68.5t-21 56.5q-61 -113 -151 -178q-45 -29 -93.5 -45.5t-95.5 -16.5q-41 0 -80 13q-127 39 -178 172q-26 67 -26 147.5t26 173.5q27 94 67 156.5t84 101.5t88 58.5t77 27.5q43 10 87 10l109 -16q47 -12 85 -35.5t67 -52.5q35 -41 47 -87 q5 -20 5 -40q0 -26 -9 -53q-8 -25 -30.5 -36t-47.5 -3q-25 10 -36 32.5t-3 45.5q10 29 -18 57q-31 35 -94 56q-34 11 -71 11q-30 0 -63 -8q-29 -6 -60.5 -22.5t-62 -46t-58.5 -75.5t-46 -114q-20 -76 -20 -135t15 -102t42 -70t59 -37q23 -7 46 -7q59 0 116 42q35 23 78 76 t76 151q8 23 28.5 35t42.5 8q23 -6 49.5 -33.5t63.5 -119.5q25 -61 43 -130t29 -138q15 -93 15 -171q0 -106 -28 -186q-47 -137 -172 -213q-102 -61 -229 -61h-19.5t-19.5 2q-125 10 -231 80q-76 49 -113 112q-29 50 -29 101q0 14 2 28z" />
<glyph unicode="h" horiz-adv-x="1120" d="M50 1628q7 24 30 35q14 7 28 7q10 0 20 -3q24 -8 36 -31q61 -125 97 -252t53.5 -261t20.5 -276q1 -61 1 -124q0 -84 -2 -172q16 53 34.5 106.5t39.5 104.5q82 223 147 342q41 72 80 115q54 54 105 54q5 0 10 -1q16 -2 39.5 -12.5t46.5 -38.5q27 -37 45 -97 q35 -117 49 -348q2 -12 2 -25.5t2 -27.5q8 -117 18.5 -243t32.5 -238q47 -242 141 -301q30 -20 70 -20q38 0 84 18q25 10 47.5 -1.5t32.5 -35.5q5 -11 5 -22q0 -12 -6 -24q-11 -22 -34 -32q-66 -27 -129 -27q-78 0 -137 39q-76 49 -127 160q-23 45 -38 99.5t-30 121.5 q-23 121 -34 250t-19 250q0 12 -1 25.5t-1 27.5q-6 92 -16.5 165t-22.5 124q-10 41 -19.5 60.5t-13.5 27.5q-8 -6 -25.5 -26.5t-46 -71t-67.5 -136.5t-88 -223q-35 -94 -64.5 -190.5t-55 -182.5t-44 -156.5t-31.5 -115.5q-6 -23 -25.5 -36t-41.5 -9q-23 4 -39 21.5t-14 41.5 q2 63 4 125t4 121q6 191 10 361q1 43 1 84q0 124 -9 242q-12 156 -47 302t-105 283q-6 14 -6 28q0 9 3 19z" />
<glyph unicode="i" horiz-adv-x="348" d="M41 612q0 133 18 314q4 25 23.5 41t44.5 14q25 -4 41 -23.5t14 -44.5q-18 -168 -19 -296v-15q0 -119 16 -211q16 -98 49.5 -169t86.5 -124q19 -16 19 -43q0 -25 -19 -43q-16 -18 -43 -18q-25 0 -43 18q-72 72 -112 160q-23 45 -36 95t-24 108q-16 104 -16 237zM70 1182 q0 29 19.5 49t47.5 20q29 0 49.5 -20.5t20.5 -48.5q0 -29 -20.5 -49.5t-49.5 -20.5t-48 20.5t-19 49.5z" />
<glyph unicode="j" horiz-adv-x="487" d="M12 -233q-1 15 -1 31q0 83 19 170q21 102 66 202q10 23 35 32t47 -1q23 -10 32 -35t-1 -47q-53 -117 -65 -209q-11 -79 -11 -125v-14q4 -70 18.5 -105t24.5 -43q4 4 14.5 13.5t26.5 35.5q14 25 33.5 90.5t36.5 202.5q8 68 13 159t7 192.5t3 207.5v102v98q-1 95 -4 174 t-7 128q-4 25 12.5 44.5t42.5 21.5q25 4 44.5 -12.5t21.5 -43.5q4 -51 8 -132t5 -178q1 -48 1 -99.5t-1 -104.5q-1 -108 -4 -212.5t-8 -197t-13 -161.5q-14 -125 -36 -209t-50 -133q-39 -66 -78 -87.5t-70 -21.5q-18 0 -31.5 5.5t-21.5 9.5q-47 25 -76 90t-33 162zM279 1280 q0 33 22.5 55.5t52.5 22.5q33 0 55.5 -22.5t22.5 -55.5t-22.5 -55.5t-55.5 -22.5q-31 0 -53 22.5t-22 55.5z" />
<glyph unicode="k" horiz-adv-x="1024" d="M57 82q41 141 57 310q15 170 16 348v32q0 162 -9 325q-10 179 -23 343q-4 39 -6 73.5t-4 69.5q-2 25 14.5 44.5t42.5 21.5h5q22 1 40 -15q20 -18 21 -43q2 -35 4 -69.5t4 -73.5q10 -147 20.5 -308t12.5 -325q4 2 8 3t8 3q51 23 121 55.5t148.5 76.5t161.5 103.5 t159 133.5q18 16 44 16t44 -18q16 -18 16.5 -44t-18.5 -42q-82 -80 -170 -143.5t-172 -110.5t-157.5 -81t-127.5 -58q-8 -4 -16 -7.5t-18 -7.5q205 -311 415.5 -506t409.5 -254q23 -6 35 -28q8 -15 8 -31q0 -8 -2 -16q-6 -20 -22.5 -31.5t-36.5 -11.5q-12 0 -17 2 q-240 72 -487 307q-86 86 -171 185.5t-167 217.5q-8 -129 -24.5 -249.5t-47.5 -231.5q-6 -20 -22.5 -31.5t-36.5 -11.5q-12 0 -17 2q-25 6 -38 28q-8 14 -8 29q0 9 3 19z" />
<glyph unicode="l" horiz-adv-x="446" d="M43 662q8 134 20 276q11 122 19 238q5 68 4 126q0 41 -2 78q-2 25 14.5 44.5t40.5 21.5h6q23 0 39 -14q18 -16 23 -43q3 -40 2 -86q0 -61 -4 -130q-8 -122 -19 -247q-12 -135 -20 -263q-4 -57 -3 -107q0 -62 5 -114q12 -98 40 -157.5t52 -91.5q57 -74 119 -74 q27 0 44 -18.5t17 -43.5q0 -27 -18 -44t-43 -17q-59 0 -114.5 30.5t-100.5 90.5q-94 121 -117 311q-7 60 -7 132q0 48 3 102z" />
<glyph unicode="m" horiz-adv-x="2109" d="M47 995q10 23 33.5 34t46.5 1q84 -33 154 -199q18 -47 35.5 -104t33.5 -125q10 59 22.5 112.5t28.5 100.5q29 86 61 139.5t64.5 84t63.5 43t57 12.5h4q111 0 199 -143.5t141 -399.5q16 78 33.5 143.5t38.5 120.5q86 240 217 262q13 2 26 2q53 0 97 -39q47 -39 76 -104 q29 -61 51 -143t45 -175q23 -86 45 -171t51 -154q35 -86 62.5 -112.5t42.5 -28.5q8 -2 23.5 1t39 17t56 46t75.5 89q16 23 41 26t45 -14q23 -15 26 -39v-7q0 -21 -14 -40q-80 -106 -157 -161q-68 -42 -127 -42q-16 0 -31 3q-39 8 -69.5 30.5t-54 53t-42 65.5t-31.5 66 q-31 76 -54 164t-46 180q-23 86 -44 163.5t-46 133.5q-16 33 -33.5 52t-32.5 17l-16 -8t-31 -28q-39 -47 -75 -148q-86 -242 -127 -704q-4 -25 -21.5 -40.5t-40.5 -15.5h-2q-23 0 -40 16.5t-19 41.5q-16 272 -52 439t-71 257q-45 113 -90 164q-37 41 -64 41h-2 q-23 0 -59.5 -43t-71.5 -152q-37 -115 -59.5 -275.5t-28.5 -361.5q4 -34 4 -58q0 -16 -2 -26q-4 -23 -19.5 -37t-37.5 -16h-4q-41 0 -58 39q-2 4 -6 16q-2 4 -2 17q0 16 1 30.5t1 30.5q-6 59 -21.5 160.5t-39.5 214.5q-31 137 -58.5 217t-50 122t-38 54t-17.5 12 q-23 10 -34 33q-6 12 -6 24t5 23z" />
<glyph unicode="n" horiz-adv-x="1277" d="M61 960q7 24 29 37q23 12 47.5 5t36.5 -29q43 -82 70.5 -171t42.5 -200q25 88 55 158q98 242 213 284q26 11 51 11q42 0 80 -31q66 -52 86 -192q8 -56 9 -121q0 -98 -19 -215q-14 -83 -15 -152q0 -99 31 -166q33 -78 105 -94q15 -2 30 -2q60 0 117 39q78 53 100 137 q4 27 26 40t48 7q25 -5 38 -27q9 -15 9 -32q0 -8 -2 -15q-16 -63 -54 -118.5t-95 -92.5q-43 -31 -92.5 -46t-96.5 -15q-14 0 -26.5 1t-26.5 3q-133 29 -192 166q-41 89 -41 215q0 78 16 170q16 109 16 196q0 52 -6 97q-10 70 -24.5 94.5t-18.5 28.5q-4 2 -10 0 q-4 -2 -16.5 -10.5t-31 -31t-43 -64.5t-52.5 -109q-47 -121 -89 -289t-77 -377q-4 -23 -23.5 -38t-42.5 -13q-25 4 -41 22.5t-14 42.5q8 141 9 263v23q0 110 -9 204q-10 104 -34.5 193.5t-67.5 166.5q-8 15 -8 30q0 8 3 17z" />
<glyph unicode="o" horiz-adv-x="921" d="M60 299q-11 51 -10 107q0 57 11 120q16 86 51 166t87 144q57 70 120 106q74 43 154 43h8q78 -4 148.5 -41t126.5 -108q100 -129 123 -306q4 -40 5 -77q0 -12 -1 -24q-2 -48 -15 -95q-20 -102 -86 -180q-53 -66 -134 -104t-181 -46q-10 -2 -20.5 -2h-20.5q-186 0 -285 121 q-59 72 -81 176zM180 331q14 -79 56 -130q63 -76 190 -76h15.5t17.5 2q150 8 229 104q42 53 60 127q11 47 12 98q0 29 -4 60q-8 68 -33 131.5t-64 112.5q-29 35 -72.5 67.5t-107.5 34.5h-6q-53 0 -100 -31.5t-86 -82t-65.5 -115t-39.5 -129.5q-8 -49 -8 -94q-1 -41 6 -79z " />
<glyph unicode="p" horiz-adv-x="1021" d="M45 992q8 24 31 34q203 98 375 117q39 4 75 4q120 0 217 -45q86 -41 145.5 -113t82.5 -168q14 -52 14 -104q0 -57 -17 -114q-32 -109 -120 -214q-80 -96 -193 -166q-53 -35 -112.5 -60.5t-120.5 -43.5q-4 -162 -16.5 -306.5t-34.5 -269.5q-10 -51 -62 -51h-10 q-25 4 -39 25.5t-10 46.5q25 137 37 301t13 345v30q0 167 -10 344q-11 192 -32 387q-33 -10 -63.5 -24.5t-65.5 -31.5q-23 -10 -46.5 -1.5t-35.5 30.5q-6 13 -6 26q0 11 4 22zM377 1001q23 -182 34 -367t11 -366v-20q100 35 186.5 92t147.5 129q66 78 91 161q14 46 14 91 q0 35 -9 70q-33 141 -160 200q-73 34 -166 34q-69 0 -149 -19v-5z" />
<glyph unicode="q" horiz-adv-x="1165" d="M29 283q-6 39 -6 82q0 55 10 115q18 106 65 212q51 115 122 198t155 124q78 41 162 41q27 0 55 -4q121 -25 229 -131q18 -16 18.5 -42t-18.5 -44q-16 -18 -41.5 -18.5t-44.5 18.5q-103 97 -203 97q-51 0 -102 -26q-63 -33 -120.5 -101.5t-98.5 -160.5q-41 -90 -57 -179 q-8 -48 -8 -92q0 -36 6 -69q10 -72 50 -115t99 -47h6q48 0 99 28q53 30 104 87q68 76 122 191.5t95 265.5q10 41 55 45h7q39 0 55 -41q31 -88 53.5 -214t38.5 -267q10 86 23.5 178t35.5 196q6 27 27.5 40.5t46.5 6.5q25 -4 38 -25q10 -17 10 -35q0 -5 -1 -11 q-27 -127 -42 -237.5t-23.5 -212t-10.5 -196t-4 -186.5q-4 -98 -6 -193.5t-10 -195.5q-4 -20 -5 -34.5t-3 -24.5q0 -8 -4 -21q-8 -27 -27 -37t-35 -10t-34.5 11.5t-26.5 37.5q-2 4 -2 9.5t-2 13.5q-4 20 -7 53q-2 33 -4 79t-6 101q-4 90 -11 207t-17.5 243t-24.5 250 t-33 230q-37 -92 -80 -167t-96 -132q-70 -78 -150 -118q-72 -36 -143 -36h-14q-104 4 -176 78q-72 72 -90 185z" />
<glyph unicode="r" horiz-adv-x="780" d="M45 995q-2 8 -2 15q-1 18 9 32q14 22 38 27q8 2 15 2q15 0 31 -9q22 -13 28 -38q39 -160 61 -303q16 66 35 116t39 89q57 102 139 118q13 2 27 2q76 0 145 -77q76 -84 152 -248q6 -13 6 -26q0 -11 -4 -21q-8 -24 -31 -35q-23 -10 -47 -2t-35 31q-35 76 -67.5 130 t-63.5 87q-36 39 -55 39h-4t-13.5 -6.5t-28 -31t-38 -73.5t-41.5 -135q-25 -102 -44.5 -234.5t-31.5 -291.5v-23q-2 -18 -3 -31.5t-1 -21.5q-2 -16 -6 -31.5t-21 -30.5q-16 -12 -36 -12q-18 0 -29 8q-12 6 -23.5 21.5t-9.5 38.5t3 45t3 45q2 34 2 79.5t-2 102.5 q-6 109 -25.5 275.5t-70.5 377.5z" />
<glyph unicode="s" horiz-adv-x="729" d="M60 175v7q0 46 42 111q14 23 39 28t47 -10q20 -14 25.5 -38.5t-8.5 -47.5q-22 -33 -22 -52q0 -6 3 -11q8 -14 47 -26q26 -8 65 -9q19 0 40 2q78 8 136 40t75 73q6 18 6 36q0 36 -28 66q-42 45 -146 113q-49 33 -98.5 67.5t-89.5 77.5q-85 94 -85 212q0 15 1 30 q16 127 77 200q66 82 160 82q104 0 178 -98q74 -96 92 -256q4 -27 -12 -46t-41 -24q-25 -4 -44 12.5t-23 43.5q-16 127 -61.5 186.5t-88.5 59.5q-35 0 -69.5 -42t-45.5 -133q-1 -9 -1 -18q0 -66 53 -127q33 -35 75.5 -65.5t90.5 -59.5q49 -33 94 -64.5t80 -70.5 q57 -68 57 -144q0 -38 -14 -79q-31 -86 -131 -140q-41 -23 -88.5 -37t-96.5 -18q-12 -2 -24.5 -2h-24.5q-55 0 -100 12q-84 23 -119 82q-18 29 -22 77z" />
<glyph unicode="t" horiz-adv-x="606" d="M-170 1470q8 25 30.5 36.5t47.5 0.5q92 -33 229 -47q-2 74 -8 140.5t-23 119.5q-8 25 5.5 46.5t38.5 29.5q8 2 16 2q16 0 30 -8q21 -12 29 -37q16 -66 24.5 -141.5t10.5 -161.5q49 -4 100.5 -4h104.5q188 4 360 33.5t310 76.5q25 10 47 -0.5t30 -35.5q5 -11 5 -22 q0 -12 -6 -24q-11 -24 -35 -32q-147 -53 -327.5 -83t-379.5 -36h-72q-35 0 -69.5 1t-67.5 3q-2 -51 -3 -102t-3 -105q-6 -166 -7 -328v-13q0 -155 23 -292q27 -150 84.5 -240.5t153.5 -131.5q25 -10 34 -34t-1 -46q-16 -37 -56 -37q-8 0 -24 4q-248 106 -311 465 q-27 140 -27 297v22q2 168 8 338q2 53 3 106.5t3 106.5q-164 16 -270 56q-25 7 -36 31q-6 12 -6 25q0 11 5 21z" />
<glyph unicode="u" horiz-adv-x="1196" d="M68 338q-3 53 -3 117q0 200 33 503q4 25 23.5 41.5t44.5 12.5q27 -4 42 -23.5t11 -44.5q-23 -195 -30 -344q-3 -70 -3 -129q0 -69 4 -125q8 -109 27 -154t31 -59q8 -6 17 -10t30 -2q8 2 28.5 13t53.5 52q29 35 57.5 85.5t54.5 111.5q61 135 107.5 309t73.5 367 q4 25 24 41q16 13 34 13q5 0 9 -1q25 -4 41.5 -22.5t14.5 -42.5q-4 -63 -10.5 -124t-12.5 -118q-16 -171 -22 -315q-1 -21 -1 -43q0 -117 31 -207t84 -111q18 -7 41 -7q21 0 47 6q54 13 121 50q23 12 46.5 5t35.5 -29q9 -15 9 -31q0 -7 -2 -15q-7 -24 -30 -36 q-129 -73 -229 -73q-45 0 -84 15q-106 41 -155 185q-16 45 -23.5 92t-11.5 98l-25 -55q-61 -143 -129 -225q-78 -96 -162 -109q-8 -2 -15 -2h-13q-43 0 -73 15.5t-48 33.5q-41 39 -63.5 109.5t-30.5 181.5z" />
<glyph unicode="v" horiz-adv-x="950" d="M43 1047q18 16 44 15t42 -20q63 -72 113.5 -156.5t87.5 -173.5t62.5 -178.5t43.5 -168.5q12 57 29.5 118.5t40.5 124.5q117 342 323 508q15 13 36 13h8q26 -3 42 -23q14 -17 14 -38q-1 -3 -1 -7q-2 -25 -23 -41q-70 -55 -123 -130t-94 -159t-69.5 -171t-49 -167 t-33 -148.5t-20.5 -113.5q-4 -20 -6 -35.5t-4 -27.5q-2 -10 -6 -23q-10 -27 -29 -37t-35 -10h-2q-10 2 -29.5 10t-29.5 37q-4 8 -6 25q-6 27 -13 67q-12 66 -32.5 169.5t-57.5 219t-92 230t-135 205.5q-15 17 -15 41q0 27 19 45z" />
<glyph unicode="w" horiz-adv-x="1320" d="M41 971.5q0 25.5 16 44.5q18 18 44 18t44 -16q111 -109 177 -340q27 -96 43 -192.5t26 -178.5q6 -41 11.5 -74.5t11.5 -62.5q0 -4 1 -7t1 -7q14 23 27.5 57.5t27.5 87.5q53 217 64 631q2 23 18 39t39 20q23 2 42 -12t23 -37q49 -246 93.5 -414t85.5 -268q12 -31 22 -52.5 t21 -37.5q4 27 5 55.5t5 55.5q4 53 9 115.5t12.5 128t17.5 132t24 127.5q33 137 84 224q70 111 170 125q5 1 10 1q20 0 36 -12q20 -16 24 -43q1 -5 1 -10q-1 -19 -13 -35q-16 -20 -41 -24q-92 -12 -152 -254q-12 -57 -22.5 -121t-17.5 -126.5t-12 -123.5t-9 -113 q-6 -94 -13 -151q-6 -45 -14 -70.5t-29 -40.5q-19 -12 -39 -12q-12 0 -18 2q-53 14 -93 64.5t-81 148.5q-23 55 -45.5 128t-46.5 167q-8 -68 -18.5 -127t-22.5 -109q-57 -227 -162 -268q-14 -5 -28 -5q-21 0 -40 11q-18 10 -31.5 30.5t-22.5 53.5t-17 81l-19 114 q-10 80 -25.5 173t-41.5 183q-53 195 -144 285q-18 16 -18 41.5z" />
<glyph unicode="x" horiz-adv-x="1038" d="M37 43q-3 10 -3 20q0 14 7 27q49 102 110.5 190.5t129.5 172.5q-78 123 -130.5 248.5t-74.5 250.5q-4 25 10 45.5t39 24.5q27 4 47.5 -10.5t24.5 -38.5q18 -109 61 -214.5t107 -207.5q23 27 46 52.5t48 53.5q104 119 208.5 245t192.5 280q12 23 37 29q8 2 15 2 q16 0 32 -9q23 -14 29 -37.5t-6 -46.5q-92 -162 -200 -292t-218 -253q-29 -35 -56.5 -66.5t-56.5 -64.5q123 -166 283 -293t338 -186q23 -11 34 -33q6 -13 6 -26q0 -10 -3 -19q-6 -20 -22.5 -31.5t-35.5 -11.5q-8 0 -20 4q-166 57 -322.5 170t-287.5 269q-12 16 -25.5 30.5 t-26.5 30.5q-59 -72 -110 -149.5t-94 -163.5q-18 -35 -54 -35q-14 0 -28 6q-23 12 -31 37z" />
<glyph unicode="y" horiz-adv-x="862" d="M46 708q1 126 17 279q4 27 23.5 43.5t44.5 11.5q27 -4 43 -23.5t12 -43.5q-17 -162 -17 -288q0 -101 11 -179q14 -92 36 -126t32 -42q4 -4 17.5 -7t41.5 11q47 23 100.5 88.5t101.5 161.5t82 218t44 257v19.5t2 19.5q2 25 19.5 41t41.5 16h2q27 -2 43.5 -19.5t16.5 -43.5 q-2 -10 -2 -19.5v-19.5q-6 -100 -6 -197q0 -77 4 -153q8 -170 18 -326q6 -119 12 -216q3 -59 3 -112q0 -34 -1 -65q-4 -80 -17 -146.5t-44 -126.5q-20 -41 -55 -74.5t-82 -58.5q-82 -41 -178 -41h-2q-88 0 -155 35t-97 99q-14 27 -22 63q-3 18 -3 40q0 20 3 43 q7 48 33 106.5t79 129.5q16 23 39.5 26t46.5 -11q20 -16 24 -41t-12 -45q-68 -92 -84 -166q-6 -23 -6 -43q0 -26 10 -47q18 -37 60.5 -51.5t83.5 -14.5h2q57 0 117.5 25.5t88.5 81.5q49 95 49 239q0 141 -16 365q-4 47 -6 98t-6 105q-4 -10 -12 -27q-55 -121 -124 -205 t-141 -119q-48 -24 -91 -24q-49 0 -93 31q-92 66 -119 249q-13 88 -13 203v16z" />
<glyph unicode="z" horiz-adv-x="1171" d="M69 932q-5 11 -5 23t6 24q10 23 33.5 33t48.5 0q74 -33 138 -55.5t128 -25.5h17q55 -1 113 15q68 18 148 70q16 10 33 10q4 0 9 -1q22 -3 38 -19q14 -16 15.5 -39t-13.5 -39q-70 -88 -120 -155.5t-89 -127t-69.5 -117t-60 -122t-59.5 -143.5t-67 -181q86 51 166 87 t158 58q123 35 242 37q59 0 119.5 -8t119.5 -25q25 -7 37 -29q8 -14 8 -30q0 -8 -2 -16q-8 -25 -29.5 -37.5t-46.5 -5.5q-98 28 -199 28q-102 1 -208 -29q-208 -58 -449 -235q-18 -12 -36 -12q-23 0 -37 12q-16 12 -22.5 31.5t1.5 38.5q6 16 11.5 32.5t11.5 32.5 q57 160 99 269.5t82 197.5t87 166t115 172q-57 -10 -108 -10h-17q-80 4 -158 30.5t-156 61.5q-23 9 -33 33z" />
<glyph unicode="{" horiz-adv-x="595" d="M49 602.5q8 26.5 23 42.5q12 16 27.5 25.5t27.5 15.5q4 4 8 4q16 37 22.5 79t5.5 86t-6 88t-12 87q-8 49 -13 96.5t-4 89t14.5 78.5t41.5 66q80 84 293 53q25 -4 40 -24.5t11 -45.5q-4 -27 -23.5 -42t-45.5 -11q-150 23 -189 -16q-25 -25 -19.5 -89.5t15.5 -135.5 q8 -47 14.5 -100.5t6.5 -106.5q0 -127 -49 -219q-4 -8 -7 -11q-18 -20 -47 -34l-12 -7q4 -10 6 -14t10 -10q29 -20 46.5 -48t21.5 -85v-6q-2 -49 -3 -92.5t-5 -84.5q-4 -123 -3 -205.5t29 -109.5q14 -12 41 -18.5t60 -7.5t68.5 2.5t66.5 7.5q25 4 44 -12.5t24 -43.5 q4 -25 -12.5 -44t-43.5 -23q-41 -4 -74.5 -6t-62.5 -2h-30.5t-26.5 2q-88 8 -138 55q-39 35 -51 82t-16 88q-4 47 -2 106.5t6 135.5q2 39 3 80.5t3 89.5q-2 18 -4 24t-4 8l-8 6q-12 10 -30.5 29t-33.5 60q-12 41 -4 67.5z" />
<glyph unicode="|" horiz-adv-x="270" d="M63 1163.5v65.5v6q0 27 17.5 44t44.5 17q25 0 43 -17t18 -44v-63.5v-118v-145.5t1 -145.5t2 -118.5t4 -62q2 -14 3 -76t3 -149t3 -186t2 -187t1 -151.5v-78.5q0 -27 -17.5 -44t-44.5 -17q-25 0 -43 17.5t-18 43.5v74.5t-1 148.5t-2 184.5t-2 184.5t-2 147.5t-3 73.5 t-3 63.5t-2 120t-1 146.5t-1.5 146.5t-1.5 120z" />
<glyph unicode="}" horiz-adv-x="595" d="M18 -156q4 27 23.5 43.5t44.5 12.5q31 -4 66.5 -7.5t68.5 -2.5t59.5 7.5t41.5 18.5q29 27 29.5 110t-3.5 205q-4 41 -5 84t-3 93v6q4 57 21.5 84.5t46.5 48.5q8 6 10 10t6 14l-12 7q-29 14 -47 34q-2 2 -7 11q-49 92 -49 219q0 53 6.5 106t14.5 101q10 72 15 136t-19 89 q-39 39 -189 16q-27 -4 -46 11.5t-23 41.5q-4 25 11 45.5t40 24.5q213 31 293 -53q29 -29 42 -66t14 -78.5t-4 -89t-13 -96.5q-6 -43 -11.5 -87t-6.5 -88t5 -86t23 -79q4 0 8 -4q12 -6 27.5 -15t27.5 -26q14 -16 22.5 -43t-3.5 -67q-14 -41 -32.5 -59.5t-31.5 -29.5l-8 -6 q-2 -2 -4 -8t-4 -24q2 -47 3 -89.5t3 -80.5q4 -76 6 -135.5t-2 -106.5q-4 -41 -16.5 -88t-50.5 -82q-49 -47 -138 -55q-12 -2 -26.5 -2h-30.5q-29 0 -62.5 2t-74.5 6q-27 4 -43.5 23.5t-12.5 43.5z" />
<glyph unicode="~" horiz-adv-x="948" d="M33 422q37 119 117 153q66 31 136 9.5t140 -52.5q63 -29 125.5 -49t110.5 0q68 33 110 164q10 23 32.5 35t45.5 2q25 -8 36 -30.5t3 -45.5q-61 -186 -178 -235q-43 -18 -85 -19.5t-85 8t-84 25.5t-80 33q-51 23 -100.5 40t-75.5 5q-18 -8 -30.5 -32.5t-20.5 -47.5 q-6 -20 -23 -31.5t-35 -11.5q-12 0 -18 2q-25 8 -37 30.5t-4 47.5z" />
<glyph unicode="&#xa1;" horiz-adv-x="258" d="M43 -211q2 80 10 164t17 168q8 80 15 158.5t9 151.5t-1 137.5t-17 115.5q-6 25 7 46.5t38 29.5q4 0 7 1t7 1q23 0 39 -12.5t21 -34.5q31 -119 22.5 -275.5t-27.5 -331.5q-8 -80 -15 -159.5t-9 -154.5t1 -142.5t17 -120.5q6 -25 -7 -46.5t-38 -27.5t-46 7.5t-28 37.5 q-16 61 -20 134t-2 153zM72 965q0 25 16 41t41 16q23 0 39 -16.5t16 -40.5q0 -23 -16 -40.5t-39 -17.5q-25 0 -41 17.5t-16 40.5z" />
<glyph unicode="&#xa3;" horiz-adv-x="1134" d="M53 170q-16 94 29 170q18 33 58 67.5t114 53.5q10 4 17.5 4t17.5 2q2 41 3 81t-3 81q-66 0 -137 16q-25 4 -39.5 25.5t-10.5 46.5q6 25 28 39t46 10q31 -8 62.5 -11t62.5 -3q8 53 5 117.5t-10 132t-12 133t-1 122.5q8 145 90 228q84 84 264 4q68 -29 122 -64.5t70 -48.5 q23 -14 27 -38.5t-12 -47.5q-16 -20 -41 -24t-45 12q-10 8 -60.5 40t-109.5 58q-61 29 -91 29t-36 -6q-49 -49 -55.5 -130t3 -173t20.5 -182.5t-1 -153.5q106 14 227 67q23 10 46.5 0t33.5 -32q10 -23 1 -46.5t-34 -33.5q-76 -33 -147.5 -53.5t-142.5 -28.5q4 -49 3 -101.5 t-5 -101.5q29 -16 58.5 -36.5t61.5 -43.5q51 -37 107.5 -73.5t119 -62.5t130 -34t145.5 10q25 6 47.5 -6t28.5 -37t-7.5 -47t-37.5 -28q-35 -8 -67.5 -12.5t-65.5 -4.5q-74 0 -140.5 18.5t-125 47.5t-109.5 63.5t-96 65.5q-31 25 -62 43q-12 -82 -30 -143q-31 -90 -72 -121 t-74 -33h-10q-63 0 -107 55q-39 51 -51 119zM172 217q0 -41 18 -72q6 -14 11.5 -19t9.5 -7q6 4 18.5 22.5t24.5 65.5q16 51 27 135q-66 -18 -86.5 -55t-22.5 -70z" />
<glyph unicode="&#xa5;" horiz-adv-x="884" d="M31 1408q0 26 16 42q18 18 44 18t44 -18q135 -135 248 -373q29 -57 51.5 -112.5t42.5 -108.5q33 113 68 213q14 43 32.5 92t40 100.5t46 102.5t53.5 98q14 23 37.5 29t46.5 -6t29 -37t-7 -47q-43 -74 -85 -170t-76.5 -198.5t-63.5 -204t-45 -185.5q-4 -33 -4 -61.5 t-2 -57.5q53 4 106.5 10.5t104.5 16.5q25 4 46 -9.5t25 -37.5q4 -27 -9 -47.5t-38 -26.5q-57 -10 -116.5 -17t-120.5 -10q0 -18 -1 -36.5t1 -36.5q102 6 223 24q25 4 45.5 -10t24.5 -39q4 -27 -10.5 -47t-39.5 -25q-66 -10 -126 -16t-117 -10v-150q0 -27 -17.5 -44 t-44.5 -17q-25 0 -43 17.5t-18 43.5v148q-57 2 -111.5 6t-107.5 14q-25 4 -39 25.5t-10 46.5t24.5 39t46.5 10q94 -16 197 -18v73q-63 0 -122.5 5.5t-113.5 15.5q-25 4 -39 25.5t-10 46.5t25.5 39t46.5 10q49 -10 103.5 -14.5t111.5 -6.5q2 29 2 56.5t2 56.5q-2 14 -10 33 q-29 76 -64 168t-80 186t-101 183t-126 159q-16 18 -16 44z" />
<glyph unicode="&#xa8;" horiz-adv-x="428" d="M61 1182q0 25 16.5 41t39.5 16q25 0 41 -16t16 -41q0 -23 -16.5 -39.5t-40.5 -16.5q-23 0 -39.5 16.5t-16.5 39.5zM254 1182q0 25 16.5 41t38.5 16q25 0 41.5 -16t16.5 -41q0 -23 -16.5 -39.5t-41.5 -16.5q-23 0 -39 16.5t-16 39.5z" />
<glyph unicode="&#xab;" horiz-adv-x="1206" d="M20 395q0 39 37 56q88 41 156 78.5t124 75.5t105.5 76t98.5 79q23 16 43 33.5t43 35.5q20 16 44.5 13.5t41.5 -23.5q12 -19 12 -39q0 -31 -23 -47q-23 -18 -43 -34.5t-41 -32.5q-41 -35 -82.5 -68t-89 -65.5t-101.5 -66.5t-120 -69q68 -33 127.5 -63.5t112.5 -64 t102 -72.5t99 -86q18 -16 19 -42t-17 -44q-16 -18 -42 -18.5t-44 16.5q-53 51 -108.5 92t-118 76.5t-135.5 70.5t-163 76q-37 16 -37 57zM438 395q0 39 37 56q88 41 155.5 78.5t124 75.5t105.5 76t98 79q23 16 43.5 33.5t42.5 35.5q20 16 45 13.5t41 -23.5q13 -19 13 -39 q0 -31 -23 -47q-23 -18 -43 -34.5t-41 -32.5q-41 -35 -83 -68t-89 -65.5t-101 -66.5t-120 -69q68 -33 127 -63.5t112.5 -64t102.5 -72.5t98 -86q18 -16 19.5 -42t-17.5 -44q-16 -18 -41.5 -18.5t-44.5 16.5q-53 51 -108 92t-117.5 76.5t-135.5 70.5t-163 76q-37 16 -37 57z " />
<glyph unicode="&#xad;" horiz-adv-x="557" d="M57 555q0 25 17.5 43t44.5 18q41 -2 79 2.5t78 8.5l82 8t86 4q27 0 44.5 -17.5t17.5 -43.5q0 -25 -17.5 -43.5t-44.5 -18.5q-41 0 -77.5 -3t-75.5 -7l-82 -8t-84 -4h-6q-27 0 -44.5 17t-17.5 44z" />
<glyph unicode="&#xaf;" horiz-adv-x="503" d="M53 1210q0 16 12.5 27.5t28.5 11.5q41 0 80 4t80 9q39 4 80 8t86 4q16 0 27.5 -12.5t11.5 -28.5t-11.5 -28.5t-27.5 -12.5q-41 0 -79 -3t-79 -7q-39 -4 -79 -8.5t-83 -4.5h-8q-16 0 -27.5 12.5t-11.5 28.5z" />
<glyph unicode="&#xb4;" horiz-adv-x="292" d="M27 1170.5q6 15.5 22 23.5q37 16 78 50t70 67q29 29 57 4q14 -12 14 -28.5t-10 -31.5q-31 -35 -79 -74.5t-97 -62.5q-4 -2 -16 -2q-27 0 -37 23q-8 16 -2 31.5z" />
<glyph unicode="&#xb7;" horiz-adv-x="262" d="M57 631q0 33 21.5 54.5t50.5 21.5q33 0 54.5 -21.5t21.5 -54.5q0 -29 -21.5 -50.5t-54.5 -21.5q-29 0 -50.5 21.5t-21.5 50.5z" />
<glyph unicode="&#xb8;" horiz-adv-x="364" d="M66 -291q0 16 13 27.5t30 9.5q66 -4 99.5 6t41.5 27q6 10 1 24.5t-9 18.5q-14 18 -41 33.5t-60 9.5q-23 -4 -35 12q-18 18 -25 36.5t-6 34t7 29t10 23.5q4 8 8 20q4 16 18.5 24.5t31.5 4.5q37 -10 30 -49q-4 -10 -7 -19.5t-7 -17.5q-4 -4 -5 -7t-3 -7q51 -2 90 -25.5 t61 -56.5q45 -68 13 -129q-16 -27 -56.5 -50.5t-126.5 -23.5h-18t-19 2q-16 0 -27.5 13.5t-8.5 29.5z" />
<glyph unicode="&#xbb;" horiz-adv-x="1206" d="M66 780q0 20 12 39q16 20 40.5 23.5t45.5 -13.5q23 -18 43 -35.5t43 -33.5q49 -41 98 -79t105.5 -76t124 -75.5t155.5 -78.5q37 -16 37 -56q0 -41 -37 -57q-90 -41 -162.5 -76t-135 -70.5t-118 -76.5t-108.5 -92q-18 -16 -44 -16.5t-42 18.5q-18 18 -17.5 43.5t19.5 42.5 q49 47 98 86t102.5 72.5t113 64.5t126.5 63q-66 35 -120 69t-101 66.5t-89 65.5t-83 68q-20 16 -40.5 32.5t-43.5 34.5q-22 16 -22 47zM483 780q0 20 13 39q16 20 40.5 23.5t45.5 -13.5q23 -18 43 -35.5t43 -33.5q49 -41 98 -79t105.5 -76t124 -75.5t155.5 -78.5 q37 -16 37 -56q0 -41 -37 -57q-90 -41 -163 -76t-135 -70.5t-117.5 -76.5t-108.5 -92q-18 -16 -44 -16.5t-42 18.5q-18 18 -17.5 43.5t19.5 42.5q49 47 98 86t102.5 72.5t112.5 64.5t127 63q-66 35 -120 69t-101 66.5t-89 65.5t-83 68q-20 16 -41 32.5t-43 34.5 q-23 16 -23 47z" />
<glyph unicode="&#xbf;" horiz-adv-x="790" d="M4 -115q-2 57 6.5 128t28.5 153q18 74 43 152.5t55.5 156.5t64.5 150.5t71 136.5q18 31 53 30q20 0 31 -8q23 -12 30 -36.5t-8 -47.5q-70 -121 -128 -271.5t-93 -291.5q-35 -145 -31 -248q2 -43 10.5 -73.5t24.5 -40.5q33 -27 129 22q70 35 158 105.5t194 177.5 q18 16 44 16t42 -18q18 -18 18.5 -44t-18.5 -42q-229 -227 -383 -303q-39 -20 -73.5 -31.5t-65.5 -13.5q-70 -6 -121 32q-76 62 -82 209zM269 960q0 29 17 47.5t40 18.5q25 0 41 -18.5t16 -47.5t-16 -47t-41 -18q-23 0 -40 18.5t-17 46.5z" />
<glyph unicode="&#xc0;" d="M32 52q-1 26 15 44q129 145 232 541q43 166 71.5 324.5t46.5 271.5q12 70 19 110q4 10 5 19.5t3 15.5q4 10 12 27.5t33 26.5q33 12 61 -13q12 -10 18.5 -25.5t16.5 -50.5q8 -43 31 -116q14 -59 33.5 -130t41 -150t46 -162t53.5 -164q88 23 177 39t181 16q27 0 44.5 -17.5 t17.5 -44.5q0 -25 -17.5 -43t-44.5 -18q-80 0 -158.5 -13.5t-160.5 -35.5q37 -104 69.5 -176t59.5 -120t48.5 -75t37.5 -39q20 -16 23.5 -40.5t-13.5 -45.5q-18 -23 -49 -22q-23 0 -37 12q-74 55 -153 219q-25 51 -50.5 114.5t-54.5 139.5q-2 -2 -6 -2q-86 -25 -173 -48.5 t-179 -33.5q-39 -115 -86 -211t-107 -162q-16 -18 -41.5 -19t-46.5 15q-18 16 -19 42zM312 1696q0 17 14 29q29 25 57 -4q29 -33 70 -67t78 -50q16 -8 22 -23.5t-2 -31.5q-10 -23 -37 -23q-12 0 -16 2q-49 23 -97 63t-79 74q-10 14 -10 31zM373 518q72 12 140.5 30.5 t137.5 37.5q-45 137 -83 271t-66 245q-23 -125 -53.5 -277.5t-75.5 -306.5z" />
<glyph unicode="&#xc1;" d="M32 52q-1 26 15 44q129 145 232 541q43 166 71.5 324.5t46.5 271.5q12 70 19 110q4 10 5 19.5t3 15.5q4 10 12 27.5t33 26.5q33 12 61 -13q12 -10 18.5 -25.5t16.5 -50.5q8 -43 31 -116q14 -59 33.5 -130t41 -150t46 -162t53.5 -164q88 23 177 39t181 16q27 0 44.5 -17.5 t17.5 -44.5q0 -25 -17.5 -43t-44.5 -18q-80 0 -158.5 -13.5t-160.5 -35.5q37 -104 69.5 -176t59.5 -120t48.5 -75t37.5 -39q20 -16 23.5 -40.5t-13.5 -45.5q-18 -23 -49 -22q-23 0 -37 12q-74 55 -153 219q-25 51 -50.5 114.5t-54.5 139.5q-2 -2 -6 -2q-86 -25 -173 -48.5 t-179 -33.5q-39 -115 -86 -211t-107 -162q-16 -18 -41.5 -19t-46.5 15q-18 16 -19 42zM373 518q72 12 140.5 30.5t137.5 37.5q-45 137 -83 271t-66 245q-23 -125 -53.5 -277.5t-75.5 -306.5zM482 1580.5q6 15.5 22 23.5q37 16 78 50t70 67q29 29 57 4q14 -12 14 -28.5 t-10 -31.5q-31 -35 -79 -74.5t-97 -62.5q-4 -2 -16 -2q-27 0 -37 23q-8 16 -2 31.5z" />
<glyph unicode="&#xc2;" d="M32 52q-1 26 15 44q129 145 232 541q43 166 71.5 324.5t46.5 271.5q12 70 19 110q4 10 5 19.5t3 15.5q4 10 12 27.5t33 26.5q33 12 61 -13q12 -10 18.5 -25.5t16.5 -50.5q8 -43 31 -116q14 -59 33.5 -130t41 -150t46 -162t53.5 -164q88 23 177 39t181 16q27 0 44.5 -17.5 t17.5 -44.5q0 -25 -17.5 -43t-44.5 -18q-80 0 -158.5 -13.5t-160.5 -35.5q37 -104 69.5 -176t59.5 -120t48.5 -75t37.5 -39q20 -16 23.5 -40.5t-13.5 -45.5q-18 -23 -49 -22q-23 0 -37 12q-74 55 -153 219q-25 51 -50.5 114.5t-54.5 139.5q-2 -2 -6 -2q-86 -25 -173 -48.5 t-179 -33.5q-39 -115 -86 -211t-107 -162q-16 -18 -41.5 -19t-46.5 15q-18 16 -19 42zM373 518q72 12 140.5 30.5t137.5 37.5q-45 137 -83 271t-66 245q-23 -125 -53.5 -277.5t-75.5 -306.5zM379 1590q35 90 51 127q10 25 21.5 42t32.5 21q6 2 23 0t34 -31q4 -6 7 -15t7 -19 q10 -25 26.5 -60t45.5 -69q10 -12 9 -30t-15 -28q-15 -10 -27 -10q-18 0 -31 16q-27 33 -44 64t-27 57q-8 -20 -17.5 -44.5t-19.5 -49.5q-6 -16 -21.5 -22.5t-31.5 -0.5t-22.5 20.5t-0.5 31.5z" />
<glyph unicode="&#xc3;" d="M32 52q-1 26 15 44q129 145 232 541q43 166 71.5 324.5t46.5 271.5q12 70 19 110q4 10 5 19.5t3 15.5q4 10 12 27.5t33 26.5q33 12 61 -13q12 -10 18.5 -25.5t16.5 -50.5q8 -43 31 -116q14 -59 33.5 -130t41 -150t46 -162t53.5 -164q88 23 177 39t181 16q27 0 44.5 -17.5 t17.5 -44.5q0 -25 -17.5 -43t-44.5 -18q-80 0 -158.5 -13.5t-160.5 -35.5q37 -104 69.5 -176t59.5 -120t48.5 -75t37.5 -39q20 -16 23.5 -40.5t-13.5 -45.5q-18 -23 -49 -22q-23 0 -37 12q-74 55 -153 219q-25 51 -50.5 114.5t-54.5 139.5q-2 -2 -6 -2q-86 -25 -173 -48.5 t-179 -33.5q-39 -115 -86 -211t-107 -162q-16 -18 -41.5 -19t-46.5 15q-18 16 -19 42zM266 1588q10 78 28.5 118.5t53.5 55.5q43 18 94 -9q18 -10 36.5 -22t35.5 -27q16 -12 32.5 -23t32.5 -20q18 -10 29 -6l5 4t11 17.5t13.5 39t13.5 68.5q2 16 15.5 26.5t29.5 8.5 q16 -4 26.5 -16.5t8.5 -28.5q-10 -86 -32.5 -132t-57.5 -63q-47 -18 -90 6.5t-84 55.5q-16 12 -31.5 22.5t-30.5 18.5q-10 4 -16 5t-8 1q-6 -6 -13 -18q-4 -10 -10 -32t-10 -59q-2 -16 -13.5 -26t-27.5 -10h-4q-16 2 -27.5 15t-9.5 30zM373 518q72 12 140.5 30.5t137.5 37.5 q-45 137 -83 271t-66 245q-23 -125 -53.5 -277.5t-75.5 -306.5z" />
<glyph unicode="&#xc4;" d="M32 52q-1 26 15 44q129 145 232 541q43 166 71.5 324.5t46.5 271.5q12 70 19 110q4 10 5 19.5t3 15.5q4 10 12 27.5t33 26.5q33 12 61 -13q12 -10 18.5 -25.5t16.5 -50.5q8 -43 31 -116q14 -59 33.5 -130t41 -150t46 -162t53.5 -164q88 23 177 39t181 16q27 0 44.5 -17.5 t17.5 -44.5q0 -25 -17.5 -43t-44.5 -18q-80 0 -158.5 -13.5t-160.5 -35.5q37 -104 69.5 -176t59.5 -120t48.5 -75t37.5 -39q20 -16 23.5 -40.5t-13.5 -45.5q-18 -23 -49 -22q-23 0 -37 12q-74 55 -153 219q-25 51 -50.5 114.5t-54.5 139.5q-2 -2 -6 -2q-86 -25 -173 -48.5 t-179 -33.5q-39 -115 -86 -211t-107 -162q-16 -18 -41.5 -19t-46.5 15q-18 16 -19 42zM331 1592q0 25 16.5 41t39.5 16q25 0 41 -16t16 -41q0 -23 -16.5 -39.5t-40.5 -16.5q-23 0 -39.5 16.5t-16.5 39.5zM373 518q72 12 140.5 30.5t137.5 37.5q-45 137 -83 271t-66 245 q-23 -125 -53.5 -277.5t-75.5 -306.5zM524 1592q0 25 16.5 41t38.5 16q25 0 41.5 -16t16.5 -41q0 -23 -16.5 -39.5t-41.5 -16.5q-23 0 -39 16.5t-16 39.5z" />
<glyph unicode="&#xc5;" d="M32 52q-1 26 15 44q129 145 232 541q43 166 71.5 324.5t46.5 271.5q12 70 19 110q4 10 5 19.5t3 15.5q4 10 12 27.5t33 26.5q33 12 61 -13q12 -10 18.5 -25.5t16.5 -50.5q8 -43 31 -116q14 -59 33.5 -130t41 -150t46 -162t53.5 -164q88 23 177 39t181 16q27 0 44.5 -17.5 t17.5 -44.5q0 -25 -17.5 -43t-44.5 -18q-80 0 -158.5 -13.5t-160.5 -35.5q37 -104 69.5 -176t59.5 -120t48.5 -75t37.5 -39q20 -16 23.5 -40.5t-13.5 -45.5q-18 -23 -49 -22q-23 0 -37 12q-74 55 -153 219q-25 51 -50.5 114.5t-54.5 139.5q-2 -2 -6 -2q-86 -25 -173 -48.5 t-179 -33.5q-39 -115 -86 -211t-107 -162q-16 -18 -41.5 -19t-46.5 15q-18 16 -19 42zM325 1575q2 43 41 80t115 37h4q72 0 111.5 -35t46.5 -76q6 -41 -25 -75q-14 -16 -44 -31.5t-85 -15.5h-2q-55 2 -86 16t-47 31q-29 29 -29 69zM373 518q72 12 140.5 30.5t137.5 37.5 q-45 137 -83 271t-66 245q-23 -125 -53.5 -277.5t-75.5 -306.5zM407 1573q0 -6 6 -12q4 -4 20.5 -12.5t53.5 -8.5h2q37 0 51.5 7.5t18.5 11.5q4 8 4 12q-2 12 -21.5 26.5t-56.5 14.5h-4q-37 -2 -55.5 -14t-18.5 -25z" />
<glyph unicode="&#xc6;" horiz-adv-x="1806" d="M32 60q1 26 19 42q61 53 118.5 136.5t113 180.5t104.5 205.5t92 212t79 198.5t63 167q14 39 24 68.5t21 52.5q12 33 24 54.5t41 29.5q18 4 33 -2h24q33 -2 84 -16q45 -12 108.5 -22.5t146.5 -4.5t188.5 37t238.5 102q23 12 46.5 5t35.5 -29q12 -23 5 -46.5t-29 -35.5 q-147 -82 -267 -116t-215.5 -40t-166 6t-119.5 25q-12 4 -21 4q43 -143 54.5 -310t7.5 -335q84 27 168 51.5t162.5 43.5t150.5 31.5t131 12.5q27 0 44.5 -18.5t17.5 -42.5q0 -27 -17.5 -44.5t-44.5 -17.5q-55 0 -123.5 -12t-146.5 -31.5t-161 -45.5t-167 -50q-12 -4 -20 -6 q0 -33 -1 -63.5t-4 -61.5q-4 -59 -6 -115.5t-2 -107.5q82 33 182.5 62.5t210 37.5t226 -18.5t233.5 -108.5q23 -14 27 -39t-10 -47q-16 -20 -40 -24.5t-46 10.5q-102 72 -207 92t-204 9t-191.5 -41t-172.5 -60l-49 -19q-6 -4 -20 -4q-18 0 -35 10q-27 16 -27 49 q-2 66 1.5 148t7.5 172q0 20 1 39.5t3 40.5q-102 -29 -192.5 -51.5t-164.5 -32.5q-137 -250 -266 -367q-16 -14 -41 -14q-27 0 -45 20q-16 18 -15 44zM469 512q63 14 137 34.5t154 45.5q4 141 0 283.5t-31 269.5q-41 -113 -101.5 -266.5t-133.5 -313.5q-6 -14 -12.5 -26.5 t-12.5 -26.5z" />
<glyph unicode="&#xc7;" horiz-adv-x="1097" d="M74 862q20 274 119 426q29 43 60.5 70.5t62 44t60.5 23t54 6.5h2q72 0 144.5 -38t136.5 -108q59 -66 96 -146.5t45 -164.5q4 -25 -12.5 -44.5t-42.5 -23.5q-25 -2 -44.5 14.5t-23.5 41.5q-6 63 -34.5 125.5t-71.5 111.5t-93.5 79t-99.5 30h-2q-78 -4 -135 -88 q-39 -59 -64.5 -153.5t-35.5 -217.5q-12 -152 6 -281t65 -227q41 -86 98.5 -139t124.5 -72q117 -31 234 43q66 41 123 113.5t104 171.5q10 23 35 31t47 -3q23 -10 31 -34.5t-2 -46.5q-109 -229 -273 -336q-82 -51 -163 -66q-35 -6 -68 -6q-25 0 -49.5 4t-48.5 10 q-96 25 -173 95.5t-130 181.5q-55 115 -77 260t-5 313zM416 -291q0 16 13 27.5t30 9.5q66 -4 99.5 6t41.5 27q6 10 1 24.5t-9 18.5q-14 18 -41 33.5t-60 9.5q-23 -4 -35 12q-18 18 -25 36.5t-6 34t7 29t10 23.5q4 8 8 20q4 16 18.5 24.5t31.5 4.5q37 -10 30 -49 q-4 -10 -7 -19.5t-7 -17.5q-4 -4 -5 -7t-3 -7q51 -2 90 -25.5t61 -56.5q45 -68 13 -129q-16 -27 -56.5 -50.5t-126.5 -23.5h-18t-19 2q-16 0 -27.5 13.5t-8.5 29.5z" />
<glyph unicode="&#xc8;" horiz-adv-x="1198" d="M55 551q-4 25 9.5 46t39.5 28q16 4 31 6t29 6q2 90 1 180t-10.5 176t-25.5 165t-45 147q-14 39 12 67q39 35 97 33q18 -2 38.5 -6t44.5 -10q45 -12 107.5 -23.5t145.5 -5.5t188.5 36.5t238.5 104.5q23 12 47.5 5t36.5 -29q12 -23 5 -47.5t-29 -36.5q-147 -80 -268 -114 t-216.5 -40t-165 6t-118.5 25q-6 0 -11.5 1t-11.5 3q41 -135 53.5 -290t10.5 -312l80 24q102 33 208.5 58.5t253.5 25.5q25 0 43.5 -17.5t18.5 -43.5q0 -27 -18.5 -44.5t-43.5 -17.5q-68 0 -124 -6t-106 -17t-98 -25.5t-97 -28.5q-29 -10 -59 -18.5t-62 -18.5q-2 -43 -3 -86 t-6 -84q-2 -59 -4 -114.5t-4 -106.5q84 31 184.5 61.5t210 37.5t226 -18.5t233.5 -107.5q23 -16 27 -40t-10 -46q-16 -23 -41 -27t-45 13q-102 72 -207 92t-204 9t-191.5 -42t-171.5 -61q-14 -4 -25.5 -9.5t-24.5 -9.5q-12 -4 -20 -4q-18 0 -35 10q-27 20 -27 49 q-4 68 0.5 149t8.5 171q2 33 3 64.5t3 66.5q-10 -2 -17.5 -3t-15.5 -3q-4 -2 -12 -2q-23 0 -40.5 13t-21.5 36zM476 1696q0 17 14 29q29 25 57 -4q29 -33 70 -67t78 -50q16 -8 22 -23.5t-2 -31.5q-10 -23 -37 -23q-12 0 -16 2q-49 23 -97 63t-79 74q-10 14 -10 31z" />
<glyph unicode="&#xc9;" horiz-adv-x="1198" d="M55 551q-4 25 9.5 46t39.5 28q16 4 31 6t29 6q2 90 1 180t-10.5 176t-25.5 165t-45 147q-14 39 12 67q39 35 97 33q18 -2 38.5 -6t44.5 -10q45 -12 107.5 -23.5t145.5 -5.5t188.5 36.5t238.5 104.5q23 12 47.5 5t36.5 -29q12 -23 5 -47.5t-29 -36.5q-147 -80 -268 -114 t-216.5 -40t-165 6t-118.5 25q-6 0 -11.5 1t-11.5 3q41 -135 53.5 -290t10.5 -312l80 24q102 33 208.5 58.5t253.5 25.5q25 0 43.5 -17.5t18.5 -43.5q0 -27 -18.5 -44.5t-43.5 -17.5q-68 0 -124 -6t-106 -17t-98 -25.5t-97 -28.5q-29 -10 -59 -18.5t-62 -18.5q-2 -43 -3 -86 t-6 -84q-2 -59 -4 -114.5t-4 -106.5q84 31 184.5 61.5t210 37.5t226 -18.5t233.5 -107.5q23 -16 27 -40t-10 -46q-16 -23 -41 -27t-45 13q-102 72 -207 92t-204 9t-191.5 -42t-171.5 -61q-14 -4 -25.5 -9.5t-24.5 -9.5q-12 -4 -20 -4q-18 0 -35 10q-27 20 -27 49 q-4 68 0.5 149t8.5 171q2 33 3 64.5t3 66.5q-10 -2 -17.5 -3t-15.5 -3q-4 -2 -12 -2q-23 0 -40.5 13t-21.5 36zM480 1580.5q6 15.5 22 23.5q37 16 78 50t70 67q29 29 57 4q14 -12 14 -28.5t-10 -31.5q-31 -35 -79 -74.5t-97 -62.5q-4 -2 -16 -2q-27 0 -37 23q-8 16 -2 31.5z " />
<glyph unicode="&#xca;" horiz-adv-x="1198" d="M55 551q-4 25 9.5 46t39.5 28q16 4 31 6t29 6q2 90 1 180t-10.5 176t-25.5 165t-45 147q-14 39 12 67q39 35 97 33q18 -2 38.5 -6t44.5 -10q45 -12 107.5 -23.5t145.5 -5.5t188.5 36.5t238.5 104.5q23 12 47.5 5t36.5 -29q12 -23 5 -47.5t-29 -36.5q-147 -80 -268 -114 t-216.5 -40t-165 6t-118.5 25q-6 0 -11.5 1t-11.5 3q41 -135 53.5 -290t10.5 -312l80 24q102 33 208.5 58.5t253.5 25.5q25 0 43.5 -17.5t18.5 -43.5q0 -27 -18.5 -44.5t-43.5 -17.5q-68 0 -124 -6t-106 -17t-98 -25.5t-97 -28.5q-29 -10 -59 -18.5t-62 -18.5q-2 -43 -3 -86 t-6 -84q-2 -59 -4 -114.5t-4 -106.5q84 31 184.5 61.5t210 37.5t226 -18.5t233.5 -107.5q23 -16 27 -40t-10 -46q-16 -23 -41 -27t-45 13q-102 72 -207 92t-204 9t-191.5 -42t-171.5 -61q-14 -4 -25.5 -9.5t-24.5 -9.5q-12 -4 -20 -4q-18 0 -35 10q-27 20 -27 49 q-4 68 0.5 149t8.5 171q2 33 3 64.5t3 66.5q-10 -2 -17.5 -3t-15.5 -3q-4 -2 -12 -2q-23 0 -40.5 13t-21.5 36zM471 1590q35 90 51 127q10 25 21.5 42t32.5 21q6 2 23 0t34 -31q4 -6 7 -15t7 -19q10 -25 26.5 -60t45.5 -69q10 -12 9 -30t-15 -28q-15 -10 -27 -10 q-18 0 -31 16q-27 33 -44 64t-27 57q-8 -20 -17.5 -44.5t-19.5 -49.5q-6 -16 -21.5 -22.5t-31.5 -0.5t-22.5 20.5t-0.5 31.5z" />
<glyph unicode="&#xcb;" horiz-adv-x="1198" d="M55 551q-4 25 9.5 46t39.5 28q16 4 31 6t29 6q2 90 1 180t-10.5 176t-25.5 165t-45 147q-14 39 12 67q39 35 97 33q18 -2 38.5 -6t44.5 -10q45 -12 107.5 -23.5t145.5 -5.5t188.5 36.5t238.5 104.5q23 12 47.5 5t36.5 -29q12 -23 5 -47.5t-29 -36.5q-147 -80 -268 -114 t-216.5 -40t-165 6t-118.5 25q-6 0 -11.5 1t-11.5 3q41 -135 53.5 -290t10.5 -312l80 24q102 33 208.5 58.5t253.5 25.5q25 0 43.5 -17.5t18.5 -43.5q0 -27 -18.5 -44.5t-43.5 -17.5q-68 0 -124 -6t-106 -17t-98 -25.5t-97 -28.5q-29 -10 -59 -18.5t-62 -18.5q-2 -43 -3 -86 t-6 -84q-2 -59 -4 -114.5t-4 -106.5q84 31 184.5 61.5t210 37.5t226 -18.5t233.5 -107.5q23 -16 27 -40t-10 -46q-16 -23 -41 -27t-45 13q-102 72 -207 92t-204 9t-191.5 -42t-171.5 -61q-14 -4 -25.5 -9.5t-24.5 -9.5q-12 -4 -20 -4q-18 0 -35 10q-27 20 -27 49 q-4 68 0.5 149t8.5 171q2 33 3 64.5t3 66.5q-10 -2 -17.5 -3t-15.5 -3q-4 -2 -12 -2q-23 0 -40.5 13t-21.5 36zM387 1592q0 25 16.5 41t39.5 16q25 0 41 -16t16 -41q0 -23 -16.5 -39.5t-40.5 -16.5q-23 0 -39.5 16.5t-16.5 39.5zM580 1592q0 25 16.5 41t38.5 16 q25 0 41.5 -16t16.5 -41q0 -23 -16.5 -39.5t-41.5 -16.5q-23 0 -39 16.5t-16 39.5z" />
<glyph unicode="&#xcc;" horiz-adv-x="651" d="M12 864q41 143 96.5 261t118.5 202q59 76 119 118t115 46q41 4 71.5 -15.5t47.5 -56.5q23 -53 15.5 -154.5t-30.5 -269.5q-14 -104 -27.5 -223t-17.5 -240.5t6.5 -237.5t44.5 -212q8 -25 -3 -47.5t-33 -30.5q-6 -2 -11.5 -3t-11.5 -1q-41 0 -57 41q-66 188 -58 487 q4 127 17.5 250t29.5 234q10 70 17.5 129t11.5 108q4 59 2 84t-6 35q-10 0 -44 -17.5t-83 -76.5q-45 -53 -102.5 -158.5t-110.5 -286.5q-6 -25 -28.5 -37t-47.5 -4q-25 6 -37 29t-4 47zM277 1696q0 17 14 29q29 25 57 -4q29 -33 70 -67t78 -50q16 -8 22 -23.5t-2 -31.5 q-10 -23 -37 -23q-12 0 -16 2q-49 23 -97 63t-79 74q-10 14 -10 31z" />
<glyph unicode="&#xcd;" horiz-adv-x="651" d="M12 864q41 143 96.5 261t118.5 202q59 76 119 118t115 46q41 4 71.5 -15.5t47.5 -56.5q23 -53 15.5 -154.5t-30.5 -269.5q-14 -104 -27.5 -223t-17.5 -240.5t6.5 -237.5t44.5 -212q8 -25 -3 -47.5t-33 -30.5q-6 -2 -11.5 -3t-11.5 -1q-41 0 -57 41q-66 188 -58 487 q4 127 17.5 250t29.5 234q10 70 17.5 129t11.5 108q4 59 2 84t-6 35q-10 0 -44 -17.5t-83 -76.5q-45 -53 -102.5 -158.5t-110.5 -286.5q-6 -25 -28.5 -37t-47.5 -4q-25 6 -37 29t-4 47zM387 1580.5q6 15.5 22 23.5q37 16 78 50t70 67q29 29 57 4q14 -12 14 -28.5t-10 -31.5 q-31 -35 -79 -74.5t-97 -62.5q-4 -2 -16 -2q-27 0 -37 23q-8 16 -2 31.5z" />
<glyph unicode="&#xce;" horiz-adv-x="651" d="M12 864q41 143 96.5 261t118.5 202q59 76 119 118t115 46q41 4 71.5 -15.5t47.5 -56.5q23 -53 15.5 -154.5t-30.5 -269.5q-14 -104 -27.5 -223t-17.5 -240.5t6.5 -237.5t44.5 -212q8 -25 -3 -47.5t-33 -30.5q-6 -2 -11.5 -3t-11.5 -1q-41 0 -57 41q-66 188 -58 487 q4 127 17.5 250t29.5 234q10 70 17.5 129t11.5 108q4 59 2 84t-6 35q-10 0 -44 -17.5t-83 -76.5q-45 -53 -102.5 -158.5t-110.5 -286.5q-6 -25 -28.5 -37t-47.5 -4q-25 6 -37 29t-4 47zM371 1590q35 90 51 127q10 25 21.5 42t32.5 21q6 2 23 0t34 -31q4 -6 7 -15t7 -19 q10 -25 26.5 -60t45.5 -69q10 -12 9 -30t-15 -28q-15 -10 -27 -10q-18 0 -31 16q-27 33 -44 64t-27 57q-8 -20 -17.5 -44.5t-19.5 -49.5q-6 -16 -21.5 -22.5t-31.5 -0.5t-22.5 20.5t-0.5 31.5z" />
<glyph unicode="&#xcf;" horiz-adv-x="651" d="M12 864q41 143 96.5 261t118.5 202q59 76 119 118t115 46q41 4 71.5 -15.5t47.5 -56.5q23 -53 15.5 -154.5t-30.5 -269.5q-14 -104 -27.5 -223t-17.5 -240.5t6.5 -237.5t44.5 -212q8 -25 -3 -47.5t-33 -30.5q-6 -2 -11.5 -3t-11.5 -1q-41 0 -57 41q-66 188 -58 487 q4 127 17.5 250t29.5 234q10 70 17.5 129t11.5 108q4 59 2 84t-6 35q-10 0 -44 -17.5t-83 -76.5q-45 -53 -102.5 -158.5t-110.5 -286.5q-6 -25 -28.5 -37t-47.5 -4q-25 6 -37 29t-4 47zM325 1592q0 25 16.5 41t39.5 16q25 0 41 -16t16 -41q0 -23 -16.5 -39.5t-40.5 -16.5 q-23 0 -39.5 16.5t-16.5 39.5zM518 1592q0 25 16.5 41t38.5 16q25 0 41.5 -16t16.5 -41q0 -23 -16.5 -39.5t-41.5 -16.5q-23 0 -39 16.5t-16 39.5z" />
<glyph unicode="&#xd0;" horiz-adv-x="1310" d="M77.5 30q-14.5 56 8.5 109q25 57 86 86q57 27 141 15q6 0 15 -4q31 -12 59.5 -23.5t56.5 -22.5q29 74 35 172q6 100 -4 211t-24 222t-24.5 210t-0.5 177q4 25 24.5 40t45.5 11t41 -23.5t12 -44.5q-10 -66 -1 -159t23 -197q14 -115 25.5 -229.5t5.5 -223.5 q-4 -59 -13 -108t-26 -92q317 -80 463 53q92 84 109 252q16 164 -43 348q-23 74 -67 140.5t-104.5 121.5t-134 98t-155.5 68q-129 39 -248 24.5t-197 -77.5q-20 -16 -44.5 -14.5t-41.5 22.5q-16 20 -14 45t23 41q111 88 262 106q143 16 295 -30q186 -57 329 -185 q158 -141 213 -323q35 -104 47.5 -203.5t1.5 -191.5q-10 -106 -48 -190.5t-101 -143.5q-125 -113 -326 -115q-125 0 -278 43q-33 -39 -68 -65q-86 -68 -164 -76h-24q-63 0 -111 35q-45 35 -59.5 91zM199 92q-10 -35 14 -55q16 -14 54 -9t95 48q4 4 6.5 5t6.5 5 q-23 8 -43.5 15.5t-42.5 17.5q-9 2 -25 2q-49 0 -65 -29zM309 614q0 16 12.5 27.5t28.5 11.5q41 0 80 4t80 9q39 4 80 8t86 4q16 0 27.5 -12.5t11.5 -28.5t-11.5 -28.5t-27.5 -12.5q-41 0 -79 -3t-79 -7q-39 -4 -79 -8.5t-83 -4.5h-8q-16 0 -27.5 12.5t-11.5 28.5z" />
<glyph unicode="&#xd1;" horiz-adv-x="1110" d="M29 55q-4 25 12 45q111 152 169 491t54 828v29v10q2 29 19.5 44.5t38.5 17.5q25 2 43 -13.5t22 -40.5q2 -10 17.5 -70.5t43 -154.5t63.5 -214t77 -245q47 -141 90 -253.5t84 -198.5q23 -47 40 -82t34 -58q-41 262 -60.5 484.5t6.5 427.5q31 246 142 440q59 109 143 202 t197 179q20 16 44.5 12t41.5 -24q16 -20 12 -45t-25 -41q-201 -152 -301 -329t-129.5 -389t-4 -466t74.5 -559q6 -35 -25 -59q-28 -21 -63 -21q-25 0 -43 8q-55 25 -109 105q-23 33 -45 77t-47 97q-41 90 -86 206.5t-92 262.5q-23 72 -45.5 142.5t-42.5 135.5 q-6 -121 -19 -248q-29 -268 -84 -458.5t-137 -302.5q-16 -20 -40.5 -24.5t-45.5 11.5q-20 16 -24 41zM430 1588q10 78 28.5 118.5t53.5 55.5q43 18 94 -9q18 -10 36.5 -22t35.5 -27q16 -12 32.5 -23t32.5 -20q18 -10 29 -6l5 4t11 17.5t13.5 39t13.5 68.5q2 16 15.5 26.5 t29.5 8.5q16 -4 26.5 -16.5t8.5 -28.5q-10 -86 -32.5 -132t-57.5 -63q-47 -18 -90 6.5t-84 55.5q-16 12 -31.5 22.5t-30.5 18.5q-10 4 -16 5t-8 1q-6 -6 -13 -18q-4 -10 -10 -32t-10 -59q-2 -16 -13.5 -26t-27.5 -10h-4q-16 2 -27.5 15t-9.5 30z" />
<glyph unicode="&#xd2;" horiz-adv-x="1273" d="M57 598q-6 104 15.5 210.5t68.5 207.5q41 86 98.5 162.5t122.5 136.5q80 68 150 96q82 33 152 21q25 -4 39 -26t8 -46q-4 -27 -25.5 -40t-46.5 -9q-27 6 -78 -12.5t-117 -75.5q-49 -43 -99 -106.5t-89 -142.5t-60.5 -172t-15.5 -196q4 -78 32 -149.5t72 -133t103 -107.5 t129 -71q111 -39 213 -14t180 111q61 68 93 168t28 223q0 29 -2 55.5t-6 52.5q-119 -45 -234 -10q-53 16 -102 47t-84 76t-55.5 94t-22.5 96q-2 76 37 131.5t111 81.5q96 35 186 -5t162 -148q51 -78 82 -174q84 70 170 196q14 23 37.5 28t46.5 -9t28 -39t-10 -47 q-115 -170 -239 -256q16 -84 18 -168q4 -147 -36 -268t-118 -207q-109 -119 -251 -150q-25 -6 -49.5 -8t-51.5 -2q-86 0 -172 31q-82 29 -154.5 83t-130.5 128q-59 78 -93 168t-40 188zM514 1696q0 17 14 29q29 25 57 -4q29 -33 70 -67t78 -50q16 -8 22 -23.5t-2 -31.5 q-10 -23 -37 -23q-12 0 -16 2q-49 23 -97 63t-79 74q-10 14 -10 31zM647 1049q2 -29 14.5 -58.5t34.5 -58.5q49 -61 125 -84q88 -23 174 16q-31 98 -77 172q-29 41 -69 77t-93 36q-10 0 -21.5 -2t-21.5 -6q-68 -23 -66 -92z" />
<glyph unicode="&#xd3;" horiz-adv-x="1273" d="M57 598q-6 104 15.5 210.5t68.5 207.5q41 86 98.5 162.5t122.5 136.5q80 68 150 96q82 33 152 21q25 -4 39 -26t8 -46q-4 -27 -25.5 -40t-46.5 -9q-27 6 -78 -12.5t-117 -75.5q-49 -43 -99 -106.5t-89 -142.5t-60.5 -172t-15.5 -196q4 -78 32 -149.5t72 -133t103 -107.5 t129 -71q111 -39 213 -14t180 111q61 68 93 168t28 223q0 29 -2 55.5t-6 52.5q-119 -45 -234 -10q-53 16 -102 47t-84 76t-55.5 94t-22.5 96q-2 76 37 131.5t111 81.5q96 35 186 -5t162 -148q51 -78 82 -174q84 70 170 196q14 23 37.5 28t46.5 -9t28 -39t-10 -47 q-115 -170 -239 -256q16 -84 18 -168q4 -147 -36 -268t-118 -207q-109 -119 -251 -150q-25 -6 -49.5 -8t-51.5 -2q-86 0 -172 31q-82 29 -154.5 83t-130.5 128q-59 78 -93 168t-40 188zM519 1580.5q6 15.5 22 23.5q37 16 78 50t70 67q29 29 57 4q14 -12 14 -28.5t-10 -31.5 q-31 -35 -79 -74.5t-97 -62.5q-4 -2 -16 -2q-27 0 -37 23q-8 16 -2 31.5zM647 1049q2 -29 14.5 -58.5t34.5 -58.5q49 -61 125 -84q88 -23 174 16q-31 98 -77 172q-29 41 -69 77t-93 36q-10 0 -21.5 -2t-21.5 -6q-68 -23 -66 -92z" />
<glyph unicode="&#xd4;" horiz-adv-x="1273" d="M57 598q-6 104 15.5 210.5t68.5 207.5q41 86 98.5 162.5t122.5 136.5q80 68 150 96q82 33 152 21q25 -4 39 -26t8 -46q-4 -27 -25.5 -40t-46.5 -9q-27 6 -78 -12.5t-117 -75.5q-49 -43 -99 -106.5t-89 -142.5t-60.5 -172t-15.5 -196q4 -78 32 -149.5t72 -133t103 -107.5 t129 -71q111 -39 213 -14t180 111q61 68 93 168t28 223q0 29 -2 55.5t-6 52.5q-119 -45 -234 -10q-53 16 -102 47t-84 76t-55.5 94t-22.5 96q-2 76 37 131.5t111 81.5q96 35 186 -5t162 -148q51 -78 82 -174q84 70 170 196q14 23 37.5 28t46.5 -9t28 -39t-10 -47 q-115 -170 -239 -256q16 -84 18 -168q4 -147 -36 -268t-118 -207q-109 -119 -251 -150q-25 -6 -49.5 -8t-51.5 -2q-86 0 -172 31q-82 29 -154.5 83t-130.5 128q-59 78 -93 168t-40 188zM510 1590q35 90 51 127q10 25 21.5 42t32.5 21q6 2 23 0t34 -31q4 -6 7 -15t7 -19 q10 -25 26.5 -60t45.5 -69q10 -12 9 -30t-15 -28q-15 -10 -27 -10q-18 0 -31 16q-27 33 -44 64t-27 57q-8 -20 -17.5 -44.5t-19.5 -49.5q-6 -16 -21.5 -22.5t-31.5 -0.5t-22.5 20.5t-0.5 31.5zM647 1049q2 -29 14.5 -58.5t34.5 -58.5q49 -61 125 -84q88 -23 174 16 q-31 98 -77 172q-29 41 -69 77t-93 36q-10 0 -21.5 -2t-21.5 -6q-68 -23 -66 -92z" />
<glyph unicode="&#xd5;" horiz-adv-x="1273" d="M57 598q-6 104 15.5 210.5t68.5 207.5q41 86 98.5 162.5t122.5 136.5q80 68 150 96q82 33 152 21q25 -4 39 -26t8 -46q-4 -27 -25.5 -40t-46.5 -9q-27 6 -78 -12.5t-117 -75.5q-49 -43 -99 -106.5t-89 -142.5t-60.5 -172t-15.5 -196q4 -78 32 -149.5t72 -133t103 -107.5 t129 -71q111 -39 213 -14t180 111q61 68 93 168t28 223q0 29 -2 55.5t-6 52.5q-119 -45 -234 -10q-53 16 -102 47t-84 76t-55.5 94t-22.5 96q-2 76 37 131.5t111 81.5q96 35 186 -5t162 -148q51 -78 82 -174q84 70 170 196q14 23 37.5 28t46.5 -9t28 -39t-10 -47 q-115 -170 -239 -256q16 -84 18 -168q4 -147 -36 -268t-118 -207q-109 -119 -251 -150q-25 -6 -49.5 -8t-51.5 -2q-86 0 -172 31q-82 29 -154.5 83t-130.5 128q-59 78 -93 168t-40 188zM404 1588q10 78 28.5 118.5t53.5 55.5q43 18 94 -9q18 -10 36.5 -22t35.5 -27 q16 -12 32.5 -23t32.5 -20q18 -10 29 -6l5 4t11 17.5t13.5 39t13.5 68.5q2 16 15.5 26.5t29.5 8.5q16 -4 26.5 -16.5t8.5 -28.5q-10 -86 -32.5 -132t-57.5 -63q-47 -18 -90 6.5t-84 55.5q-16 12 -31.5 22.5t-30.5 18.5q-10 4 -16 5t-8 1q-6 -6 -13 -18q-4 -10 -10 -32 t-10 -59q-2 -16 -13.5 -26t-27.5 -10h-4q-16 2 -27.5 15t-9.5 30zM647 1049q2 -29 14.5 -58.5t34.5 -58.5q49 -61 125 -84q88 -23 174 16q-31 98 -77 172q-29 41 -69 77t-93 36q-10 0 -21.5 -2t-21.5 -6q-68 -23 -66 -92z" />
<glyph unicode="&#xd6;" horiz-adv-x="1273" d="M57 598q-6 104 15.5 210.5t68.5 207.5q41 86 98.5 162.5t122.5 136.5q80 68 150 96q82 33 152 21q25 -4 39 -26t8 -46q-4 -27 -25.5 -40t-46.5 -9q-27 6 -78 -12.5t-117 -75.5q-49 -43 -99 -106.5t-89 -142.5t-60.5 -172t-15.5 -196q4 -78 32 -149.5t72 -133t103 -107.5 t129 -71q111 -39 213 -14t180 111q61 68 93 168t28 223q0 29 -2 55.5t-6 52.5q-119 -45 -234 -10q-53 16 -102 47t-84 76t-55.5 94t-22.5 96q-2 76 37 131.5t111 81.5q96 35 186 -5t162 -148q51 -78 82 -174q84 70 170 196q14 23 37.5 28t46.5 -9t28 -39t-10 -47 q-115 -170 -239 -256q16 -84 18 -168q4 -147 -36 -268t-118 -207q-109 -119 -251 -150q-25 -6 -49.5 -8t-51.5 -2q-86 0 -172 31q-82 29 -154.5 83t-130.5 128q-59 78 -93 168t-40 188zM483 1592q0 25 16.5 41t39.5 16q25 0 41 -16t16 -41q0 -23 -16.5 -39.5t-40.5 -16.5 q-23 0 -39.5 16.5t-16.5 39.5zM647 1049q2 -29 14.5 -58.5t34.5 -58.5q49 -61 125 -84q88 -23 174 16q-31 98 -77 172q-29 41 -69 77t-93 36q-10 0 -21.5 -2t-21.5 -6q-68 -23 -66 -92zM676 1592q0 25 16.5 41t38.5 16q25 0 41.5 -16t16.5 -41q0 -23 -16.5 -39.5 t-41.5 -16.5q-23 0 -39 16.5t-16 39.5z" />
<glyph unicode="&#xd8;" horiz-adv-x="1273" d="M57 598q-6 104 15.5 210.5t68.5 207.5q41 86 98.5 162.5t122.5 136.5q80 68 150 96q82 33 152 21q25 -4 39 -26t8 -46q-4 -27 -25.5 -40t-46.5 -9q-27 6 -78 -12.5t-117 -75.5q-49 -43 -99 -106.5t-89 -142.5t-60.5 -172t-15.5 -196q4 -78 32 -149.5t72 -133t103 -107.5 t129 -71q111 -39 213 -14t180 111q61 68 93 168t28 223q0 29 -2 55.5t-6 52.5q-119 -45 -234 -10q-53 16 -102 47t-84 76t-55.5 94t-22.5 96q-2 76 37 131.5t111 81.5q96 35 186 -5t162 -148q51 -78 82 -174q84 70 170 196q14 23 37.5 28t46.5 -9t28 -39t-10 -47 q-115 -170 -239 -256q16 -84 18 -168q4 -147 -36 -268t-118 -207q-109 -119 -251 -150q-25 -6 -49.5 -8t-51.5 -2q-86 0 -172 31q-82 29 -154.5 83t-130.5 128q-59 78 -93 168t-40 188zM370 80q35 104 65 201.5t60 201.5q25 86 53.5 178.5t62.5 200t77 231.5t98 273 q10 23 33 34t47 1q23 -8 34 -31.5t1 -46.5q-55 -147 -97 -270t-76 -229.5t-62.5 -199t-53.5 -175.5q-29 -104 -59.5 -204t-67.5 -206q-6 -18 -22.5 -29.5t-34.5 -11.5q-8 0 -21 4q-25 8 -36 30.5t-1 47.5zM647 1049q2 -29 14.5 -58.5t34.5 -58.5q49 -61 125 -84 q88 -23 174 16q-31 98 -77 172q-29 41 -69 77t-93 36q-10 0 -21.5 -2t-21.5 -6q-68 -23 -66 -92z" />
<glyph unicode="&#xd9;" horiz-adv-x="1638" d="M72 1380q-10 23 0 47.5t32 34.5q23 10 46.5 0t33.5 -32q41 -94 47.5 -243t1.5 -319q-2 -133 0.5 -264t22.5 -239q18 -111 55 -168q35 -57 95 -74q51 -14 98 16q23 14 49.5 46t55 86.5t59 136t59.5 198.5q20 82 36.5 166t30 163t23.5 150.5t19 131.5q4 23 5 40t5 33 q2 23 6 39q10 37 32.5 45t33.5 8q10 0 31.5 -8t31.5 -45q4 -10 8 -37q4 -20 8 -46.5t11 -61.5q8 -66 21 -150t32.5 -178t44 -192.5t59.5 -190.5q154 -422 396 -422q27 0 44 -18.5t17 -42.5q0 -27 -17 -44.5t-44 -17.5q-182 0 -322 158q-106 121 -190 346q-47 127 -77 260 t-52 254q-14 -90 -33 -183t-41 -188q-53 -217 -121 -348t-152 -188q-94 -63 -198 -35q-104 25 -166 127q-53 80 -74 213q-23 117 -24.5 253t0.5 273q2 76 2 151t-3.5 142.5t-12.5 123.5t-25 93zM508 1696q0 17 14 29q29 25 57 -4q29 -33 70 -67t78 -50q16 -8 22 -23.5 t-2 -31.5q-10 -23 -37 -23q-12 0 -16 2q-49 23 -97 63t-79 74q-10 14 -10 31z" />
<glyph unicode="&#xda;" horiz-adv-x="1638" d="M72 1380q-10 23 0 47.5t32 34.5q23 10 46.5 0t33.5 -32q41 -94 47.5 -243t1.5 -319q-2 -133 0.5 -264t22.5 -239q18 -111 55 -168q35 -57 95 -74q51 -14 98 16q23 14 49.5 46t55 86.5t59 136t59.5 198.5q20 82 36.5 166t30 163t23.5 150.5t19 131.5q4 23 5 40t5 33 q2 23 6 39q10 37 32.5 45t33.5 8q10 0 31.5 -8t31.5 -45q4 -10 8 -37q4 -20 8 -46.5t11 -61.5q8 -66 21 -150t32.5 -178t44 -192.5t59.5 -190.5q154 -422 396 -422q27 0 44 -18.5t17 -42.5q0 -27 -17 -44.5t-44 -17.5q-182 0 -322 158q-106 121 -190 346q-47 127 -77 260 t-52 254q-14 -90 -33 -183t-41 -188q-53 -217 -121 -348t-152 -188q-94 -63 -198 -35q-104 25 -166 127q-53 80 -74 213q-23 117 -24.5 253t0.5 273q2 76 2 151t-3.5 142.5t-12.5 123.5t-25 93zM410 1580.5q6 15.5 22 23.5q37 16 78 50t70 67q29 29 57 4q14 -12 14 -28.5 t-10 -31.5q-31 -35 -79 -74.5t-97 -62.5q-4 -2 -16 -2q-27 0 -37 23q-8 16 -2 31.5z" />
<glyph unicode="&#xdb;" horiz-adv-x="1638" d="M72 1380q-10 23 0 47.5t32 34.5q23 10 46.5 0t33.5 -32q41 -94 47.5 -243t1.5 -319q-2 -133 0.5 -264t22.5 -239q18 -111 55 -168q35 -57 95 -74q51 -14 98 16q23 14 49.5 46t55 86.5t59 136t59.5 198.5q20 82 36.5 166t30 163t23.5 150.5t19 131.5q4 23 5 40t5 33 q2 23 6 39q10 37 32.5 45t33.5 8q10 0 31.5 -8t31.5 -45q4 -10 8 -37q4 -20 8 -46.5t11 -61.5q8 -66 21 -150t32.5 -178t44 -192.5t59.5 -190.5q154 -422 396 -422q27 0 44 -18.5t17 -42.5q0 -27 -17 -44.5t-44 -17.5q-182 0 -322 158q-106 121 -190 346q-47 127 -77 260 t-52 254q-14 -90 -33 -183t-41 -188q-53 -217 -121 -348t-152 -188q-94 -63 -198 -35q-104 25 -166 127q-53 80 -74 213q-23 117 -24.5 253t0.5 273q2 76 2 151t-3.5 142.5t-12.5 123.5t-25 93zM422 1590q35 90 51 127q10 25 21.5 42t32.5 21q6 2 23 0t34 -31q4 -6 7 -15 t7 -19q10 -25 26.5 -60t45.5 -69q10 -12 9 -30t-15 -28q-15 -10 -27 -10q-18 0 -31 16q-27 33 -44 64t-27 57q-8 -20 -17.5 -44.5t-19.5 -49.5q-6 -16 -21.5 -22.5t-31.5 -0.5t-22.5 20.5t-0.5 31.5z" />
<glyph unicode="&#xdc;" horiz-adv-x="1638" d="M72 1380q-10 23 0 47.5t32 34.5q23 10 46.5 0t33.5 -32q41 -94 47.5 -243t1.5 -319q-2 -133 0.5 -264t22.5 -239q18 -111 55 -168q35 -57 95 -74q51 -14 98 16q23 14 49.5 46t55 86.5t59 136t59.5 198.5q20 82 36.5 166t30 163t23.5 150.5t19 131.5q4 23 5 40t5 33 q2 23 6 39q10 37 32.5 45t33.5 8q10 0 31.5 -8t31.5 -45q4 -10 8 -37q4 -20 8 -46.5t11 -61.5q8 -66 21 -150t32.5 -178t44 -192.5t59.5 -190.5q154 -422 396 -422q27 0 44 -18.5t17 -42.5q0 -27 -17 -44.5t-44 -17.5q-182 0 -322 158q-106 121 -190 346q-47 127 -77 260 t-52 254q-14 -90 -33 -183t-41 -188q-53 -217 -121 -348t-152 -188q-94 -63 -198 -35q-104 25 -166 127q-53 80 -74 213q-23 117 -24.5 253t0.5 273q2 76 2 151t-3.5 142.5t-12.5 123.5t-25 93zM397 1592q0 25 16.5 41t39.5 16q25 0 41 -16t16 -41q0 -23 -16.5 -39.5 t-40.5 -16.5q-23 0 -39.5 16.5t-16.5 39.5zM590 1592q0 25 16.5 41t38.5 16q25 0 41.5 -16t16.5 -41q0 -23 -16.5 -39.5t-41.5 -16.5q-23 0 -39 16.5t-16 39.5z" />
<glyph unicode="&#xdd;" horiz-adv-x="1228" d="M33 1341q-10 25 1 47.5t34 32.5q133 51 231 52h2q102 0 170 -56q63 -55 92 -157q10 -41 14.5 -92.5t2.5 -110.5q-4 -106 -21.5 -224t-38.5 -235q-16 -90 -29.5 -171t-17.5 -148q-6 -86 3 -117t13 -35q0 -6 21 -4q92 12 199 153q92 125 186 349q33 78 59.5 153.5t48 143 t36 122t22.5 89.5q4 43 8 56t12 23q31 37 74 21q14 -6 26.5 -21.5t10.5 -40.5v-14q-2 -8 -4 -18.5t-6 -26.5q0 -10 -1 -20.5t-3 -20.5q-8 -66 -20.5 -170t-34 -230t-53.5 -265.5t-75 -272.5q-98 -307 -237 -473q-173 -207 -398 -207h-18q-27 2 -43 19.5t-16 44.5 q2 27 20.5 43t42.5 16q178 -8 316 162q129 154 217 434q25 72 44 145.5t35 147.5q-76 -156 -153 -266q-137 -180 -283 -197q-47 -6 -76.5 9.5t-46.5 31.5q-61 63 -49 244q4 72 18.5 155.5t30.5 175.5q20 115 37 229t21 214q6 205 -64 260q-76 63 -280 -14q-23 -10 -46.5 1 t-33.5 33zM596 1580.5q6 15.5 22 23.5q37 16 78 50t70 67q29 29 57 4q14 -12 14 -28.5t-10 -31.5q-31 -35 -79 -74.5t-97 -62.5q-4 -2 -16 -2q-27 0 -37 23q-8 16 -2 31.5z" />
<glyph unicode="&#xde;" horiz-adv-x="720" d="M70 1403q-4 25 11 45t42 25q25 4 44 -11.5t23 -42.5q4 -25 6.5 -42t4.5 -32.5t4 -32t4 -40.5q150 25 252 10q124 -20 192 -100q61 -76 58 -197q-6 -100 -58 -211q-35 -80 -91 -156.5t-122 -136.5q-39 -35 -90 -70.5t-112 -56.5q-2 -27 -2 -53.5v-52.5v-185 q0 -27 -18.5 -44t-43.5 -17q-27 0 -44 17.5t-17 43.5v187q0 23 1 46t1 48q-35 14 -35 51q-4 43 35 60q0 125 -1 241.5t-5.5 232t-13.5 233.5t-25 241zM219 1149q10 -166 14.5 -331t4.5 -331q57 27 120 84q57 53 104.5 118.5t80.5 135.5q41 90 45 164t-31 115 q-37 47 -124 58.5t-214 -13.5z" />
<glyph unicode="&#xdf;" horiz-adv-x="892" d="M76 74q18 119 18 269.5t-4 305.5q-2 100 -3 191.5t2 170.5t13.5 141t32.5 103q10 18 29 27q125 57 207 64q66 6 104.5 -12.5t61.5 -39.5q74 -76 45 -243q-23 -121 -103 -295q55 -10 105.5 -28.5t91.5 -47.5q106 -70 153 -178q37 -94 23 -193q-16 -102 -80 -176 q-74 -86 -184 -117q-61 -18 -127 -18q-68 0 -137 18q-25 6 -38.5 28t-6.5 46q4 25 26.5 38t46.5 7q104 -25 188.5 -4t137.5 82q43 51 53 115.5t-14 126.5q-35 82 -122 131t-212 59q-35 4 -49 31t-2 57q104 205 129 340q18 100 -12 135q-16 16 -67.5 14.5t-143.5 -42.5 q-10 -29 -16.5 -75t-10.5 -112q-4 -74 -3 -161t5 -181q4 -160 4 -314.5t-20 -283.5q-4 -25 -24.5 -40t-45.5 -11q-27 4 -41 24.5t-10 47.5z" />
<glyph unicode="&#xe0;" horiz-adv-x="1236" d="M51 481q14 141 47 251t82 188q92 141 236 170q59 12 116.5 0.5t106.5 -37t88 -63.5t61 -79q10 -23 3 -47t-29 -37q-23 -10 -47.5 -3t-36.5 30q-14 27 -40 51.5t-57.5 41t-68.5 23.5t-74 -1q-90 -16 -153 -117q-86 -129 -111 -383q-14 -147 4 -244q16 -70 47 -92 q29 -18 74 2q47 23 95 76t89 125q35 61 72 161.5t49 235.5q0 14 2 21q4 27 22.5 39t37.5 14h2q16 0 34.5 -10.5t26.5 -38.5q2 -4 2 -9.5t2 -11.5q2 -10 3 -21t5 -28q8 -59 22.5 -148t43.5 -175q27 -90 59.5 -143.5t67.5 -63.5q31 -10 77 19.5t99 94.5q16 20 41 22.5 t45 -13.5t22.5 -41t-14.5 -45q-82 -98 -151 -134q-78 -41 -152 -22q-137 39 -213 291q-8 25 -14 50.5t-12 49.5q-16 -47 -35 -85t-35 -69q-53 -92 -114.5 -157.5t-127.5 -93.5q-51 -23 -96 -23q-55 0 -100 31q-70 51 -95 166q-25 111 -8 282zM353 1286q0 17 14 29 q29 25 57 -4q29 -33 70 -67t78 -50q16 -8 22 -23.5t-2 -31.5q-10 -23 -37 -23q-12 0 -16 2q-49 23 -97 63t-79 74q-10 14 -10 31z" />
<glyph unicode="&#xe1;" horiz-adv-x="1236" d="M51 481q14 141 47 251t82 188q92 141 236 170q59 12 116.5 0.5t106.5 -37t88 -63.5t61 -79q10 -23 3 -47t-29 -37q-23 -10 -47.5 -3t-36.5 30q-14 27 -40 51.5t-57.5 41t-68.5 23.5t-74 -1q-90 -16 -153 -117q-86 -129 -111 -383q-14 -147 4 -244q16 -70 47 -92 q29 -18 74 2q47 23 95 76t89 125q35 61 72 161.5t49 235.5q0 14 2 21q4 27 22.5 39t37.5 14h2q16 0 34.5 -10.5t26.5 -38.5q2 -4 2 -9.5t2 -11.5q2 -10 3 -21t5 -28q8 -59 22.5 -148t43.5 -175q27 -90 59.5 -143.5t67.5 -63.5q31 -10 77 19.5t99 94.5q16 20 41 22.5 t45 -13.5t22.5 -41t-14.5 -45q-82 -98 -151 -134q-78 -41 -152 -22q-137 39 -213 291q-8 25 -14 50.5t-12 49.5q-16 -47 -35 -85t-35 -69q-53 -92 -114.5 -157.5t-127.5 -93.5q-51 -23 -96 -23q-55 0 -100 31q-70 51 -95 166q-25 111 -8 282zM332 1170.5q6 15.5 22 23.5 q37 16 78 50t70 67q29 29 57 4q14 -12 14 -28.5t-10 -31.5q-31 -35 -79 -74.5t-97 -62.5q-4 -2 -16 -2q-27 0 -37 23q-8 16 -2 31.5z" />
<glyph unicode="&#xe2;" horiz-adv-x="1236" d="M51 481q14 141 47 251t82 188q92 141 236 170q59 12 116.5 0.5t106.5 -37t88 -63.5t61 -79q10 -23 3 -47t-29 -37q-23 -10 -47.5 -3t-36.5 30q-14 27 -40 51.5t-57.5 41t-68.5 23.5t-74 -1q-90 -16 -153 -117q-86 -129 -111 -383q-14 -147 4 -244q16 -70 47 -92 q29 -18 74 2q47 23 95 76t89 125q35 61 72 161.5t49 235.5q0 14 2 21q4 27 22.5 39t37.5 14h2q16 0 34.5 -10.5t26.5 -38.5q2 -4 2 -9.5t2 -11.5q2 -10 3 -21t5 -28q8 -59 22.5 -148t43.5 -175q27 -90 59.5 -143.5t67.5 -63.5q31 -10 77 19.5t99 94.5q16 20 41 22.5 t45 -13.5t22.5 -41t-14.5 -45q-82 -98 -151 -134q-78 -41 -152 -22q-137 39 -213 291q-8 25 -14 50.5t-12 49.5q-16 -47 -35 -85t-35 -69q-53 -92 -114.5 -157.5t-127.5 -93.5q-51 -23 -96 -23q-55 0 -100 31q-70 51 -95 166q-25 111 -8 282zM364 1180q35 90 51 127 q10 25 21.5 42t32.5 21q6 2 23 0t34 -31q4 -6 7 -15t7 -19q10 -25 26.5 -60t45.5 -69q10 -12 9 -30t-15 -28q-15 -10 -27 -10q-18 0 -31 16q-27 33 -44 64t-27 57q-8 -20 -17.5 -44.5t-19.5 -49.5q-6 -16 -21.5 -22.5t-31.5 -0.5t-22.5 20.5t-0.5 31.5z" />
<glyph unicode="&#xe3;" horiz-adv-x="1236" d="M51 481q14 141 47 251t82 188q92 141 236 170q59 12 116.5 0.5t106.5 -37t88 -63.5t61 -79q10 -23 3 -47t-29 -37q-23 -10 -47.5 -3t-36.5 30q-14 27 -40 51.5t-57.5 41t-68.5 23.5t-74 -1q-90 -16 -153 -117q-86 -129 -111 -383q-14 -147 4 -244q16 -70 47 -92 q29 -18 74 2q47 23 95 76t89 125q35 61 72 161.5t49 235.5q0 14 2 21q4 27 22.5 39t37.5 14h2q16 0 34.5 -10.5t26.5 -38.5q2 -4 2 -9.5t2 -11.5q2 -10 3 -21t5 -28q8 -59 22.5 -148t43.5 -175q27 -90 59.5 -143.5t67.5 -63.5q31 -10 77 19.5t99 94.5q16 20 41 22.5 t45 -13.5t22.5 -41t-14.5 -45q-82 -98 -151 -134q-78 -41 -152 -22q-137 39 -213 291q-8 25 -14 50.5t-12 49.5q-16 -47 -35 -85t-35 -69q-53 -92 -114.5 -157.5t-127.5 -93.5q-51 -23 -96 -23q-55 0 -100 31q-70 51 -95 166q-25 111 -8 282zM223 1178q10 78 28.5 118.5 t53.5 55.5q43 18 94 -9q18 -10 36.5 -22t35.5 -27q16 -12 32.5 -23t32.5 -20q18 -10 29 -6l5 4t11 17.5t13.5 39t13.5 68.5q2 16 15.5 26.5t29.5 8.5q16 -4 26.5 -16.5t8.5 -28.5q-10 -86 -32.5 -132t-57.5 -63q-47 -18 -90 6.5t-84 55.5q-16 12 -31.5 22.5t-30.5 18.5 q-10 4 -16 5t-8 1q-6 -6 -13 -18q-4 -10 -10 -32t-10 -59q-2 -16 -13.5 -26t-27.5 -10h-4q-16 2 -27.5 15t-9.5 30z" />
<glyph unicode="&#xe4;" horiz-adv-x="1236" d="M51 481q14 141 47 251t82 188q92 141 236 170q59 12 116.5 0.5t106.5 -37t88 -63.5t61 -79q10 -23 3 -47t-29 -37q-23 -10 -47.5 -3t-36.5 30q-14 27 -40 51.5t-57.5 41t-68.5 23.5t-74 -1q-90 -16 -153 -117q-86 -129 -111 -383q-14 -147 4 -244q16 -70 47 -92 q29 -18 74 2q47 23 95 76t89 125q35 61 72 161.5t49 235.5q0 14 2 21q4 27 22.5 39t37.5 14h2q16 0 34.5 -10.5t26.5 -38.5q2 -4 2 -9.5t2 -11.5q2 -10 3 -21t5 -28q8 -59 22.5 -148t43.5 -175q27 -90 59.5 -143.5t67.5 -63.5q31 -10 77 19.5t99 94.5q16 20 41 22.5 t45 -13.5t22.5 -41t-14.5 -45q-82 -98 -151 -134q-78 -41 -152 -22q-137 39 -213 291q-8 25 -14 50.5t-12 49.5q-16 -47 -35 -85t-35 -69q-53 -92 -114.5 -157.5t-127.5 -93.5q-51 -23 -96 -23q-55 0 -100 31q-70 51 -95 166q-25 111 -8 282zM299 1182q0 25 16.5 41t39.5 16 q25 0 41 -16t16 -41q0 -23 -16.5 -39.5t-40.5 -16.5q-23 0 -39.5 16.5t-16.5 39.5zM492 1182q0 25 16.5 41t38.5 16q25 0 41.5 -16t16.5 -41q0 -23 -16.5 -39.5t-41.5 -16.5q-23 0 -39 16.5t-16 39.5z" />
<glyph unicode="&#xe5;" horiz-adv-x="1236" d="M51 481q14 141 47 251t82 188q92 141 236 170q59 12 116.5 0.5t106.5 -37t88 -63.5t61 -79q10 -23 3 -47t-29 -37q-23 -10 -47.5 -3t-36.5 30q-14 27 -40 51.5t-57.5 41t-68.5 23.5t-74 -1q-90 -16 -153 -117q-86 -129 -111 -383q-14 -147 4 -244q16 -70 47 -92 q29 -18 74 2q47 23 95 76t89 125q35 61 72 161.5t49 235.5q0 14 2 21q4 27 22.5 39t37.5 14h2q16 0 34.5 -10.5t26.5 -38.5q2 -4 2 -9.5t2 -11.5q2 -10 3 -21t5 -28q8 -59 22.5 -148t43.5 -175q27 -90 59.5 -143.5t67.5 -63.5q31 -10 77 19.5t99 94.5q16 20 41 22.5 t45 -13.5t22.5 -41t-14.5 -45q-82 -98 -151 -134q-78 -41 -152 -22q-137 39 -213 291q-8 25 -14 50.5t-12 49.5q-16 -47 -35 -85t-35 -69q-53 -92 -114.5 -157.5t-127.5 -93.5q-51 -23 -96 -23q-55 0 -100 31q-70 51 -95 166q-25 111 -8 282zM301 1241q2 43 41 80t115 37h4 q72 0 111.5 -35t46.5 -76q6 -41 -25 -75q-14 -16 -44 -31.5t-85 -15.5h-2q-55 2 -86 16t-47 31q-29 29 -29 69zM383 1239q0 -6 6 -12q4 -4 20.5 -12.5t53.5 -8.5h2q37 0 51.5 7.5t18.5 11.5q4 8 4 12q-2 12 -21.5 26.5t-56.5 14.5h-4q-37 -2 -55.5 -14t-18.5 -25z" />
<glyph unicode="&#xe6;" horiz-adv-x="1490" d="M72 481q14 141 47 251t82 188q92 141 235 170q59 12 116.5 0.5t107 -37t88 -63.5t61.5 -79q4 -12 4 -14l10 10q57 68 129 105t144 30q115 -10 182 -120q61 -109 65 -289q0 -25 -16 -43.5t-41 -20.5q-20 -2 -60 -10t-103.5 -33.5t-152.5 -72.5t-208 -123q18 -143 135 -187 q49 -16 107.5 -13t115.5 28q131 57 205 186q12 23 36.5 30t47.5 -7q23 -12 29 -36t-6 -46q-45 -82 -113 -143.5t-150 -96.5q-39 -16 -78.5 -25.5t-80.5 -11.5q-9 -2 -25 -2q-68 0 -129 23q-127 47 -184 172q-14 29 -22.5 59.5t-12.5 65.5q-12 -29 -25 -50 q-53 -92 -114.5 -157.5t-126.5 -93.5q-51 -23 -97 -23q-55 0 -100 31q-70 51 -94 166q-25 111 -8 282zM195 469q-14 -147 4 -244q16 -70 47 -92q29 -18 73 2q47 23 95.5 76t89.5 125q35 61 71.5 161.5t49.5 235.5q0 14 2 21q4 27 22.5 39t36.5 14h2q12 0 25.5 -5t23.5 -20 q6 10 11.5 19.5t11.5 19.5q-18 -2 -35 6.5t-27 26.5q-14 27 -39.5 51.5t-57.5 41t-68.5 23.5t-73.5 -1q-90 -16 -154 -117q-86 -129 -110 -383zM766 477q135 84 249.5 136.5t203.5 70.5q-10 106 -45 168.5t-89 67.5q-4 0 -5 1t-5 1q-37 0 -79 -25t-81 -72q-53 -59 -90 -143 t-57 -184q0 -4 -1 -10.5t-1 -10.5z" />
<glyph unicode="&#xe7;" horiz-adv-x="827" d="M50 587.5q13 112.5 56 217.5q41 98 103 166q63 74 139 98q20 6 55 10t75 -11t83 -56t80 -121q10 -23 1 -47.5t-32 -34.5t-47 -1t-35 32q-61 137 -143 112q-43 -14 -88 -67.5t-78 -130t-46 -171t5 -188.5q23 -123 87.5 -195.5t146.5 -74.5h2q35 0 73.5 17.5t74.5 56.5 t68 102.5t52 155.5q6 25 27.5 38t46.5 7q25 -4 38 -25.5t7 -48.5q-23 -102 -61 -181t-91 -136q-104 -109 -235 -109h-4q-125 0 -224 102q-47 49 -79.5 117t-49.5 150q-20 104 -7 216.5zM281 -291q0 16 13 27.5t30 9.5q66 -4 99.5 6t41.5 27q6 10 1 24.5t-9 18.5 q-14 18 -41 33.5t-60 9.5q-23 -4 -35 12q-18 18 -25 36.5t-6 34t7 29t10 23.5q4 8 8 20q4 16 18.5 24.5t31.5 4.5q37 -10 30 -49q-4 -10 -7 -19.5t-7 -17.5q-4 -4 -5 -7t-3 -7q51 -2 90 -25.5t61 -56.5q45 -68 13 -129q-16 -27 -56.5 -50.5t-126.5 -23.5h-18t-19 2 q-16 0 -27.5 13.5t-8.5 29.5z" />
<glyph unicode="&#xe8;" horiz-adv-x="880" d="M70 520q23 117 66.5 216.5t107.5 170.5q57 68 129 105t143 30q115 -10 182 -120q61 -109 66 -289q0 -25 -16.5 -43.5t-40.5 -20.5q-20 -2 -60.5 -10t-104 -33.5t-152.5 -72.5t-208 -123q18 -143 135 -187q49 -16 107.5 -13t116.5 28q131 57 204 186q12 23 37 30t47 -7 q23 -12 29 -36t-6 -46q-45 -82 -112.5 -143.5t-149.5 -96.5q-39 -16 -79 -25.5t-81 -11.5q-8 -2 -24 -2q-68 0 -130 23q-127 47 -184 172q-59 131 -22 319zM186 477q135 84 250 136.5t203 70.5q-10 106 -45 168.5t-88 67.5q-4 0 -5 1t-5 1q-37 0 -79 -25t-81 -72 q-53 -59 -90 -143t-58 -184q0 -4 -1 -10.5t-1 -10.5zM318 1286q0 17 14 29q29 25 57 -4q29 -33 70 -67t78 -50q16 -8 22 -23.5t-2 -31.5q-10 -23 -37 -23q-12 0 -16 2q-49 23 -97 63t-79 74q-10 14 -10 31z" />
<glyph unicode="&#xe9;" horiz-adv-x="880" d="M70 520q23 117 66.5 216.5t107.5 170.5q57 68 129 105t143 30q115 -10 182 -120q61 -109 66 -289q0 -25 -16.5 -43.5t-40.5 -20.5q-20 -2 -60.5 -10t-104 -33.5t-152.5 -72.5t-208 -123q18 -143 135 -187q49 -16 107.5 -13t116.5 28q131 57 204 186q12 23 37 30t47 -7 q23 -12 29 -36t-6 -46q-45 -82 -112.5 -143.5t-149.5 -96.5q-39 -16 -79 -25.5t-81 -11.5q-8 -2 -24 -2q-68 0 -130 23q-127 47 -184 172q-59 131 -22 319zM186 477q135 84 250 136.5t203 70.5q-10 106 -45 168.5t-88 67.5q-4 0 -5 1t-5 1q-37 0 -79 -25t-81 -72 q-53 -59 -90 -143t-58 -184q0 -4 -1 -10.5t-1 -10.5zM322 1170.5q6 15.5 22 23.5q37 16 78 50t70 67q29 29 57 4q14 -12 14 -28.5t-10 -31.5q-31 -35 -79 -74.5t-97 -62.5q-4 -2 -16 -2q-27 0 -37 23q-8 16 -2 31.5z" />
<glyph unicode="&#xea;" horiz-adv-x="880" d="M70 520q23 117 66.5 216.5t107.5 170.5q57 68 129 105t143 30q115 -10 182 -120q61 -109 66 -289q0 -25 -16.5 -43.5t-40.5 -20.5q-20 -2 -60.5 -10t-104 -33.5t-152.5 -72.5t-208 -123q18 -143 135 -187q49 -16 107.5 -13t116.5 28q131 57 204 186q12 23 37 30t47 -7 q23 -12 29 -36t-6 -46q-45 -82 -112.5 -143.5t-149.5 -96.5q-39 -16 -79 -25.5t-81 -11.5q-8 -2 -24 -2q-68 0 -130 23q-127 47 -184 172q-59 131 -22 319zM186 477q135 84 250 136.5t203 70.5q-10 106 -45 168.5t-88 67.5q-4 0 -5 1t-5 1q-37 0 -79 -25t-81 -72 q-53 -59 -90 -143t-58 -184q0 -4 -1 -10.5t-1 -10.5zM313 1180q35 90 51 127q10 25 21.5 42t32.5 21q6 2 23 0t34 -31q4 -6 7 -15t7 -19q10 -25 26.5 -60t45.5 -69q10 -12 9 -30t-15 -28q-15 -10 -27 -10q-18 0 -31 16q-27 33 -44 64t-27 57q-8 -20 -17.5 -44.5t-19.5 -49.5 q-6 -16 -21.5 -22.5t-31.5 -0.5t-22.5 20.5t-0.5 31.5z" />
<glyph unicode="&#xeb;" horiz-adv-x="880" d="M70 520q23 117 66.5 216.5t107.5 170.5q57 68 129 105t143 30q115 -10 182 -120q61 -109 66 -289q0 -25 -16.5 -43.5t-40.5 -20.5q-20 -2 -60.5 -10t-104 -33.5t-152.5 -72.5t-208 -123q18 -143 135 -187q49 -16 107.5 -13t116.5 28q131 57 204 186q12 23 37 30t47 -7 q23 -12 29 -36t-6 -46q-45 -82 -112.5 -143.5t-149.5 -96.5q-39 -16 -79 -25.5t-81 -11.5q-8 -2 -24 -2q-68 0 -130 23q-127 47 -184 172q-59 131 -22 319zM186 477q135 84 250 136.5t203 70.5q-10 106 -45 168.5t-88 67.5q-4 0 -5 1t-5 1q-37 0 -79 -25t-81 -72 q-53 -59 -90 -143t-58 -184q0 -4 -1 -10.5t-1 -10.5zM286 1182q0 25 16.5 41t39.5 16q25 0 41 -16t16 -41q0 -23 -16.5 -39.5t-40.5 -16.5q-23 0 -39.5 16.5t-16.5 39.5zM479 1182q0 25 16.5 41t38.5 16q25 0 41.5 -16t16.5 -41q0 -23 -16.5 -39.5t-41.5 -16.5 q-23 0 -39 16.5t-16 39.5z" />
<glyph unicode="&#xec;" horiz-adv-x="348" d="M-100 1265.5q0 16.5 14 28.5q29 25 57 -4q29 -33 70 -66.5t78 -49.5q16 -8 22 -23.5t-2 -32.5q-10 -22 -37 -22q-12 0 -16 2q-49 23 -97 62.5t-79 74.5q-10 14 -10 30.5zM41 612.5q0 -133.5 16 -237.5q10 -57 23.5 -107.5t36.5 -95.5q41 -88 112 -160q18 -18 43 -18 q27 0 43 18q18 18 18 44t-18 42q-53 53 -86.5 124t-50 169t-15.5 226t19 296q2 25 -14 44.5t-41 23.5q-25 2 -44.5 -14.5t-23.5 -40.5q-18 -180 -18 -313.5z" />
<glyph unicode="&#xed;" horiz-adv-x="348" d="M41 612q0 133 18 314q4 25 23.5 41t44.5 14q25 -4 41 -23.5t14 -44.5q-18 -168 -19 -296t15.5 -226t50 -169t86.5 -124q18 -16 18.5 -41.5t-18.5 -44.5q-16 -18 -43 -18q-25 0 -43 18q-72 72 -112 160q-23 45 -36 95t-24 108q-16 104 -16 237zM88 1149.5q6 15.5 23 24.5 q37 16 77.5 49.5t69.5 66.5q29 29 57 4q14 -12 14.5 -28.5t-10.5 -30.5q-31 -35 -78.5 -75t-97.5 -62q-4 -2 -16 -2q-27 0 -37 22q-8 16 -2 31.5z" />
<glyph unicode="&#xee;" horiz-adv-x="348" d="M0 1141q35 90 51 127q10 25 21.5 42t31.5 21q6 2 23.5 0t34.5 -31q4 -6 7 -15t7 -19q10 -25 26.5 -60t45.5 -69q10 -12 9 -29.5t-15 -28.5q-15 -10 -27 -10q-18 0 -31 16q-27 33 -44 64t-27 57q-8 -20 -17.5 -44.5t-19.5 -49.5q-6 -16 -21.5 -22.5t-31.5 0.5 q-16 6 -22.5 20t-0.5 31zM41 612.5q0 -133.5 16 -237.5q10 -57 23.5 -107.5t36.5 -95.5q41 -88 112 -160q18 -18 43 -18q27 0 43 18q18 18 18 44t-18 42q-53 53 -86.5 124t-50 169t-15.5 226t19 296q2 25 -14 44.5t-41 23.5q-25 2 -44.5 -14.5t-23.5 -40.5 q-18 -180 -18 -313.5z" />
<glyph unicode="&#xef;" horiz-adv-x="348" d="M-29 1182q0 25 16.5 41t39.5 16q25 0 41 -16t16 -41q0 -23 -16.5 -39.5t-40.5 -16.5q-23 0 -39.5 16.5t-16.5 39.5zM41 612.5q0 -133.5 16 -237.5q10 -57 23.5 -107.5t36.5 -95.5q41 -88 112 -160q18 -18 43 -18q27 0 43 18q18 18 18 44t-18 42q-53 53 -86.5 124t-50 169 t-15.5 226t19 296q2 25 -14 44.5t-41 23.5q-25 2 -44.5 -14.5t-23.5 -40.5q-18 -180 -18 -313.5zM164 1182q0 25 16.5 41t38.5 16q25 0 41 -16t16 -41q0 -23 -16 -39.5t-41 -16.5q-23 0 -39 16.5t-16 39.5z" />
<glyph unicode="&#xf0;" horiz-adv-x="880" d="M41 379q4 55 25.5 107.5t58.5 99.5q39 45 88 75.5t104 43.5q121 31 242 -27q78 -41 141 -113q8 129 -15 264.5t-85 245.5q-135 244 -385 201q-25 -4 -45 10t-25 41q-4 25 10.5 45.5t39.5 24.5q162 29 294 -39t218 -223q59 -111 90.5 -250.5t27.5 -286.5t-40.5 -268 t-100.5 -193q-92 -104 -207 -133q-45 -10 -80 -10q-63 0 -125 24q-106 45 -170 144q-68 102 -61 217zM164 373q-2 -37 9 -74t31.5 -69.5t50.5 -58.5t64 -40q143 -57 273 88q29 31 48.5 75t35.5 99q-72 117 -155 166t-173 27q-76 -18 -128 -79t-56 -134zM334 1181.5 q4 24.5 26 41.5q33 25 55.5 45t42 39.5t42 41t57.5 46.5q23 16 47.5 12t38.5 -25q14 -20 12 -43.5t-22 -40.5q-35 -25 -57.5 -46t-42 -40.5t-42 -41t-55.5 -46.5q-4 0 -4 -2q-23 -16 -46.5 -12t-39.5 27q-16 20 -12 44.5z" />
<glyph unicode="&#xf1;" horiz-adv-x="1277" d="M61 960.5q7 24.5 29 36.5q23 12 47.5 5t36.5 -29q43 -82 70.5 -171t42.5 -200q25 88 55 158q98 242 213 284q70 29 131 -20q66 -53 86.5 -192.5t-10.5 -335.5q-35 -205 16 -318q33 -78 105 -94q76 -12 147 37q78 53 100 137q4 27 26 40t48 7q25 -6 38 -27.5t7 -46.5 q-16 -63 -54 -118.5t-95 -92.5q-43 -31 -92.5 -46t-96.5 -15q-14 0 -26.5 1t-26.5 3q-133 29 -192 166q-66 145 -25 385q25 174 10 293q-10 70 -24.5 94.5t-18.5 28.5q-4 2 -10 0q-4 -2 -16.5 -10.5t-31 -31t-43 -64.5t-52.5 -109q-47 -121 -89 -289t-77 -377 q-4 -23 -23.5 -38t-42.5 -13q-25 4 -41 22.5t-14 42.5q8 141 9 263.5t-9 226.5t-34.5 193.5t-67.5 166.5q-12 23 -5 47.5zM346 1178q10 78 28.5 118.5t53.5 55.5q43 18 94 -9q18 -10 36.5 -22t35.5 -27q16 -12 32.5 -23t32.5 -20q18 -10 29 -6l5 4t11 17.5t13.5 39 t13.5 68.5q2 16 15.5 26.5t29.5 8.5q16 -4 26.5 -16.5t8.5 -28.5q-10 -86 -32.5 -132t-57.5 -63q-47 -18 -90 6.5t-84 55.5q-16 12 -31.5 22.5t-30.5 18.5q-10 4 -16 5t-8 1q-6 -6 -13 -18q-4 -10 -10 -32t-10 -59q-2 -16 -13.5 -26t-27.5 -10h-4q-16 2 -27.5 15t-9.5 30z " />
<glyph unicode="&#xf2;" horiz-adv-x="921" d="M60.5 299q-21.5 104 0.5 227q16 86 51 166t87 144q57 70 120 106q74 43 154 43h8q78 -4 148.5 -41t126.5 -108q100 -129 123 -306q6 -53 4 -101t-15 -95q-20 -102 -86 -180q-53 -66 -134 -104t-181 -46q-10 -2 -20.5 -2h-20.5q-186 0 -285 121q-59 72 -80.5 176z M180.5 331q14.5 -79 55.5 -130q63 -76 190 -76h15.5t17.5 2q150 8 229 104q43 53 60.5 127t7.5 158q-8 68 -33 131.5t-64 112.5q-29 35 -72.5 67.5t-107.5 34.5h-6q-53 0 -100 -31.5t-86 -82t-65.5 -115t-39.5 -129.5q-16 -94 -1.5 -173zM338 1286q0 17 14 29q29 25 57 -4 q29 -33 70 -67t78 -50q16 -8 22 -23.5t-2 -31.5q-10 -23 -37 -23q-12 0 -16 2q-49 23 -97 63t-79 74q-10 14 -10 31z" />
<glyph unicode="&#xf3;" horiz-adv-x="921" d="M60.5 299q-21.5 104 0.5 227q16 86 51 166t87 144q57 70 120 106q74 43 154 43h8q78 -4 148.5 -41t126.5 -108q100 -129 123 -306q6 -53 4 -101t-15 -95q-20 -102 -86 -180q-53 -66 -134 -104t-181 -46q-10 -2 -20.5 -2h-20.5q-186 0 -285 121q-59 72 -80.5 176z M180.5 331q14.5 -79 55.5 -130q63 -76 190 -76h15.5t17.5 2q150 8 229 104q43 53 60.5 127t7.5 158q-8 68 -33 131.5t-64 112.5q-29 35 -72.5 67.5t-107.5 34.5h-6q-53 0 -100 -31.5t-86 -82t-65.5 -115t-39.5 -129.5q-16 -94 -1.5 -173zM342 1170.5q6 15.5 22 23.5 q37 16 78 50t70 67q29 29 57 4q14 -12 14 -28.5t-10 -31.5q-31 -35 -79 -74.5t-97 -62.5q-4 -2 -16 -2q-27 0 -37 23q-8 16 -2 31.5z" />
<glyph unicode="&#xf4;" horiz-adv-x="921" d="M60.5 299q-21.5 104 0.5 227q16 86 51 166t87 144q57 70 120 106q74 43 154 43h8q78 -4 148.5 -41t126.5 -108q100 -129 123 -306q6 -53 4 -101t-15 -95q-20 -102 -86 -180q-53 -66 -134 -104t-181 -46q-10 -2 -20.5 -2h-20.5q-186 0 -285 121q-59 72 -80.5 176z M180.5 331q14.5 -79 55.5 -130q63 -76 190 -76h15.5t17.5 2q150 8 229 104q43 53 60.5 127t7.5 158q-8 68 -33 131.5t-64 112.5q-29 35 -72.5 67.5t-107.5 34.5h-6q-53 0 -100 -31.5t-86 -82t-65.5 -115t-39.5 -129.5q-16 -94 -1.5 -173zM334 1180q35 90 51 127 q10 25 21.5 42t32.5 21q6 2 23 0t34 -31q4 -6 7 -15t7 -19q10 -25 26.5 -60t45.5 -69q10 -12 9 -30t-15 -28q-15 -10 -27 -10q-18 0 -31 16q-27 33 -44 64t-27 57q-8 -20 -17.5 -44.5t-19.5 -49.5q-6 -16 -21.5 -22.5t-31.5 -0.5t-22.5 20.5t-0.5 31.5z" />
<glyph unicode="&#xf5;" horiz-adv-x="921" d="M60.5 299q-21.5 104 0.5 227q16 86 51 166t87 144q57 70 120 106q74 43 154 43h8q78 -4 148.5 -41t126.5 -108q100 -129 123 -306q6 -53 4 -101t-15 -95q-20 -102 -86 -180q-53 -66 -134 -104t-181 -46q-10 -2 -20.5 -2h-20.5q-186 0 -285 121q-59 72 -80.5 176z M180.5 331q14.5 -79 55.5 -130q63 -76 190 -76h15.5t17.5 2q150 8 229 104q43 53 60.5 127t7.5 158q-8 68 -33 131.5t-64 112.5q-29 35 -72.5 67.5t-107.5 34.5h-6q-53 0 -100 -31.5t-86 -82t-65.5 -115t-39.5 -129.5q-16 -94 -1.5 -173zM227 1178q10 78 28.5 118.5 t53.5 55.5q43 18 94 -9q18 -10 36.5 -22t35.5 -27q16 -12 32.5 -23t32.5 -20q18 -10 29 -6l5 4t11 17.5t13.5 39t13.5 68.5q2 16 15.5 26.5t29.5 8.5q16 -4 26.5 -16.5t8.5 -28.5q-10 -86 -32.5 -132t-57.5 -63q-47 -18 -90 6.5t-84 55.5q-16 12 -31.5 22.5t-30.5 18.5 q-10 4 -16 5t-8 1q-6 -6 -13 -18q-4 -10 -10 -32t-10 -59q-2 -16 -13.5 -26t-27.5 -10h-4q-16 2 -27.5 15t-9.5 30z" />
<glyph unicode="&#xf6;" horiz-adv-x="921" d="M60.5 299q-21.5 104 0.5 227q16 86 51 166t87 144q57 70 120 106q74 43 154 43h8q78 -4 148.5 -41t126.5 -108q100 -129 123 -306q6 -53 4 -101t-15 -95q-20 -102 -86 -180q-53 -66 -134 -104t-181 -46q-10 -2 -20.5 -2h-20.5q-186 0 -285 121q-59 72 -80.5 176z M180.5 331q14.5 -79 55.5 -130q63 -76 190 -76h15.5t17.5 2q150 8 229 104q43 53 60.5 127t7.5 158q-8 68 -33 131.5t-64 112.5q-29 35 -72.5 67.5t-107.5 34.5h-6q-53 0 -100 -31.5t-86 -82t-65.5 -115t-39.5 -129.5q-16 -94 -1.5 -173zM307 1182q0 25 16.5 41t39.5 16 q25 0 41 -16t16 -41q0 -23 -16.5 -39.5t-40.5 -16.5q-23 0 -39.5 16.5t-16.5 39.5zM500 1182q0 25 16.5 41t38.5 16q25 0 41.5 -16t16.5 -41q0 -23 -16.5 -39.5t-41.5 -16.5q-23 0 -39 16.5t-16 39.5z" />
<glyph unicode="&#xf8;" horiz-adv-x="921" d="M60.5 299q-21.5 104 0.5 227q16 86 51 166t87 144q57 70 120 106q74 43 154 43h8q78 -4 148.5 -41t126.5 -108q100 -129 123 -306q6 -53 4 -101t-15 -95q-20 -102 -86 -180q-53 -66 -134 -104t-181 -46q-10 -2 -20.5 -2h-20.5q-186 0 -285 121q-59 72 -80.5 176z M180.5 331q14.5 -79 55.5 -130q63 -76 190 -76h15.5t17.5 2q150 8 229 104q43 53 60.5 127t7.5 158q-8 68 -33 131.5t-64 112.5q-29 35 -72.5 67.5t-107.5 34.5h-6q-53 0 -100 -31.5t-86 -82t-65.5 -115t-39.5 -129.5q-16 -94 -1.5 -173zM274 25q25 76 46.5 146.5 t44.5 143.5q18 61 38.5 129t45 146t55.5 168t71 198q10 25 33 35t47 2q23 -10 34 -32.5t1 -47.5q-39 -106 -69.5 -195t-55 -166t-45 -143.5t-39.5 -127.5q-23 -74 -44 -147t-48 -150q-6 -18 -22.5 -29.5t-34.5 -11.5q-8 0 -21 4q-25 8 -36 30.5t-1 47.5z" />
<glyph unicode="&#xf9;" horiz-adv-x="1196" d="M68 338q-14 221 30 620q4 25 23.5 41.5t44.5 12.5q27 -4 42 -23.5t11 -44.5q-23 -195 -30 -344t1 -254q8 -109 27 -154t31 -59q8 -6 17 -10t30 -2q8 2 28.5 13t53.5 52q29 35 57.5 85.5t54.5 111.5q61 135 107.5 309t73.5 367q4 25 23.5 41t43.5 12q25 -4 41.5 -22.5 t14.5 -42.5q-4 -63 -10.5 -124t-12.5 -118q-16 -172 -22.5 -315.5t30.5 -249.5q31 -90 84 -111q35 -14 88.5 -1t120.5 50q23 12 46.5 5t35.5 -29q14 -23 7 -46.5t-30 -35.5q-188 -106 -313 -58q-106 41 -155 185q-16 45 -23.5 92t-11.5 98l-25 -55q-61 -143 -129 -225 q-78 -96 -162 -109q-8 -2 -15 -2h-13q-43 0 -73 15.5t-48 33.5q-41 39 -63.5 109.5t-30.5 181.5zM330 1286q0 17 14 29q29 25 57 -4q29 -33 70 -67t78 -50q16 -8 22 -23.5t-2 -31.5q-10 -23 -37 -23q-12 0 -16 2q-49 23 -97 63t-79 74q-10 14 -10 31z" />
<glyph unicode="&#xfa;" horiz-adv-x="1196" d="M68 338q-14 221 30 620q4 25 23.5 41.5t44.5 12.5q27 -4 42 -23.5t11 -44.5q-23 -195 -30 -344t1 -254q8 -109 27 -154t31 -59q8 -6 17 -10t30 -2q8 2 28.5 13t53.5 52q29 35 57.5 85.5t54.5 111.5q61 135 107.5 309t73.5 367q4 25 23.5 41t43.5 12q25 -4 41.5 -22.5 t14.5 -42.5q-4 -63 -10.5 -124t-12.5 -118q-16 -172 -22.5 -315.5t30.5 -249.5q31 -90 84 -111q35 -14 88.5 -1t120.5 50q23 12 46.5 5t35.5 -29q14 -23 7 -46.5t-30 -35.5q-188 -106 -313 -58q-106 41 -155 185q-16 45 -23.5 92t-11.5 98l-25 -55q-61 -143 -129 -225 q-78 -96 -162 -109q-8 -2 -15 -2h-13q-43 0 -73 15.5t-48 33.5q-41 39 -63.5 109.5t-30.5 181.5zM299 1170.5q6 15.5 22 23.5q37 16 78 50t70 67q29 29 57 4q14 -12 14 -28.5t-10 -31.5q-31 -35 -79 -74.5t-97 -62.5q-4 -2 -16 -2q-27 0 -37 23q-8 16 -2 31.5z" />
<glyph unicode="&#xfb;" horiz-adv-x="1196" d="M68 338q-14 221 30 620q4 25 23.5 41.5t44.5 12.5q27 -4 42 -23.5t11 -44.5q-23 -195 -30 -344t1 -254q8 -109 27 -154t31 -59q8 -6 17 -10t30 -2q8 2 28.5 13t53.5 52q29 35 57.5 85.5t54.5 111.5q61 135 107.5 309t73.5 367q4 25 23.5 41t43.5 12q25 -4 41.5 -22.5 t14.5 -42.5q-4 -63 -10.5 -124t-12.5 -118q-16 -172 -22.5 -315.5t30.5 -249.5q31 -90 84 -111q35 -14 88.5 -1t120.5 50q23 12 46.5 5t35.5 -29q14 -23 7 -46.5t-30 -35.5q-188 -106 -313 -58q-106 41 -155 185q-16 45 -23.5 92t-11.5 98l-25 -55q-61 -143 -129 -225 q-78 -96 -162 -109q-8 -2 -15 -2h-13q-43 0 -73 15.5t-48 33.5q-41 39 -63.5 109.5t-30.5 181.5zM303 1180q35 90 51 127q10 25 21.5 42t32.5 21q6 2 23 0t34 -31q4 -6 7 -15t7 -19q10 -25 26.5 -60t45.5 -69q10 -12 9 -30t-15 -28q-15 -10 -27 -10q-18 0 -31 16 q-27 33 -44 64t-27 57q-8 -20 -17.5 -44.5t-19.5 -49.5q-6 -16 -21.5 -22.5t-31.5 -0.5t-22.5 20.5t-0.5 31.5z" />
<glyph unicode="&#xfc;" horiz-adv-x="1196" d="M68 338q-14 221 30 620q4 25 23.5 41.5t44.5 12.5q27 -4 42 -23.5t11 -44.5q-23 -195 -30 -344t1 -254q8 -109 27 -154t31 -59q8 -6 17 -10t30 -2q8 2 28.5 13t53.5 52q29 35 57.5 85.5t54.5 111.5q61 135 107.5 309t73.5 367q4 25 23.5 41t43.5 12q25 -4 41.5 -22.5 t14.5 -42.5q-4 -63 -10.5 -124t-12.5 -118q-16 -172 -22.5 -315.5t30.5 -249.5q31 -90 84 -111q35 -14 88.5 -1t120.5 50q23 12 46.5 5t35.5 -29q14 -23 7 -46.5t-30 -35.5q-188 -106 -313 -58q-106 41 -155 185q-16 45 -23.5 92t-11.5 98l-25 -55q-61 -143 -129 -225 q-78 -96 -162 -109q-8 -2 -15 -2h-13q-43 0 -73 15.5t-48 33.5q-41 39 -63.5 109.5t-30.5 181.5zM264 1182q0 25 16.5 41t39.5 16q25 0 41 -16t16 -41q0 -23 -16.5 -39.5t-40.5 -16.5q-23 0 -39.5 16.5t-16.5 39.5zM457 1182q0 25 16.5 41t38.5 16q25 0 41.5 -16t16.5 -41 q0 -23 -16.5 -39.5t-41.5 -16.5q-23 0 -39 16.5t-16 39.5z" />
<glyph unicode="&#xfd;" horiz-adv-x="866" d="M46 708.5q1 125.5 17 278.5q4 27 23.5 43.5t44.5 11.5q27 -4 43 -23.5t12 -43.5q-31 -293 -6 -467q14 -92 36 -126t32 -42q4 -4 17.5 -7t41.5 11q47 23 100.5 88.5t101.5 161.5t82 218t44 257v19.5t2 19.5q2 25 19.5 41t41.5 16h2q27 -2 43.5 -19.5t16.5 -43.5 q-2 -10 -2 -19.5v-19.5q-10 -180 -2 -350t18 -326q6 -119 11.5 -216t2 -177t-16.5 -146.5t-44 -126.5q-20 -41 -55 -74.5t-82 -58.5q-82 -41 -178 -41h-2q-88 0 -155 35t-97 99q-14 27 -21.5 62.5t-0.5 83.5t33 106.5t79 129.5q16 23 39.5 26t46.5 -11q20 -16 24 -41 t-12 -45q-68 -92 -84 -166q-14 -53 4 -90t60.5 -51.5t83.5 -14.5h2q57 0 117.5 25.5t88.5 81.5q49 96 48.5 241.5t-15.5 362.5q-4 47 -6 98t-6 105q-4 -10 -12 -27q-55 -121 -124 -205t-141 -119q-102 -51 -184 7q-92 66 -119 249q-14 94 -13 219.5zM297 1170.5 q6 15.5 22 23.5q37 16 78 50t70 67q29 29 57 4q14 -12 14 -28.5t-10 -31.5q-31 -35 -79 -74.5t-97 -62.5q-4 -2 -16 -2q-27 0 -37 23q-8 16 -2 31.5z" />
<glyph unicode="&#xfe;" horiz-adv-x="827" d="M63 72q-4 25 11.5 44t40.5 23q16 4 22 4q2 168 -4 334t-14 332q0 18 -1 36.5t-1 39.5v12q-4 121 -8.5 240.5t-6.5 238.5q0 25 17.5 43.5t44.5 18.5q25 0 43 -17.5t18 -44.5q0 -102 3 -203.5t8 -205.5q397 68 530 -88q51 -62 55 -148q6 -72 -28 -160q-35 -90 -101.5 -181 t-159.5 -171q-133 -115 -272 -168q-2 -119 -8 -235.5t-21 -233.5q-2 -23 -19 -38t-40 -15h-8q-25 4 -41.5 23.5t-11.5 44.5q10 104 16 209.5t10 211.5h-4h-8q-23 0 -40 15.5t-22 38.5zM242 813q8 -156 13 -312.5t5 -316.5q70 33 135.5 82t120.5 107.5t97 121t65 121.5 q16 41 22.5 93.5t-26.5 89.5q-43 49 -146 61q-57 6 -128.5 3t-157.5 -19v-31z" />
<glyph unicode="&#xff;" horiz-adv-x="866" d="M46 708.5q1 125.5 17 278.5q4 27 23.5 43.5t44.5 11.5q27 -4 43 -23.5t12 -43.5q-31 -293 -6 -467q14 -92 36 -126t32 -42q4 -4 17.5 -7t41.5 11q47 23 100.5 88.5t101.5 161.5t82 218t44 257v19.5t2 19.5q2 25 19.5 41t41.5 16h2q27 -2 43.5 -19.5t16.5 -43.5 q-2 -10 -2 -19.5v-19.5q-10 -180 -2 -350t18 -326q6 -119 11.5 -216t2 -177t-16.5 -146.5t-44 -126.5q-20 -41 -55 -74.5t-82 -58.5q-82 -41 -178 -41h-2q-88 0 -155 35t-97 99q-14 27 -21.5 62.5t-0.5 83.5t33 106.5t79 129.5q16 23 39.5 26t46.5 -11q20 -16 24 -41 t-12 -45q-68 -92 -84 -166q-14 -53 4 -90t60.5 -51.5t83.5 -14.5h2q57 0 117.5 25.5t88.5 81.5q49 96 48.5 241.5t-15.5 362.5q-4 47 -6 98t-6 105q-4 -10 -12 -27q-55 -121 -124 -205t-141 -119q-102 -51 -184 7q-92 66 -119 249q-14 94 -13 219.5zM235 1182q0 25 16.5 41 t39.5 16q25 0 41 -16t16 -41q0 -23 -16.5 -39.5t-40.5 -16.5q-23 0 -39.5 16.5t-16.5 39.5zM428 1182q0 25 16.5 41t38.5 16q25 0 41.5 -16t16.5 -41q0 -23 -16.5 -39.5t-41.5 -16.5q-23 0 -39 16.5t-16 39.5z" />
<glyph unicode="&#x152;" horiz-adv-x="2121" d="M61 598q-6 104 15.5 210.5t68.5 207.5q41 86 98.5 162.5t123.5 136.5q80 68 149 96q82 33 152 21q25 -4 39 -26t8 -46q-4 -27 -25.5 -40t-46.5 -9q-27 6 -78 -12.5t-116 -75.5q-49 -43 -99.5 -106.5t-89.5 -142.5t-60.5 -172t-15.5 -196q4 -78 32 -149.5t72 -133 t103.5 -107.5t128.5 -71q111 -39 213.5 -14t179.5 111q37 41 64 98t42 123.5t17 138.5t-10 139q-119 -45 -233 -10q-53 16 -102.5 47t-84.5 76t-55.5 94t-22.5 96q-2 76 37 131.5t111 81.5q96 35 186 -5t162 -148q8 -14 16.5 -27.5t16.5 -29.5q-10 72 -25.5 136t-38.5 122 q-14 39 13 67q39 35 96 33q18 -2 38.5 -6t45.5 -10q45 -12 107.5 -23.5t145.5 -5.5t188.5 36.5t238.5 104.5q23 12 47 5t37 -29q12 -23 5 -47.5t-30 -36.5q-147 -80 -268 -114t-216 -40t-165 6t-119 25q-6 0 -11 1t-11 3q41 -135 53 -290t10 -312l80 24q102 33 208.5 58.5 t254.5 25.5q25 0 43 -17.5t18 -43.5q0 -27 -18.5 -44.5t-42.5 -17.5q-68 0 -124 -6t-106.5 -17t-98.5 -25.5t-97 -28.5q-29 -10 -58.5 -18.5t-62.5 -18.5q-2 -43 -3 -86t-5 -84q-2 -59 -4 -114.5t-4 -106.5q84 31 184 61.5t209.5 37.5t226.5 -18.5t234 -107.5 q23 -16 26.5 -40t-10.5 -46q-16 -23 -41 -27t-45 13q-102 72 -206.5 92t-204 9t-191.5 -42t-172 -61q-14 -4 -25.5 -9.5t-23.5 -9.5t-21 -4q-18 0 -35 10q-27 20 -26 49q-4 76 0 172q-12 -20 -24.5 -37.5t-28.5 -33.5q-109 -119 -252 -150q-25 -6 -49.5 -8t-51.5 -2 q-86 0 -172 31q-82 29 -154.5 83t-129.5 128q-59 78 -93 168t-41 188zM651 1049q2 -29 14.5 -58.5t34.5 -58.5q49 -61 125 -84q88 -23 174 16q-31 98 -77 172q-29 41 -69 77t-93 36q-10 0 -21.5 -2t-21.5 -6q-68 -23 -66 -92z" />
<glyph unicode="&#x153;" horiz-adv-x="1658" d="M81 299q-22 104 1 227q16 86 51 166t86 144q57 70 121 106q74 43 154 43h8q78 -4 148.5 -41t125.5 -108q100 -129 123 -306q6 -53 4 -101t-14 -95q-20 -102 -86 -180q-53 -66 -134 -104t-182 -46q-10 -2 -20.5 -2h-20.5q-186 0 -284 121q-59 72 -81 176zM201 331 q14 -79 55 -130q63 -76 190 -76h15.5t17.5 2q150 8 230 104q43 53 60 127t7 158q-8 68 -32.5 131.5t-63.5 112.5q-29 35 -73 67.5t-107 34.5h-6q-53 0 -100.5 -31.5t-86.5 -82t-65.5 -115t-38.5 -129.5q-16 -94 -2 -173zM811 520q23 117 67 216.5t107 170.5q57 68 129 105 t143 30q115 -10 183 -120q61 -109 65 -289q0 -25 -16 -43.5t-41 -20.5q-20 -2 -60 -10t-103.5 -33.5t-153 -72.5t-207.5 -123q18 -143 135 -187q49 -16 107.5 -13t115.5 28q131 57 205 186q12 23 36.5 30t47.5 -7q23 -12 29 -36t-7 -46q-45 -82 -112.5 -143.5t-149.5 -96.5 q-39 -16 -79 -25.5t-81 -11.5q-8 -2 -24 -2q-68 0 -129 23q-127 47 -184 172q-59 131 -23 319zM928 477q135 84 249.5 136.5t202.5 70.5q-10 106 -45 168.5t-88 67.5q-4 0 -5 1t-5 1q-37 0 -79 -25t-81 -72q-53 -59 -90 -143t-57 -184q0 -4 -1 -10.5t-1 -10.5z" />
<glyph unicode="&#x178;" horiz-adv-x="1228" d="M33 1341q-10 25 1 47.5t34 32.5q133 51 231 52h2q102 0 170 -56q63 -55 92 -157q10 -41 14.5 -92.5t2.5 -110.5q-4 -106 -21.5 -224t-38.5 -235q-16 -90 -29.5 -171t-17.5 -148q-6 -86 3 -117t13 -35q0 -6 21 -4q92 12 199 153q92 125 186 349q33 78 59.5 153.5t48 143 t36 122t22.5 89.5q4 43 8 56t12 23q31 37 74 21q14 -6 26.5 -21.5t10.5 -40.5v-14q-2 -8 -4 -18.5t-6 -26.5q0 -10 -1 -20.5t-3 -20.5q-8 -66 -20.5 -170t-34 -230t-53.5 -265.5t-75 -272.5q-98 -307 -237 -473q-173 -207 -398 -207h-18q-27 2 -43 19.5t-16 44.5 q2 27 20.5 43t42.5 16q178 -8 316 162q129 154 217 434q25 72 44 145.5t35 147.5q-76 -156 -153 -266q-137 -180 -283 -197q-47 -6 -76.5 9.5t-46.5 31.5q-61 63 -49 244q4 72 18.5 155.5t30.5 175.5q20 115 37 229t21 214q6 205 -64 260q-76 63 -280 -14q-23 -10 -46.5 1 t-33.5 33zM641 1592q0 25 16.5 41t39.5 16q25 0 41 -16t16 -41q0 -23 -16.5 -39.5t-40.5 -16.5q-23 0 -39.5 16.5t-16.5 39.5zM834 1592q0 25 16.5 41t38.5 16q25 0 41.5 -16t16.5 -41q0 -23 -16.5 -39.5t-41.5 -16.5q-23 0 -39 16.5t-16 39.5z" />
<glyph unicode="&#x2c6;" horiz-adv-x="339" d="M45 1180q35 90 51 127q10 25 21.5 42t32.5 21q6 2 23 0t34 -31q4 -6 7 -15t7 -19q10 -25 26.5 -60t45.5 -69q10 -12 9 -30t-15 -28q-15 -10 -27 -10q-18 0 -31 16q-27 33 -44 64t-27 57q-8 -20 -17.5 -44.5t-19.5 -49.5q-6 -16 -21.5 -22.5t-31.5 -0.5t-22.5 20.5 t-0.5 31.5z" />
<glyph unicode="&#x2dc;" horiz-adv-x="550" d="M39 1178q10 78 28.5 118.5t53.5 55.5q43 18 94 -9q18 -10 36.5 -22t35.5 -27q16 -12 32.5 -23t32.5 -20q18 -10 29 -6l5 4t11 17.5t13.5 39t13.5 68.5q2 16 15.5 26.5t29.5 8.5q16 -4 26.5 -16.5t8.5 -28.5q-10 -86 -32.5 -132t-57.5 -63q-47 -18 -90 6.5t-84 55.5 q-16 12 -31.5 22.5t-30.5 18.5q-10 4 -16 5t-8 1q-6 -6 -13 -18q-4 -10 -10 -32t-10 -59q-2 -16 -13.5 -26t-27.5 -10h-4q-16 2 -27.5 15t-9.5 30z" />
<glyph unicode="&#x2000;" horiz-adv-x="968" />
<glyph unicode="&#x2001;" horiz-adv-x="1936" />
<glyph unicode="&#x2002;" horiz-adv-x="968" />
<glyph unicode="&#x2003;" horiz-adv-x="1936" />
<glyph unicode="&#x2004;" horiz-adv-x="645" />
<glyph unicode="&#x2005;" horiz-adv-x="484" />
<glyph unicode="&#x2006;" horiz-adv-x="322" />
<glyph unicode="&#x2007;" horiz-adv-x="322" />
<glyph unicode="&#x2008;" horiz-adv-x="242" />
<glyph unicode="&#x2009;" horiz-adv-x="387" />
<glyph unicode="&#x200a;" horiz-adv-x="107" />
<glyph unicode="&#x2010;" horiz-adv-x="557" d="M57 555q0 25 17.5 43t44.5 18q41 -2 79 2.5t78 8.5l82 8t86 4q27 0 44.5 -17.5t17.5 -43.5q0 -25 -17.5 -43.5t-44.5 -18.5q-41 0 -77.5 -3t-75.5 -7l-82 -8t-84 -4h-6q-27 0 -44.5 17t-17.5 44z" />
<glyph unicode="&#x2011;" horiz-adv-x="557" d="M57 555q0 25 17.5 43t44.5 18q41 -2 79 2.5t78 8.5l82 8t86 4q27 0 44.5 -17.5t17.5 -43.5q0 -25 -17.5 -43.5t-44.5 -18.5q-41 0 -77.5 -3t-75.5 -7l-82 -8t-84 -4h-6q-27 0 -44.5 17t-17.5 44z" />
<glyph unicode="&#x2012;" horiz-adv-x="557" d="M57 555q0 25 17.5 43t44.5 18q41 -2 79 2.5t78 8.5l82 8t86 4q27 0 44.5 -17.5t17.5 -43.5q0 -25 -17.5 -43.5t-44.5 -18.5q-41 0 -77.5 -3t-75.5 -7l-82 -8t-84 -4h-6q-27 0 -44.5 17t-17.5 44z" />
<glyph unicode="&#x2013;" horiz-adv-x="1132" d="M57 555q0 25 40 43t101 18q94 -2 180.5 2.5t177.5 8.5q94 4 187.5 8t196.5 4q61 0 101 -17.5t40 -43.5q0 -25 -40 -43.5t-101 -18.5q-94 0 -177 -3t-172 -7q-94 -4 -187.5 -8t-191.5 -4h-14q-61 0 -101 17t-40 44z" />
<glyph unicode="&#x2014;" horiz-adv-x="2156" d="M57 555q0 25 80 43t203 18q187 -2 360 2.5t356 8.5l374 8t392 4q123 0 203 -17.5t80 -43.5q0 -25 -80 -43.5t-203 -18.5q-187 0 -353.5 -3t-344.5 -7l-374 -8t-383 -4h-27q-123 0 -203 17t-80 44z" />
<glyph unicode="&#x2018;" horiz-adv-x="290" d="M49 983q-20 55 2.5 133t110.5 146q14 10 30.5 8t26.5 -17q10 -14 8 -30.5t-16 -26.5q-61 -47 -79.5 -99.5t-4.5 -84.5q4 -12 16.5 -26.5t40.5 -10.5q16 0 29.5 -11.5t13.5 -27.5q2 -16 -9 -28.5t-28 -14.5h-12q-94 0 -129 90z" />
<glyph unicode="&#x2019;" horiz-adv-x="290" d="M63 936q0 16 13.5 27.5t29.5 11.5q29 -4 41.5 10t16.5 27q14 33 -4.5 85t-79.5 99q-14 10 -16.5 26.5t8.5 30.5q10 14 26.5 16.5t30.5 -7.5q88 -68 110.5 -146t2.5 -133q-35 -90 -129 -90h-13q-16 2 -27.5 14.5t-9.5 28.5z" />
<glyph unicode="&#x201a;" horiz-adv-x="290" d="M63 -207q0 16 13.5 27.5t29.5 11.5q29 -4 41.5 10.5t16.5 26.5q14 33 -4.5 85t-79.5 99q-14 10 -16.5 26.5t8.5 31.5q10 14 26.5 16t30.5 -8q88 -68 110.5 -145.5t2.5 -133.5q-35 -90 -129 -90h-13q-16 2 -27.5 14.5t-9.5 28.5z" />
<glyph unicode="&#x201c;" horiz-adv-x="540" d="M72 983q-20 55 2 133t110 146q14 10 30.5 8t27.5 -17q10 -14 8 -30.5t-17 -26.5q-61 -47 -79.5 -99.5t-3.5 -84.5q4 -12 16 -26.5t41 -10.5q16 0 29.5 -11.5t13.5 -27.5q2 -16 -9.5 -28.5t-27.5 -14.5h-12q-94 0 -129 90zM295 987q-20 55 2 133t111 146q14 10 30.5 8 t26.5 -17q10 -14 8 -30.5t-16 -26.5q-61 -47 -80 -99t-4 -85q4 -12 16 -26.5t41 -10.5q16 0 29.5 -11.5t13.5 -27.5q2 -16 -9 -28.5t-28 -14.5h-12q-94 0 -129 90z" />
<glyph unicode="&#x201d;" horiz-adv-x="540" d="M70 940q0 16 13 27.5t30 11.5q29 -4 41 10.5t16 26.5q14 33 -4.5 85t-79.5 99q-14 10 -16 26.5t8 30.5t26.5 16.5t30.5 -7.5q88 -68 110.5 -146t2.5 -133q-35 -90 -129 -90h-13q-16 2 -27 14.5t-9 28.5zM293 936q0 16 13 27.5t30 11.5q29 -4 41 10t16 27q14 33 -4 85 t-80 99q-14 10 -16 26.5t8 30.5t26.5 16.5t30.5 -7.5q88 -68 111 -146t2 -133q-35 -90 -129 -90h-12q-16 2 -27.5 14.5t-9.5 28.5z" />
<glyph unicode="&#x201e;" horiz-adv-x="540" d="M68 79.5q-2 16.5 8 31.5q10 14 26.5 16t30.5 -8q88 -68 110.5 -145.5t2.5 -133.5q-35 -90 -129 -90h-13q-16 2 -27 14.5t-9 28.5q0 16 13 27.5t30 11.5q29 -4 41 10.5t16 26.5q14 33 -4.5 85t-79.5 99q-14 10 -16 26.5zM291 75.5q-2 16.5 8 30.5t26.5 16.5t30.5 -7.5 q88 -68 110.5 -146t2.5 -133q-35 -90 -129 -90h-12q-16 2 -27.5 14.5t-9.5 28.5q0 16 13 27.5t30 11.5q29 -4 41 10.5t16 26.5q14 33 -4 85t-80 99q-14 10 -16 26.5z" />
<glyph unicode="&#x202f;" horiz-adv-x="387" />
<glyph unicode="&#x205f;" horiz-adv-x="484" />
<glyph unicode="&#x20ac;" horiz-adv-x="874" d="M31 825q4 27 25.5 40.5t45.5 8.5q18 -4 36 -6l36 -4q14 68 33.5 134.5t48.5 125.5q18 41 43 85t55.5 82t68.5 66.5t83 39.5q27 6 59.5 4t69.5 -20.5t76 -56.5t77 -105q12 -23 6 -47.5t-28 -36.5q-23 -12 -46.5 -6t-37.5 28q-12 23 -29.5 46.5t-36 42t-40 27.5t-44.5 5 q-39 -10 -82.5 -63.5t-80.5 -139.5q-23 -51 -41.5 -108.5t-32.5 -116.5q176 -14 328 16q27 4 47 -9t26 -38q4 -27 -9 -48t-40 -26q-57 -12 -116.5 -17t-122.5 -5q-33 0 -65 1t-67 3q-2 -10 -3 -21.5t-1 -23.5q-2 -37 0 -76q125 -6 238 5.5t174 27.5q25 6 46.5 -7.5 t27.5 -37.5q8 -25 -5.5 -46.5t-37.5 -27.5q-66 -16 -161 -27.5t-202 -11.5h-57q8 -35 19.5 -66.5t27.5 -64.5q37 -84 84 -139t98 -78q8 -4 24.5 -8t40 0t54.5 20.5t66 55.5q16 20 41 21t45 -15q18 -16 20 -42t-14 -44q-74 -84 -160 -111q-37 -10 -68 -10q-45 0 -96 20 q-72 29 -136.5 102t-111.5 177q-23 47 -38 95t-25 98q-16 2 -32.5 3t-33.5 5q-27 4 -41 24.5t-10 46.5q4 25 24.5 39.5t47.5 10.5q8 0 29 -5q-4 39 0 74q2 14 2 26.5t2 26.5q-16 2 -35 4.5t-39 6.5q-25 4 -39 25.5t-10 45.5z" />
<glyph unicode="&#x25fc;" horiz-adv-x="1208" d="M0 0v1208h1208v-1208h-1208z" />
</font>
</defs>
</svg>
